<?xml version="1.0" encoding="utf-8"?>
<!-- Generator: Adobe Illustrator 19.1.0, SVG Export Plug-In . SVG Version: 6.00 Build 0)  -->
<svg version="1.1" id="Layer_1" xmlns:sketch="http://www.bohemiancoding.com/sketch/ns"
	 xmlns="http://www.w3.org/2000/svg" xmlns:xlink="http://www.w3.org/1999/xlink" x="0px" y="0px" viewBox="-27 29 44 44"
	 style="enable-background:new -27 29 44 44;" xml:space="preserve">
<style type="text/css">
	.st0{fill:#FDCC9A;}
</style>
<title>instagram</title>
<desc>Created with Sketch.</desc>
<g id="Page-1" sketch:type="MSPage">
	<g id="layout" transform="translate(-646.000000, -1383.000000)" sketch:type="MSArtboardGroup">
		<path id="instagram" sketch:type="MSShapeGroup" class="st0" d="M657.9,1456h-33.8c-2.8,0-5.1-2.3-5.1-5.1v-33.8
			c0-2.8,2.3-5.1,5.1-5.1h33.8c2.8,0,5.1,2.3,5.1,5.1v33.8C663,1453.7,660.7,1456,657.9,1456L657.9,1456z M641,1425.5
			c-4.7,0-8.5,3.8-8.5,8.5c0,4.7,3.8,8.5,8.5,8.5s8.5-3.8,8.5-8.5C649.5,1429.3,645.7,1425.5,641,1425.5L641,1425.5z M657.9,1418.8
			c0-0.9-0.8-1.7-1.7-1.7h-5.1c-0.9,0-1.7,0.8-1.7,1.7v5.1c0,0.9,0.8,1.7,1.7,1.7h5.1c0.9,0,1.7-0.8,1.7-1.7c0,0,0,0.9,0,0V1418.8
			L657.9,1418.8z M657.9,1430.6h-3.8c0.3,1.1,0.4,2.2,0.4,3.4c0,7.5-6.1,13.5-13.5,13.5c-7.5,0-13.5-6.1-13.5-13.5
			c0-1.2,0.2-2.3,0.4-3.4h-3.8v18.6c0,0.9,0.8,1.7,1.7,1.7h30.5c0.9,0,1.7-0.8,1.7-1.7c0,0,0,0.9,0,0V1430.6L657.9,1430.6z"/>
	</g>
</g>
</svg>
