<?xml version="1.0" encoding="utf-8"?>
<!-- Generator: Adobe Illustrator 19.1.0, SVG Export Plug-In . SVG Version: 6.00 Build 0)  -->
<svg version="1.1" id="Layer_1" xmlns:sketch="http://www.bohemiancoding.com/sketch/ns"
	 xmlns="http://www.w3.org/2000/svg" xmlns:xlink="http://www.w3.org/1999/xlink" x="0px" y="0px" viewBox="-27 29 44 44"
	 style="enable-background:new -27 29 44 44;" xml:space="preserve">
<style type="text/css">
	.st0{fill:#FDCC9A;}
</style>
<title>linkedin</title>
<desc>Created with Sketch.</desc>
<g id="Page-1" sketch:type="MSPage">
	<g id="layout" transform="translate(-981.000000, -1381.000000)" sketch:type="MSArtboardGroup">
		<path id="linkedin" sketch:type="MSShapeGroup" class="st0" d="M994.7,1410h-37.5c-1.8,0-3.2,1.4-3.2,3.2v37.7
			c0,1.8,1.5,3.2,3.2,3.2h37.5c1.8,0,3.3-1.4,3.3-3.2v-37.7C998,1411.4,996.5,1410,994.7,1410z M963.8,1416.1c2.1,0,3.8,1.7,3.8,3.8
			c0,2.1-1.7,3.8-3.8,3.8s-3.8-1.7-3.8-3.8C960,1417.8,961.7,1416.1,963.8,1416.1z M960.5,1426.5h6.5v21h-6.5V1426.5z M971.1,1426.5
			h6.3v2.9h0.1c0.9-1.7,3-3.4,6.2-3.4c6.6,0,7.8,4.3,7.8,10v11.5H985v-10.2c0-2.4,0-5.6-3.4-5.6s-3.9,2.7-3.9,5.4v10.4h-6.5
			L971.1,1426.5L971.1,1426.5z"/>
	</g>
</g>
</svg>
