<?xml version="1.0" encoding="UTF-8" standalone="no"?>
<svg width="100px" height="100px" viewBox="0 0 100 100" version="1.1" xmlns="http://www.w3.org/2000/svg" xmlns:xlink="http://www.w3.org/1999/xlink" xmlns:sketch="http://www.bohemiancoding.com/sketch/ns">
    <!-- Generator: Sketch 3.4.2 (15857) - http://www.bohemiancoding.com/sketch -->
    <title>logo</title>
    <desc>Created with Sketch.</desc>
    <defs>
        <circle id="path-1" cx="50" cy="50" r="50"></circle>
    </defs>
    <g id="Page-1" stroke="none" stroke-width="1" fill="none" fill-rule="evenodd" sketch:type="MSPage">
        <g id="logo" sketch:type="MSLayerGroup">
            <mask id="mask-2" sketch:name="Mask" fill="white">
                <use xlink:href="#path-1"></use>
            </mask>
            <use id="Mask" fill="#DAF2F0" sketch:type="MSShapeGroup" xlink:href="#path-1"></use>
            <path d="M91.5,11.2 C90.9,10.8 90.4,10.4 89.8,10 C87.7,8.5 85.3,7.3 82.8,6.6 C82.4,6.5 82.1,6.7 81.9,6.9 C81.9,6.9 81.8,6.9 81.8,6.8 C81.7,6.8 81.6,6.7 81.5,6.7 C80.1,5 78,3.8 76.1,2.8 C74.7,2.1 73.3,1.6 71.8,1 C71.7,0.9 71.6,0.7 71.4,0.6 C67.2,-1.4 62.9,-3.6 59,-6.5 C58,-7.3 56.9,-8.1 55.9,-9 L53.3,-9 C54.3,-8.1 55.2,-7.2 56.3,-6.4 C59,-4.2 61.9,-2.4 64.9,-0.7 C56.2,-2.5 47.2,-2.3 38.3,-2.2 C34.8,-2.1 31.3,-2.2 27.8,-2.8 C24.6,-3.3 21.3,-4.3 18.9,-6.5 C18.3,-7.4 17.6,-8.2 16.9,-9 L14.7,-9 C15.7,-7.9 16.6,-6.7 17.5,-5.5 C17.5,-5.4 17.6,-5.3 17.7,-5.2 L17.7,-5.2 C19.7,-2.5 21.6,0.3 23.4,3.2 C24.9,5.6 26.4,8 28.4,9.9 C25.8,9.1 23.2,8.6 20.5,8.5 C16.5,8.3 12.6,8.7 8.7,9.2 C8.6,9 8.5,9 8.5,9 C8.5,8.7 8.3,8.4 7.9,8.3 C3.6,7 -2.84217094e-14,4.1 -3.2,1.1 C-6.5,-1.9 -9.6,-4.9 -13,-7.8 C-13.5,-8.2 -14,-8.7 -14.5,-9.1 L-17.2,-9.1 C-14.6,-6.9 -11.9,-4.7 -9.3,-2.3 C-4.8,2.1 -0.1,7 5.8,9.4 C0.3,11 -5.4,12.1 -11.2,11.4 C-11.3,11.3 -11.4,11.2 -11.5,11.2 C-16.1,8.3 -21.3,6.3 -26.6,4.9 C-29.6,4.1 -32.7,3.5 -35.7,3.1 C-43,0.5 -49.3,-3.9 -55,-9 L-57.6,-9 C-57.2,-8.7 -56.9,-8.3 -56.5,-8 C-51.9,-3.8 -46.9,-0.1 -41.4,2.5 L-43,2.5 C-43.4,2.5 -43.7,2.7 -43.8,3 C-45.4,3.7 -47.4,3.5 -49,3.2 C-51,2.9 -52.8,2.3 -54.7,1.6 C-58.9,0 -62.8,-2.4 -66.5,-4.9 C-68.5,-6.3 -70.5,-7.7 -72.6,-9.1 L-75.6,-9.1 C-74.1,-8.1 -72.7,-7 -71.2,-6 C-66.6,-2.8 -62,0.3 -56.9,2.6 C-54.6,3.6 -52.2,4.5 -49.7,4.9 C-48.7,5.1 -47.6,5.2 -46.6,5.2 C-50,7.3 -53.9,8.7 -57.6,9.9 C-62.1,11.3 -66.7,12.2 -71.3,12.8 C-71.4,12.6 -71.7,12.4 -72,12.4 C-74.4,12.4 -76.6,12.4 -78.9,12 C-80.7,11.7 -82.5,11.1 -84.2,10.4 C-87.5,9 -90.5,6.9 -93.1,4.5 C-98,0.4 -101.9,-4.5 -106.4,-9 L-108.9,-9 C-106.5,-6.7 -104.2,-4.2 -102,-1.7 C-98.2,2.4 -94.3,6.5 -89.6,9.6 C-87.3,11.1 -84.8,12.3 -82.2,13.1 C-80.8,13.5 -79.4,13.8 -77.9,14 C-77.4,14.1 -76.9,14.1 -76.3,14.2 L-76.3,14.2 C-77.8,14.7 -79.2,15.3 -80.7,15.9 C-83.6,17 -86.4,18 -89.5,18.5 C-92.6,19 -95.8,18.6 -98.9,17.7 C-101.3,17 -103.8,16 -105.9,14.6 C-108.3,12.3 -110.2,9.5 -112.1,6.9 C-114.7,3.5 -117.5,0.1 -121.3,-1.9 C-122.9,-4.2 -124.4,-6.6 -126.1,-8.9 L-128.2,-8.9 C-126.7,-7 -125.3,-4.8 -124,-2.8 C-127.3,-3.9 -130.9,-4.1 -134.3,-4.5 C-139.9,-6.5 -146.2,-6.2 -151.9,-5.3 C-155.8,-4.7 -159.9,-3.6 -163.6,-1.9 C-163.8,-2 -163.9,-2 -164.1,-1.9 C-166.6,-1.4 -169.2,-2.1 -171.7,-2 C-174.5,-1.9 -177.3,-1.5 -180.1,-1.2 C-185.4,-0.5 -190.8,0.3 -196.1,0.2 C-197.7,0.2 -199.3,-7.10542736e-15 -200.8,-0.3 C-198.4,-0.5 -195.9,-1 -193.6,-1.6 C-188.7,-2.8 -184.4,-5.1 -179.8,-7.1 C-178.5,-7.7 -177.2,-8.3 -175.9,-8.8 L-180,-8.8 C-182.8,-7.5 -185.7,-6.1 -188.5,-4.9 C-191.3,-3.7 -194.3,-3 -197.3,-2.5 C-200.2,-2 -203.3,-1.6 -206.3,-2.2 C-206.5,-2.2 -206.7,-2.2 -206.9,-2.1 C-208.2,-2.6 -209.5,-3.2 -210.7,-3.8 C-213.6,-5.2 -216.2,-7 -218.8,-8.8 L-221.8,-8.8 C-221.1,-8.3 -220.4,-7.8 -219.7,-7.3 C-215.7,-4.5 -211.6,-2.1 -207,-0.4 C-202,1.5 -197,2.2 -191.7,1.9 C-186.9,1.6 -182.1,0.9 -177.4,0.3 C-175,-5.32907052e-15 -172.5,-0.3 -170.1,-0.2 C-168.9,-0.2 -167.8,-5.32907052e-15 -166.6,-5.32907052e-15 C-167.6,0.6 -168.6,1.3 -169.6,2.1 C-169.7,2.2 -169.8,2.3 -169.8,2.4 C-173.8,4.6 -177.7,6.8 -182.1,8 C-186.4,9.2 -190.9,9.6 -195.4,9.5 C-204.3,9.2 -213.1,6.2 -220.4,1 C-224.5,-1.9 -228.3,-5.4 -232.1,-8.7 L-234.7,-8.7 C-233.5,-7.6 -232.3,-6.6 -231,-5.5 C-227.2,-2.2 -223.3,1.2 -219,4 C-211.6,8.7 -202.7,11.2 -194,11.3 C-189.7,11.4 -185.3,10.8 -181.1,9.6 C-180.2,9.3 -179.4,9.1 -178.5,8.7 C-189.8,14.4 -203.2,16 -215.5,13.6 C-223.9,12 -231.7,8.4 -237.9,2.4 C-240.8,-0.4 -243.4,-3.6 -245.9,-6.9 L-245.9,-4.1 C-243.5,-1 -241,2 -238.1,4.6 C-238.1,4.7 -238,4.7 -238,4.8 C-233.1,11.3 -227.8,17.7 -221.4,22.7 C-218.6,24.9 -215.6,26.7 -212.5,28.2 C-213.9,28.4 -215.4,28.6 -216.8,28.7 C-219,28.9 -221.3,29 -223.6,28.9 C-228,28.7 -232.4,27.8 -236.6,26.1 C-240,24.7 -243.2,22.6 -246,20.1 L-246,22.4 C-244.6,23.5 -243.2,24.5 -241.7,25.4 C-241.6,25.5 -241.5,25.6 -241.4,25.7 C-237.1,28.1 -233.7,31.6 -230.1,34.9 C-226.9,37.8 -223.5,40.3 -219.5,42.1 C-211.8,45.5 -203.1,46.2 -194.9,45.5 C-198.1,46.7 -201.3,47.8 -204.5,49.1 C-209.1,50.9 -213.8,52.1 -218.7,52 C-227.3,51.8 -235.9,48.1 -242.3,42.5 C-243.6,41.3 -244.9,40 -246,38.7 L-246,41 C-245.5,41.5 -245,42 -244.5,42.5 C-241.4,45.5 -237.7,47.9 -233.9,49.7 C-231,51 -228,52.1 -224.9,52.7 C-224.8,52.9 -224.5,53.1 -224.2,53.1 C-222,53.2 -220,54.6 -218,55.6 C-221.8,56 -225.6,56.7 -229.5,56.8 C-233.8,56.9 -238.2,55.9 -242.1,54.2 C-243.5,53.6 -244.8,52.9 -246.1,52.1 L-246.1,54.1 C-242.5,56.1 -238.5,57.5 -234.4,58.2 C-227.6,59.4 -221,57.1 -214.3,57.1 C-212.9,57.6 -211.5,58 -210.1,58.3 C-206.8,59.1 -203.4,59.5 -199.9,59.4 C-201.6,60.5 -203.2,61.8 -205,62.8 C-209.4,65.3 -214.4,66.3 -219.4,66.8 C-227.4,67.5 -235.9,66.5 -243,62.5 C-244.1,61.9 -245.1,61.2 -246.1,60.4 L-246.1,62.6 C-242.3,65.3 -237.9,67 -233.3,67.9 C-233.3,67.9 -233.2,67.9 -233.2,68 C-231.1,69.3 -229.2,70.9 -227.2,72.3 C-225.2,73.7 -223,74.7 -220.6,75.5 C-217.1,76.6 -213.5,77 -209.8,77.1 C-210.6,77.5 -211.4,77.8 -212.1,78.2 C-214.3,79.2 -216.4,80.1 -218.8,80.6 C-222.8,81.5 -226.9,81.6 -230.9,81.1 C-234.5,80.7 -238,79.6 -241.3,78 C-241.3,78 -241.3,78 -241.4,78 C-243,77.2 -244.6,76.3 -246,75.2 L-246,77.6 C-245.4,78.1 -244.7,78.6 -244,79 C-243.9,79.2 -243.7,79.4 -243.5,79.5 C-239.2,80.9 -235.6,83.6 -231.9,86.1 C-228.1,88.7 -224.3,90.9 -219.8,92.1 C-218.7,92.4 -217.6,92.6 -216.4,92.8 C-220.1,93.9 -223.8,94.8 -227.7,95.1 C-232.9,95.6 -238.1,94.9 -243,93 C-244,92.6 -245.1,92.1 -246.1,91.6 L-246.1,93.5 C-241.7,95.6 -236.8,96.8 -231.9,96.9 C-225.5,97 -219.1,95.5 -213,93.4 L-212.6,93.4 C-211.2,93.2 -209.9,93.9 -208.8,94.6 C-207.3,95.6 -206,96.8 -204.7,98.1 C-204,98.8 -203.3,99.5 -202.6,100.3 C-204.4,100.2 -206.4,100.5 -208.1,100.8 C-211.6,101.5 -215,102.8 -218.4,103.9 C-221,104.7 -223.6,105.2 -226.3,105.4 L-226.4,105.4 C-226.7,105.3 -226.9,105.4 -227.1,105.5 C-227.7,105.5 -228.4,105.6 -229,105.6 C-232.8,105.7 -236.7,105.3 -240.4,104.1 C-242.5,103.4 -244.4,102.4 -246.1,101.2 L-246.1,103.3 C-241,106.5 -234.8,107.5 -228.8,107.3 C-228.1,107.3 -227.3,107.2 -226.6,107.2 C-222.5,108.5 -218.8,110.8 -215.5,113.6 C-215.8,113.6 -216,113.6 -216.3,113.7 L-216.7,113.7 C-216.9,113.7 -217.1,113.7 -217.2,113.8 C-221.2,114.4 -225.2,115.8 -229.2,116.3 C-233.9,116.9 -238.7,116.3 -243.2,114.7 C-244.2,114.4 -245.2,114 -246.1,113.5 L-246.1,115.4 C-245.9,115.5 -245.7,115.6 -245.4,115.7 C-241.1,117.5 -236.4,118.4 -231.8,118.2 C-228.9,118.1 -226,117.6 -223.1,116.8 C-220.8,116.2 -218.5,115.6 -216.1,115.3 C-214.7,115.5 -213.5,116.3 -212.4,117.2 C-208,122.1 -204.2,127.5 -198.9,131.4 C-201.9,130.4 -204.9,129.3 -207.9,128.3 C-213,126.6 -218.3,126.3 -223.7,126.2 C-228.7,126.1 -233.6,125.4 -238.3,123.5 C-240.5,122.6 -242.8,121.4 -244.6,119.9 C-245.1,119.5 -245.5,119.1 -245.9,118.7 L-245.9,121 C-242.4,124 -237.8,125.7 -233.4,126.8 C-228.4,128 -223.4,127.8 -218.3,128.1 C-215.6,128.3 -212.9,128.7 -210.3,129.4 C-207.7,130.1 -205.1,131.1 -202.6,132 C-202.1,132.2 -201.5,132.4 -201,132.6 C-204,133.1 -206.9,134.1 -209.8,135.3 C-214.7,137.4 -219.8,139.1 -225.1,139.7 C-232.6,140.6 -240.1,138.8 -246.1,134.4 L-246.1,136.5 C-242.2,139.1 -237.8,140.8 -232.9,141.5 C-226.5,142.3 -219.9,141 -213.8,138.8 C-210.8,137.7 -208,136.3 -204.9,135.3 C-202.3,134.4 -199.6,134 -196.9,133.9 C-195.7,134.2 -194.5,134.6 -193.2,134.8 C-191.5,135.6 -189.7,136.2 -187.9,136.8 C-188.3,136.9 -188.8,137 -189.2,137.1 C-191.5,137.7 -193.8,138.7 -196,139.7 C-200.4,141.7 -204.6,144.2 -209.1,146.1 C-215.8,149.1 -223.3,151.6 -230.8,151.5 C-231.1,151.5 -231.5,151.4 -231.8,151.4 L-232.1,151.4 C-234.3,151.3 -236.5,151 -238.7,150.3 C-241.4,149.5 -243.8,148.2 -246,146.6 L-246,148.7 C-245.4,149.1 -244.8,149.5 -244.1,149.9 C-240.1,152.1 -235.6,153.1 -231.1,153.1 C-226.4,153.5 -221.9,155.5 -217.4,156.6 C-214.9,157.2 -212.3,157.5 -209.7,157.7 L-209.5,157.7 C-209.4,157.8 -209.3,157.8 -209.2,157.9 C-204.4,159.2 -199.8,161.1 -195,162.4 C-190.6,163.6 -186,163.9 -181.4,163.8 C-184.3,165.2 -187.2,166.7 -190.4,167.7 C-192.5,168.4 -194.8,168.7 -197,169.1 C-199.2,169.5 -201.4,169.8 -203.6,170.1 C-212.2,171.2 -221.3,171 -229.2,167.1 C-231.7,165.8 -233.9,164.2 -236,162.4 C-238.5,160.3 -241.1,158.2 -243.6,156 C-244.4,155.3 -245.3,154.6 -246.1,153.8 L-246.1,156.1 C-244.4,157.6 -242.6,159.1 -240.9,160.5 C-238.9,162.1 -237,163.9 -234.9,165.5 C-229.9,169.4 -224,171.4 -217.9,172.1 C-217.8,172.2 -217.6,172.3 -217.3,172.3 C-213.7,172.5 -210.4,174 -207.2,175.6 C-211,175.5 -214.8,175.9 -218.6,176.2 C-223.1,176.5 -227.7,176.7 -232.1,176 C-236.4,175.4 -240.6,173.9 -244,171 C-244.7,170.4 -245.4,169.8 -246,169.1 L-246,171.8 C-243.4,174.5 -241.7,177.9 -239.3,180.8 C-236.6,184.2 -232.9,186.9 -228.9,188.7 C-220.7,192.5 -211,193 -202.4,190.7 C-202,190.6 -201.6,190.5 -201.3,190.4 C-201.8,190.8 -202.3,191.2 -202.8,191.6 C-204.7,193.1 -206.7,194.5 -208.8,195.7 C-211,197 -213.3,198.1 -215.7,198.6 C-217.8,199.1 -220,199 -222.2,198.8 C-226.6,198.3 -230.9,196.4 -234.5,194 C-236.4,192.8 -238.1,191.3 -239.7,189.8 C-241,188.5 -242.5,187 -243.3,185.4 C-244.6,182.9 -245.1,179.9 -245.8,177.1 L-245.8,183.9 C-245.5,184.9 -245.1,185.8 -244.6,186.7 C-243.6,188.4 -242.1,189.9 -240.7,191.2 C-239.1,192.7 -237.4,194.1 -235.5,195.4 C-231.8,197.9 -227.7,199.7 -223.3,200.4 C-221.8,200.7 -220.2,200.8 -218.6,200.7 C-218.5,200.9 -218.3,201 -218.1,201 C-213.2,202.1 -208.2,201.7 -203.3,201.1 C-200.4,200.8 -197.4,200.5 -194.5,200 C-201.1,202.7 -207.9,205.1 -215,205.6 C-224.4,206.4 -233.9,203.1 -241,196.9 C-242.7,195.4 -244.4,193.7 -245.7,191.8 L-245.7,194.6 C-240.4,201 -232.6,205.3 -224.4,206.8 C-223.9,206.9 -223.5,207 -223,207 C-222.9,207.1 -222.8,207.1 -222.6,207.1 C-217.9,207.3 -213.7,210.2 -209.5,212.2 C-207.2,213.3 -204.7,214 -202.2,214.5 C-205.6,215.7 -209.1,216.8 -212.7,217.5 C-217.7,218.5 -222.7,218.5 -227.6,217 C-233.5,215.3 -238.8,211.9 -243.4,207.8 L-243.4,207.8 C-243.5,207.7 -243.6,207.6 -243.7,207.6 C-244.3,207 -245,206.4 -245.6,205.8 L-245.6,208.2 C-245.3,208.5 -245,208.8 -244.7,209 C-241.6,213 -238.1,216.7 -234.5,220.3 C-231.2,223.6 -227.9,227.1 -223.8,229.5 C-223.6,229.6 -223.4,229.7 -223.2,229.9 C-224.3,229.8 -225.4,229.7 -226.5,229.5 C-228.8,229.1 -231.1,228.4 -233.2,227.4 C-237.2,225.6 -240.8,223.1 -244,220.2 C-244.6,219.7 -245.1,219.1 -245.6,218.6 L-245.6,221 C-244,222.5 -242.4,223.9 -240.6,225.2 C-237.7,227.2 -234.6,228.9 -231.2,230.1 C-227.2,231.5 -223,231.7 -218.8,231.9 C-212.6,234.2 -205.7,234.6 -199.1,234 C-193.9,233.5 -188.9,232.4 -183.9,230.9 C-183.2,231 -182.6,231.1 -181.9,231.3 C-185.5,232.9 -188.7,235.3 -192,237.5 C-195.9,240.2 -200.1,242.4 -204.7,243.8 C-213.3,246.4 -222.5,246.5 -231,243.5 C-236.7,241.5 -241.7,238 -245.6,233.5 L-245.6,236.1 C-242.1,239.7 -237.9,242.5 -233.3,244.4 C-230.3,245.6 -227.2,246.5 -224.1,247 C-219,248 -214.2,250.1 -209.3,251.9 C-204.3,253.7 -199,254.6 -193.7,255.3 C-192.5,255.4 -191.2,255.6 -190,255.6 C-192.7,257 -195.2,258.8 -197.8,260.3 C-201.6,262.5 -205.7,263.3 -210,263.4 C-218.4,263.6 -226.8,261 -233.8,256.4 C-238.6,253.3 -243.1,249 -245.7,243.8 L-245.7,247.2 C-245.4,247.6 -245.1,248 -244.8,248.4 C-245.1,248.3 -245.4,248.1 -245.7,248 L-245.7,249.9 C-244.1,250.6 -242.7,251.6 -241.5,252.9 L-241.4,253 C-240.8,253.7 -240.1,254.2 -239.3,254.6 C-239.2,254.6 -239.1,254.7 -239,254.7 C-234.9,258.2 -230.1,260.9 -225.1,262.6 C-225,262.9 -224.7,263.1 -224.3,263.2 C-222.2,263.3 -220.2,264.4 -218.4,265.4 C-216.5,266.5 -214.7,267.6 -212.7,268.5 C-208,270.7 -203,272.1 -197.9,272.8 C-193.6,273.4 -189.4,273.5 -185.2,273 C-187.3,274.2 -189.4,275.5 -191.5,276.7 C-191.9,276.9 -192.3,277.1 -192.6,277.3 C-192.9,277.3 -193.1,277.4 -193.2,277.6 C-196.9,279.5 -201,280.8 -205.2,281.1 C-214.2,281.9 -223.2,278.7 -230.3,273.3 C-235.1,269.6 -238.7,264.9 -241.9,259.9 C-243.1,258 -244.4,256.1 -245.7,254.2 L-245.7,257.2 C-245.4,257.6 -245.2,258 -244.9,258.4 C-242.2,262.5 -239.7,266.6 -236.4,270.2 C-230.4,276.6 -222.3,281.1 -213.7,282.5 C-213.4,282.5 -213.2,282.6 -212.9,282.6 C-213.7,282.9 -214.6,283.1 -215.4,283.4 C-217.7,284.1 -220,284.5 -222.5,284.5 C-227.1,284.4 -231.6,283 -235.5,280.7 C-239.4,278.4 -242.6,275.1 -244.7,271.1 C-245.1,270.4 -245.4,269.7 -245.7,268.9 L-245.7,274.4 C-244.9,275 -244.1,275.7 -243.4,276.4 C-243.3,276.5 -243.2,276.6 -243,276.6 C-238.6,281.8 -232.2,285.1 -225.4,286 C-222.6,286.4 -219.8,286.3 -217,285.7 C-213.8,285 -210.8,283.7 -207.5,283 C-203.4,282.9 -199.3,282.1 -195.5,280.6 C-194.4,280.1 -193.3,279.6 -192.2,279 C-185.4,278.8 -180.3,283.6 -174.5,286.4 C-177.6,287.1 -180.6,288.4 -183.4,289.7 L-183.4,289.7 C-183.6,289.7 -183.9,289.7 -184.1,289.9 C-184.2,290 -184.3,290.1 -184.3,290.1 C-188.2,292 -191.9,294 -195.9,295.6 C-200.6,297.5 -205.5,299 -210.5,299.5 C-214.9,299.9 -219.4,299.4 -223.7,298.4 C-231.6,296.6 -239.6,292.9 -245.4,287 C-245.5,286.9 -245.5,286.9 -245.6,286.8 L-245.6,289.2 C-245.3,289.5 -245,289.7 -244.7,290 C-238,295.8 -229.2,299.4 -220.5,300.7 C-216.3,301.4 -212.1,301.5 -207.9,300.8 C-203.2,300.1 -198.6,298.6 -194.3,296.7 C-193.6,296.4 -192.9,296.1 -192.2,295.8 C-193.5,296.7 -194.8,297.7 -196.1,298.6 C-198.3,300.2 -200.4,301.8 -202.7,303.2 C-204.8,304.5 -207,305.4 -209.3,306.2 C-210.7,306.7 -212.2,307 -213.7,307.3 C-215.4,307.5 -217.2,307.7 -218.9,308 C-225.4,308.4 -232.1,307.2 -237.9,304.4 C-240.9,302.9 -243.4,300.8 -245.6,298.3 L-245.6,300.8 C-244.5,301.9 -243.4,302.9 -242.1,303.9 C-243.3,303.9 -244.4,303.9 -245.6,304 L-245.6,305.8 L-245.3,305.8 C-242.8,305.6 -240,305.6 -237.8,306.7 C-237.6,306.8 -237.5,306.8 -237.4,306.8 C-234.2,308.2 -230.6,309.1 -227.2,309.6 C-230.5,310.1 -233.7,310.5 -237,310.5 C-237.3,310.5 -237.5,310.6 -237.6,310.8 L-238.9,310.8 C-241.2,310.8 -243.4,311 -245.6,311.5 L-245.6,313.3 C-243.6,312.9 -241.5,312.6 -239.4,312.6 C-234.6,312.5 -229.9,313.7 -225.5,315.5 C-221.2,317.4 -216.9,319.9 -213.3,323 C-211.7,324.4 -210.3,325.9 -208.8,327.3 L-208.8,327.3 C-209.6,326.9 -210.4,326.6 -211.2,326.2 C-215.4,324.3 -219.8,322.9 -224.4,322.4 C-228,321.9 -231.6,322 -235.2,322.5 C-238.6,322.9 -242,323.6 -245.5,323.8 L-245.5,327 C-244.6,327.8 -243.8,328.5 -242.9,329.3 C-240,331.8 -237.1,334.4 -234.2,336.9 L-231.6,336.9 C-231.7,336.8 -231.8,336.8 -231.8,336.7 C-235.8,333.2 -239.7,329.7 -243.7,326.3 C-242.1,326.7 -240.5,327 -238.9,327.5 C-236.5,328.2 -234.2,329.3 -231.9,330.5 C-229.6,331.6 -227.4,332.9 -225.2,334.3 C-223.8,335.2 -222.6,336.1 -221.3,337 L-218.3,337 C-219.7,336 -221.1,335.1 -222.4,334.1 C-225.9,331.7 -229.6,329.6 -233.5,327.8 C-235.4,326.9 -237.4,326.1 -239.4,325.6 C-239.9,325.5 -240.4,325.4 -240.8,325.2 C-237.3,324.7 -233.8,324.1 -230.2,324 C-225.4,323.9 -220.6,324.7 -216.1,326.2 C-215.8,326.3 -215.5,326.4 -215.2,326.5 C-215.1,326.5 -215,326.6 -214.9,326.6 C-214.7,326.7 -214.5,326.7 -214.3,326.8 C-214.2,326.8 -214.1,326.9 -214,326.9 C-213.8,327 -213.7,327 -213.5,327.1 C-213.4,327.1 -213.3,327.2 -213.2,327.2 C-213,327.3 -212.9,327.3 -212.7,327.4 C-212.6,327.4 -212.5,327.5 -212.4,327.5 C-212.2,327.6 -212.1,327.6 -211.9,327.7 C-211.8,327.7 -211.7,327.8 -211.6,327.8 C-211.4,327.9 -211.2,328 -211.1,328 C-211,328 -210.9,328.1 -210.8,328.1 C-210.6,328.2 -210.4,328.3 -210.2,328.4 C-210.1,328.4 -210.1,328.5 -210,328.5 C-209.1,328.9 -208.2,329.3 -207.3,329.8 L-207.3,329.8 C-207.1,329.9 -206.8,330 -206.6,330.1 C-206.6,330.1 -206.5,330.1 -206.5,330.2 C-206.3,330.3 -206.1,330.4 -205.8,330.5 C-205.7,330.5 -205.7,330.6 -205.6,330.6 C-205.4,330.7 -205.2,330.8 -205,330.9 C-204.9,330.9 -204.9,331 -204.8,331 C-204.6,331.1 -204.4,331.2 -204.2,331.3 C-204.1,331.3 -204.1,331.3 -204,331.4 C-203.8,331.5 -203.6,331.6 -203.3,331.7 L-203.2,331.7 C-203.1,331.8 -203,331.8 -202.9,331.8 C-202.8,331.9 -202.6,331.9 -202.5,332 C-197.8,333.8 -192.8,335 -187.8,335.3 C-184.4,335.5 -181,335.3 -177.7,335 C-176.6,334.9 -175.5,334.8 -174.4,334.6 C-175.7,335.2 -177.1,335.9 -178.5,336.5 C-178.8,336.6 -179.1,336.8 -179.4,336.9 L-175.3,336.9 C-174.1,336.3 -172.9,335.8 -171.7,335.2 C-169.3,334 -167,332.7 -164.6,331.4 C-160.1,329 -155.6,327.1 -150.4,327 C-144.1,326.8 -137.2,328.5 -132.1,332.2 C-130.3,333.5 -128.8,335.1 -127.4,336.9 L-125.3,336.9 C-126.1,335.8 -127,334.7 -128,333.6 C-131.3,330.1 -135.5,327.9 -140.1,326.6 C-140.6,326.4 -141.2,326.3 -141.7,326.2 C-133.5,325.1 -124.9,325.9 -117.6,329.8 C-114,331.7 -111,334.2 -108.1,336.9 L-105.6,336.9 L-107.8,334.7 C-108.1,334.4 -108.4,334.2 -108.6,333.9 C-108.7,333.8 -108.8,333.7 -108.9,333.6 C-109.1,333.4 -109.3,333.3 -109.4,333.1 C-109.5,333 -109.7,332.9 -109.8,332.8 C-110,332.7 -110.1,332.5 -110.3,332.4 C-110.4,332.3 -110.6,332.2 -110.7,332 C-110.8,331.9 -111,331.8 -111.1,331.7 C-111.3,331.6 -111.4,331.4 -111.6,331.3 C-111.7,331.2 -111.9,331.1 -112,331 C-112.2,330.9 -112.4,330.7 -112.6,330.6 C-112.7,330.5 -112.8,330.4 -112.9,330.4 C-113.1,330.3 -113.3,330.1 -113.5,330 C-113.6,329.9 -113.7,329.9 -113.8,329.8 C-114,329.7 -114.3,329.5 -114.5,329.4 L-114.6,329.3 C-117,327.8 -119.5,326.6 -122.2,325.8 C-118.3,325.5 -114.5,324.7 -110.6,324.9 C-105,325.1 -99.5,326 -94,327.3 C-89.5,328.4 -85.3,330.2 -81.3,332.5 C-79,333.8 -76.8,335.3 -74.6,336.8 L-71.6,336.8 C-76.9,333.1 -82.2,329.5 -88.3,327.2 C-91.1,326.1 -94.1,325.4 -97.1,324.8 C-100.3,324.1 -103.6,323.7 -106.9,323.4 C-110.2,323.1 -113.3,323.1 -116.6,323.5 C-117.1,323.6 -117.5,323.6 -118,323.7 C-116.9,323.2 -115.7,322.7 -114.6,322.2 C-110.1,320.2 -105.2,318.9 -100.4,317.8 C-100.3,317.8 -100.2,317.8 -100.1,317.7 C-95.3,316.7 -90.4,316.4 -85.6,317.3 C-85.3,317.4 -85,317.4 -84.7,317.5 C-84.6,317.6 -84.4,317.6 -84.2,317.6 L-84.1,317.6 C-84,317.7 -83.8,317.8 -83.6,317.8 C-83.3,317.8 -82.9,317.9 -82.6,317.9 C-79.4,318.8 -76.3,320.3 -73.5,322 C-70.2,324 -67.2,326.4 -64.5,329 C-61.9,331.5 -59.4,334.2 -56.8,336.7 L-54.2,336.7 C-55.4,335.6 -56.6,334.5 -57.8,333.3 C-61.1,330.1 -64.1,326.8 -67.7,323.9 C-70,322.1 -72.3,320.5 -74.9,319.2 C-72.5,319.6 -70.1,319.9 -67.6,320.1 C-62,320.4 -56.4,319.5 -50.8,319.7 C-41.2,320.1 -32.6,324.3 -25,329.8 C-22.1,331.9 -19.3,334.2 -16.6,336.5 C-16.5,336.5 -16.5,336.6 -16.4,336.6 L-13.7,336.6 C-20.1,331.2 -26.6,325.7 -34.3,322.1 C-34.6,322 -34.9,321.8 -35.2,321.7 C-31.1,321.7 -26.9,321.6 -22.8,321.2 C-17.9,320.8 -13.2,320.3 -8.4,321.2 C-4,322 0.1,323.7 3.9,326 C8.1,328.7 11.7,332.2 15,335.9 C15.2,336.1 15.4,336.3 15.6,336.5 L17,336.5 C16.6,336 16.2,335.6 15.8,335.1 C10.9,329.5 5.3,324.5 -1.5,321.6 C5.2,320.8 11.5,316.8 18.3,316.2 C20.8,316 23.4,316.1 25.9,316.5 C26.7,316.8 27.6,317 28.5,317.1 C29.6,317.4 30.7,317.7 31.7,318.1 C36.3,319.8 40,322.9 43.4,326.3 C46.8,329.6 49.9,333.2 53.4,336.4 L56,336.4 C53.1,333.8 50.5,330.9 47.8,328.2 C44.4,324.7 40.8,321 36.6,318.5 C35.7,317.9 34.7,317.4 33.7,317 C35.7,316.8 37.6,316.5 39.6,316.2 C42.8,315.7 46.1,315.4 49.3,315.3 C52.8,315.2 56.1,315.7 59.4,316.7 L59.7,316.7 C63.8,318.8 68.4,319.8 73,320.2 C74.5,320.3 76.2,320.6 77.9,320.6 C80,322 81.4,324.2 82.4,326.6 L82.4,326.6 C82.4,326.7 82.5,326.8 82.5,326.9 L82.5,326.9 C82.5,327 82.6,327.1 82.6,327.2 L82.6,327.2 C82.6,327.3 82.7,327.4 82.7,327.5 C82.7,327.5 82.7,327.5 82.7,327.6 C82.7,327.7 82.8,327.8 82.8,327.9 C82.8,327.9 82.8,327.9 82.8,328 C82.8,328.1 82.9,328.2 82.9,328.3 L82.9,328.4 C82.9,328.5 83,328.6 83,328.6 L83,328.7 C83,328.8 83,328.8 83.1,328.9 C83.1,329 83.1,329 83.2,329.1 L83.2,329.2 C83.2,329.3 83.3,329.4 83.3,329.5 C83.3,329.5 83.3,329.5 83.3,329.6 C83.3,329.7 83.4,329.8 83.4,329.9 C83.9,331.7 84.3,333.6 84.7,335.4 C84.8,335.8 84.8,336.1 84.9,336.5 L86.7,336.5 C86.5,335.7 86.4,334.9 86.2,334.1 C85.3,329.5 84,324.1 80.5,320.6 C83.6,320.7 86.2,323.4 88.1,325.6 C90.6,328.5 92.9,331.6 95.2,334.7 C95.6,335.3 96.1,335.9 96.5,336.4 L98.6,336.4 C96.3,333.3 94,330.2 91.6,327.2 C89.7,324.7 87.3,321.7 84.4,320.1 C86.5,320.1 88.6,320.3 90.6,320.9 C94.2,321.9 97.1,324.2 99.9,326.6 L99.9,323.4 L99.3,323.4 C99.1,323.4 99,323.3 98.8,323.3 L98.5,323.3 C96.1,321.4 93.5,319.8 90.4,319 C90.2,318.9 89.9,318.9 89.7,318.8 L89.5,318.8 C89.3,318.8 89.2,318.7 89,318.7 L88.8,318.7 C88.6,318.7 88.5,318.6 88.3,318.6 L88.1,318.6 C87.9,318.6 87.8,318.6 87.6,318.5 L87.4,318.5 C87.2,318.5 87,318.5 86.9,318.4 L86.7,318.4 L86.1,318.4 L86,318.4 L85.3,318.4 L85.3,318.4 L84.6,318.4 C85.5,317.9 86.4,317.4 87.3,317 C88.5,316.5 89.8,316.1 91,315.7 C94,314.7 97,313.7 100.1,313.1 L100.1,311.3 C97.3,311.9 94.5,312.7 91.7,313.6 C89.4,314.4 87,315.2 84.8,316.3 C82.8,317.3 80.7,318.7 78.4,318.5 C78,318.5 77.8,318.7 77.6,318.9 L77.5,318.9 C75.8,318.9 74,318.6 72.3,318.5 C67.8,318.1 63.2,316.8 59.3,314.6 C52.6,310.9 47.6,304.8 40.8,301.1 C49.1,299.6 57,303 64.7,305.7 C68.8,307.2 73,308.4 77.3,308.8 C82.4,309.3 87.2,307.8 92.2,306.7 C94.8,306.1 97.4,305.9 100,305.7 L100,303.9 C98.7,304 97.5,304.1 96.2,304.3 C91.1,304.8 86.3,306.8 81.2,307.1 C72.3,307.7 64.1,303.3 55.8,300.7 C50.8,299.2 45.6,298.4 40.4,299.4 C42.6,297.3 45.6,295.9 48.4,294.9 C51.9,293.6 55.6,292.7 59.4,292.1 C60.9,291.8 62.5,291.6 64.1,291.4 L65.1,291.4 C65.3,291.4 65.4,291.3 65.5,291.3 C72.5,290.4 79.7,290.4 86.2,293 C88.9,294.1 91.4,295.8 93.8,297.4 C95.8,298.8 97.9,300.1 100,301.4 L100,299 C99.8,298.8 99.6,298.5 99.4,298.3 C98.2,296.9 97.2,295.5 96.1,294.1 C94.9,292.6 93.7,291.2 92.6,289.7 C89,284.7 87.5,278.5 85.3,272.8 L85.4,272.7 C91,277.7 94.5,284.7 100,289.9 L100,287.5 C94.8,282.1 91.3,275.2 85.4,270.5 C90.5,270.2 95.8,271.9 100,274.9 L100,269.4 C98.6,266.1 97.7,262.6 96.8,259.1 C96.1,256.3 95.6,252.8 94.1,250.2 C95.1,251.1 95.9,252.1 96.7,253.1 C97.9,254.6 99,256.2 100.1,257.8 L100.1,254.8 C99.6,254.1 99.1,253.3 98.5,252.6 C97.6,251.4 96.5,250 95.4,249 C97,249.2 98.6,249.7 100.1,250.4 L100.1,248.5 C98,247.6 95.7,247.1 93.3,247.2 C93.1,247.2 92.9,247.3 92.8,247.4 C92.7,247.4 92.6,247.3 92.5,247.3 C92.1,247.1 91.8,247.3 91.6,247.6 C91.2,247.5 90.9,247.7 90.7,248 C88.7,247.5 86.8,246.9 84.9,246.2 C82.9,245.4 81.1,244.2 79.4,243 C75.9,240.4 73,237 70.4,233.5 C67.6,229.8 65,226.1 62.9,221.9 C61.8,219.7 60.8,217.4 59.3,215.4 C59.8,215.7 60.3,216 60.7,216.3 C65.1,219 69.5,221.7 74.2,223.9 C76.5,225 78.9,225.9 81.4,226.7 C83.3,227.3 85.2,227.6 87.1,228.2 C88.1,228.5 89.1,228.9 90,229.6 C90,229.7 90.1,229.9 90.3,230 C93.4,232.6 94.9,236.4 96.3,240.1 C97,242 97.8,243.8 98.7,245.6 C99.1,246.4 99.6,247.1 100.1,247.9 L100.1,244.5 C100,244.4 100,244.3 99.9,244.1 C97.7,239.6 96.5,234.3 93.2,230.5 C94.5,231.1 95.6,231.9 96.7,232.8 C96.8,232.9 96.8,232.9 96.9,232.9 C97.9,234.2 98.9,235.5 100.1,236.6 L100.1,234 C98.5,232.2 97.2,230.3 96,228.2 C92.4,221.7 91.1,213.5 85.6,208.3 C87.9,208.7 90.4,209.3 91.9,211 C92,211.1 92,211.1 92.1,211.2 C94.3,215 97,218.4 100.1,221.5 L100.1,219.1 C97.6,216.5 95.4,213.6 93.6,210.5 C91.2,206.5 89.6,202.1 87.9,197.8 C86,192.8 84.1,187.8 81.4,183.1 C83.4,185.2 85.1,187.5 86.7,189.9 C89.3,193.7 91.2,197.9 94,201.6 C95.8,204.1 97.9,206.4 100.1,208.6 L100.1,206.2 C98.6,204.6 97.1,202.9 95.8,201.2 C92.9,197.3 90.8,192.9 88.1,188.9 C86.2,186 84,183.2 81.5,180.8 C87.7,183.5 93.8,187 98,192.2 L98.1,192.3 C98.3,192.7 98.6,193.1 98.9,193.5 C99.3,194.1 99.7,194.6 100.2,195.1 L100.2,192.3 C99.9,191.9 99.7,191.5 99.4,191.1 C98.1,188.8 97.5,186 97.1,183.4 C96.4,178.9 96,174.3 93.7,170.4 L93.9,170.4 C94.2,170.4 94.4,170.4 94.6,170.3 C97,171.8 97.8,175.1 98.5,177.6 C99.1,179.8 99.5,182.1 100.2,184.2 L100.2,177.4 C100.1,177 100,176.5 99.9,176.1 C99.3,174 98.5,171.7 97,170.1 C97.6,170.3 98.3,170.5 98.9,170.9 L98.9,170.9 C99.3,171.3 99.8,171.7 100.2,172.1 L100.2,169.4 C97.7,166.7 95.9,163.4 94.7,160 C93.2,155.8 92.4,151.3 91.1,147 C92.2,148 93.2,149.2 94.2,150.4 C95.8,152.3 97.5,154 99.3,155.6 C99.6,155.9 99.9,156.1 100.2,156.4 L100.2,154.1 C98.8,152.8 97.4,151.5 96.1,150 C94.8,148.5 93.6,146.9 92.1,145.6 C93.9,145.7 95.6,145.9 97.3,146.7 C98.2,147.5 99.2,148.3 100.2,149 L100.2,146.9 C99.7,146.5 99.2,146.1 98.7,145.7 C98.6,145.6 98.5,145.5 98.4,145.4 L98.4,145.4 C95.3,142.6 92.9,139.1 90.8,135.5 C88.9,132.1 87.3,128.5 85.9,124.8 C84,119.9 81.8,115 79.8,110.1 C79.6,109.7 79.5,109.3 79.3,108.9 C80.1,109.9 80.9,110.9 81.7,111.9 C83.2,113.8 84.7,115.7 86,117.7 C88.5,121.5 90.1,125.8 92.8,129.5 C94.9,132.4 97.4,134.8 100.2,136.8 L100.2,134.7 C99.1,133.8 98,132.9 96.9,131.9 C95.2,130.2 93.8,128.3 92.5,126.2 C91,123.8 90,121.3 88.6,118.8 C87.2,116.3 85.5,114 83.7,111.8 C82.4,110.2 81.2,108.4 79.7,106.8 C83.9,107 87.9,108.7 91.4,111.1 C94.1,114.5 96.6,118.3 99.9,121.2 C100,121.3 100.1,121.4 100.2,121.5 L100.2,119.2 C98.9,118 97.8,116.6 96.7,115.3 C96.1,114.5 95.5,113.8 94.9,113 C96.6,114 98.3,114.9 100.1,115.6 L100.1,113.7 L96.5,111.9 C94.4,110.7 92.4,109.5 90.6,107.9 C88.8,106.3 87.4,104.2 86.2,102.1 C85,100 83.7,98.1 82.2,96.2 C79.9,93.4 77.4,90 74.2,88 C77.5,87.8 80.9,88.9 83.8,90.2 C87.4,91.8 90.9,94 93.4,97 C94.3,98.2 95.2,99.4 96.3,100.5 C97.5,101.7 98.7,102.7 100.1,103.5 L100.1,101.4 C97.5,99.5 95.3,97 93.6,94.1 C92,91.5 90.8,88.7 89.7,85.8 L89.7,85.3 C89.7,85.2 89.6,85 89.6,84.9 C91.4,87.4 93.5,89.6 96.1,91.3 C97.4,92.1 98.7,92.9 100.1,93.5 L100.1,91.6 C97,90 94.2,88 92,85.3 C90.7,83.7 89.6,81.9 88.6,80.1 C87.4,78 86.3,75.9 85.4,73.7 C83,67.8 82.1,61.8 82,55.8 C82,53.4 82.1,50.9 82,48.5 C82,48 81.9,47.5 81.9,47 C85.7,54 87.6,61.9 91.9,68.7 C93.9,71.9 96.6,74.6 99.7,76.8 C99.7,77 99.8,77.1 100,77.2 L100.1,77.3 L100.1,75 C98,73.4 96.1,71.6 94.5,69.4 C91.5,65.3 89.6,60.5 87.8,55.8 C86.1,51.5 84.4,47.3 81.9,43.4 L81.9,43.4 C85.6,44.8 88.3,48.2 90.7,51.3 C90.8,51.4 90.9,51.5 91,51.5 C92.7,54.9 94.8,58 97.8,60.6 C98.6,61.3 99.4,61.9 100.2,62.5 L100.2,60.3 C97.3,58.1 95,55.3 93.3,52 C92.2,49.9 91.2,47.7 90.4,45.4 C92.5,48.2 95.1,50.7 98.1,52.7 C98.8,53.2 99.5,53.6 100.3,54.1 L100.3,52.1 C95.2,49 91.1,44.5 88.5,39.1 C86.1,34.1 85.3,28.7 84.9,23.3 C84.7,20 84.6,16.7 84,13.4 C83.8,12.5 83.7,11.4 83.4,10.4 C83.9,11.1 84.3,11.8 84.7,12.5 C85.7,14.1 86.4,15.9 87.2,17.6 C89.4,22.2 91.2,27 93.6,31.6 C95.4,35 97.5,38.2 100.1,41 L100.1,38.4 C96.5,34 94,28.9 91.7,23.7 C90.3,20.4 88.9,17.2 87.3,14 C86.5,12.3 85.5,10.4 84.2,8.9 C85.9,9.6 87.5,10.5 89,11.5 C91,12.8 92.9,14.4 94.5,16.2 L94.6,16.3 C95.3,17.2 96,18.1 96.7,19 C97.7,20.2 98.8,21.2 100,22.2 L100,19.9 C99.3,19.3 98.7,18.6 98.1,18 C95.2,14.9 93.2,10.9 91.6,6.9 C89.5,1.8 87.9,-3.6 86.7,-9 L85,-9 C85.3,-7.5 85.7,-6 86.1,-4.5 C87.5,0.8 89.1,6.2 91.5,11.2 L91.5,11.2 Z M7.6,11 C7.7,11 7.7,11 7.7,10.9 C11.8,10.5 15.9,9.9 20,10.1 C24.7,10.3 29.1,11.7 33.4,13.5 C37.6,15.3 41.6,17.6 45.5,20 C47.3,21.1 49.1,22.2 50.8,23.5 C51.3,23.9 51.8,24.2 52.3,24.5 C49.7,24.3 47.2,24.4 44.6,24.7 C41.9,24.9 39.1,25.4 36.5,26.1 C34.1,26.7 31.9,27.9 29.6,28.6 C29.2,28.7 28.8,28.8 28.5,28.9 L26.8,28.9 C26.6,28.9 26.5,28.9 26.3,29 C24.6,28.6 23,27.8 21.5,27 C19.6,26.1 17.7,25.3 15.8,24.6 C11.9,23.2 7.8,22.5 3.7,22.3 C-0.3,22.1 -4.3,22.4 -8.3,22.9 C-9.9,23.1 -11.4,23.3 -13,23.7 C-12.4,23.2 -11.7,22.8 -11.1,22.3 C-5.2,18 0.8,13.6 7.6,11 L7.6,11 Z M78.7,42.7 C80.9,45.9 80.4,50.5 80.3,54.2 C80.3,58.4 80.6,62.6 81.5,66.7 C81.2,66.2 80.9,65.8 80.5,65.4 C77.7,61.8 74,59.2 70.8,56.1 C67.8,53.1 65.4,49.4 62.8,46 C60.2,42.5 57.5,39.1 54.3,36.2 C50.8,33 46.7,30.8 42,29.8 C39.3,29.2 36.6,29.1 33.9,29.1 C34,29 34.2,29 34.3,28.9 C36.8,27.9 39.3,27.4 41.9,27 C46.9,26.2 52.3,26 57.3,27.2 C61.8,28.3 66,30.4 69.8,33.1 C72.8,35.2 75.4,37.7 77.5,40.7 C77.5,40.8 77.6,41 77.7,41.1 C77.8,41.2 77.9,41.3 78,41.4 C78.2,41.7 78.3,41.9 78.5,42.2 C78.5,42.2 78.5,42.4 78.7,42.7 L78.7,42.7 Z M13.6,178.1 C13.6,178.6 13.7,179.1 13.8,179.6 C13,179.3 12.1,179.2 11.3,179.1 C9.5,178.9 7.7,179.1 6,179.3 C1.8,179.8 -2.3,181.1 -6.2,182.5 C-11.3,184.3 -16.3,186.3 -21.6,187.1 C-21.9,187.2 -22.3,187.2 -22.6,187.2 L-23,187.2 L-23.2,187.2 C-28,187.8 -32.9,187.5 -37.6,186.8 C-39.2,186.6 -40.8,186.3 -42.4,185.9 C-42.5,185.9 -42.6,185.8 -42.7,185.8 C-47.4,184.6 -51.3,181.6 -55.3,179 C-59.1,176.4 -63.2,174.3 -67.5,172.7 C-60,171.8 -53,167.4 -46.6,163.8 C-37.8,163.2 -28.8,161.8 -20.7,158.2 C-20.7,158.2 -20.6,158.2 -20.6,158.1 C-17.9,159.4 -14.5,159.4 -11.6,159.2 C-8.4,159 -5.3,158.3 -2.2,157.7 C-2.1,157.9 -1.9,158 -1.6,157.9 C3.2,157.5 6.4,162.6 8.8,166 C10.6,168.6 12.2,171.2 13.2,174.3 C13.5,175.4 13.6,176.5 13.8,177.6 C13.6,177.8 13.6,177.9 13.6,178.1 L13.6,178.1 Z M-87,217.8 C-82.8,218.5 -78.7,219.4 -74.5,219.7 C-69.1,220.1 -63.8,219.2 -58.6,217.7 C-53.6,216.2 -48.8,214.2 -44.2,211.6 C-43.2,211.1 -42.2,210.5 -41.2,210 C-43.7,212.8 -46.1,215.8 -49.4,217.7 C-51.6,218.9 -54,219.8 -56.3,220.8 C-58.6,221.8 -60.9,223 -63.3,224 C-65.5,224.9 -67.8,225.7 -70.1,226.4 C-71.7,226.9 -73.2,227.2 -74.8,227.6 C-75.3,227.7 -75.9,227.8 -76.4,228 C-76.8,228.1 -77.2,228.2 -77.5,228.3 C-80,228.9 -82.4,229.7 -84.7,230.7 C-87.1,231.8 -89.3,233.3 -91.4,234.9 C-96,238.1 -100.4,241.5 -105.2,244.5 C-109.1,245.3 -113,246.4 -116.9,247.6 C-113.5,245.3 -110.5,242.5 -107.9,239.4 C-102.3,233 -98.6,224.9 -92,219.5 C-90.3,218.8 -88.6,218.3 -87,217.8 L-87,217.8 Z M-96.1,212.7 C-94.3,211.9 -92.4,211.1 -90.6,210.3 C-86.2,208.5 -81.8,206.6 -77.2,205.6 C-77,205.6 -76.9,205.5 -76.8,205.4 C-72.4,207.2 -67.7,208.6 -63,209.3 C-57.8,210.1 -52.6,210 -47.4,209.3 C-45.5,209 -43.6,208.7 -41.8,208.2 C-42.6,208.6 -43.3,209 -44.1,209.4 C-46.3,210.6 -48.4,211.9 -50.7,212.8 C-53.2,213.8 -55.7,214.7 -58.2,215.6 C-63.3,217.2 -68.5,218.2 -73.9,217.9 C-78.3,217.7 -82.6,216.8 -86.9,216 C-87,216 -87.1,215.9 -87.2,215.9 C-87.9,215.8 -88.6,215.7 -89.3,215.5 L-89.3,215.5 C-91.4,214.2 -93.7,213.2 -96.1,212.7 L-96.1,212.7 Z M-33.7,220.1 C-28.9,222 -24.8,225.1 -20.4,227.8 C-18.2,229.1 -16,230.2 -13.7,231.2 C-11.2,232.3 -8.7,233.4 -6.2,234.3 C-2.8,235.6 0.6,236.5 4.2,237 C1.2,237.5 -1.7,238.3 -4.7,238.7 C-7.4,239.1 -10.2,239.1 -13,239.1 C-15.7,239 -18.4,238.9 -21,238.5 C-25.4,237.8 -29.5,235.8 -33.4,233.8 C-37.4,231.7 -41.4,229.5 -45.7,228 C-49.4,226.7 -53,226.3 -56.9,226.5 C-59.9,226.6 -63,227 -66,227 C-64.9,226.6 -63.8,226.2 -62.7,225.7 C-60.4,224.7 -58.2,223.6 -55.9,222.6 C-53.6,221.5 -51.2,220.7 -49,219.5 C-48.2,219.1 -47.5,218.7 -46.9,218.2 C-42.4,217.8 -37.9,218.4 -33.7,220.1 L-33.7,220.1 Z M-105,246 C-104.9,246 -104.7,246 -104.5,245.9 C-99.9,245 -95.3,244.5 -90.6,244.6 C-85,244.8 -79.8,246.3 -74.6,248.4 C-69.4,250.6 -64.1,252.9 -59,255.3 C-53.8,257.7 -48.8,260.4 -43.4,262.2 C-42.7,262.4 -41.9,262.7 -41.1,262.9 L-42,262.9 C-46.7,263 -51.4,263.7 -56.1,264.4 C-60.7,265.1 -65.4,265.8 -70,266 C-72.3,266.1 -74.5,265.9 -76.7,265.3 C-78.9,264.7 -80.8,263.4 -82.9,262.6 C-83,262.6 -83.1,262.5 -83.3,262.6 C-84,262 -84.7,261.5 -85.4,260.9 C-88.9,258.2 -92.7,256 -96.7,254.2 C-104.2,250.9 -112.2,249.7 -120.2,250.2 C-115.3,248.6 -110.2,247 -105,246 L-105,246 Z M-77.6,266.9 C-75.5,267.6 -73.2,267.8 -71,267.8 C-66.3,267.8 -61.6,267.1 -57,266.4 C-52.1,265.7 -47.3,264.9 -42.4,264.7 C-37.5,264.6 -32.6,264.7 -27.7,264.7 L-27.5,264.7 L-27.3,264.7 C-19.6,264.7 -12.9,268.2 -6.4,272.2 C-3.4,274 -0.5,275.9 2.6,277.5 C4.1,278.2 5.6,278.8 7.3,279.2 C7.3,279.2 7.3,279.2 7.3,279.3 C3.4,279.8 -0.4,281.3 -4.1,282.4 C-8.9,283.8 -13.8,284.9 -18.7,285.2 C-24.1,285.6 -29.6,285 -34.9,284.5 C-40.4,284 -45.9,283.5 -51.5,283.8 C-51.7,283.4 -52.2,283.1 -52.7,283.4 C-54.2,284.3 -56.2,283.6 -57.6,283 C-59.1,282.3 -60.5,281.5 -61.8,280.5 C-62.7,279.6 -63.5,278.7 -64.4,277.8 C-65.7,276.5 -67,275.6 -68.5,274.6 C-70.6,273.3 -72.6,271.8 -74.5,270.3 C-76.1,269 -77.7,267.6 -79.2,266.2 C-78.8,266.4 -78.3,266.6 -77.6,266.9 L-77.6,266.9 Z M-28,262.3 C-28.1,262.2 -28.3,262.2 -28.5,262.3 C-33,263.2 -37.7,262.2 -42,260.9 C-46.6,259.5 -50.9,257.3 -55.2,255.3 C-60.3,252.9 -65.5,250.6 -70.7,248.4 C-73.3,247.3 -75.8,246.2 -78.4,245.2 C-81,244.3 -83.7,243.7 -86.4,243.3 C-91.3,242.6 -96.1,242.8 -101,243.5 C-97.7,241.2 -94.5,238.9 -91.2,236.5 C-89,235 -86.9,233.4 -84.5,232.2 C-82.2,231.1 -79.7,230.4 -77.3,229.8 C-77.1,229.8 -76.9,229.8 -76.8,229.7 C-76.7,229.6 -76.5,229.6 -76.4,229.5 C-75.7,229.3 -74.9,229.2 -74.2,229 C-70.9,228.7 -67.3,229.8 -64.4,231 C-59.9,232.8 -55.7,235.6 -51.8,238.4 C-47.7,241.3 -43.8,244.4 -39.7,247.3 C-36.2,249.7 -32.4,251.6 -28.5,253.2 C-24.9,254.7 -20.9,255.9 -16.9,256.4 C-19.2,257.4 -21.4,258.6 -23.7,259.5 C-25.1,260.2 -26.8,260.9 -28,262.3 L-28,262.3 Z M-24.2,252.9 C-28.4,251.5 -32.5,249.7 -36.2,247.4 C-40.2,245 -43.9,241.9 -47.7,239.1 C-51.9,236 -56.2,233.2 -60.8,230.7 C-62.5,229.8 -64.2,229.1 -66.1,228.5 C-62.1,228.5 -58.1,228 -54.2,228 C-49.4,228.1 -45,229.8 -40.7,231.9 C-36.7,233.9 -32.8,236.1 -28.6,237.9 C-26.6,238.8 -24.5,239.4 -22.3,239.9 C-19.8,240.4 -17.2,240.5 -14.7,240.7 C-10.4,240.9 -6.1,240.7 -1.8,239.9 C2,239.2 5.7,238.2 9.6,238 C12.5,238.7 15.2,239.8 17.8,241.1 C20.3,242.4 23,243.9 25.2,245.7 C27.2,247.3 29.1,249.2 31.1,250.8 C27.5,249.6 23.4,250.2 19.8,251.1 C17.6,251.7 15.5,252.4 13.3,253.1 C10.9,253.9 8.5,254.3 5.9,254.3 C0.7,254.5 -4.5,253.5 -9.7,254.2 C-10.6,254.3 -11.5,254.5 -12.3,254.7 C-16.3,255 -20.3,254.1 -24.2,252.9 L-24.2,252.9 Z M9.5,235.6 C6.9,235.6 4.3,235.4 1.7,234.9 C-1,234.4 -3.5,233.5 -6.1,232.5 C-11.1,230.6 -16.1,228.5 -20.6,225.7 C-24.8,223 -28.8,220.2 -33.5,218.4 C-37.1,217 -40.9,216.3 -44.8,216.4 C-42.3,214.1 -40.2,211.3 -37.8,208.8 C-37.7,208.7 -37.6,208.6 -37.6,208.4 C-37.5,208.4 -37.4,208.3 -37.3,208.3 C-35,207.5 -32.6,206.7 -30.4,205.5 C-30.1,205.4 -29.9,205.2 -29.6,205.1 C-29.5,205 -29.4,205 -29.4,204.9 C-29.3,204.9 -29.2,204.8 -29.1,204.8 C-25.7,204.4 -22.2,206.1 -19.3,207.7 C-15.2,209.9 -11.3,212.4 -7.7,215.2 C-3.7,218.3 0.2,221.6 4.3,224.6 C8.2,227.5 12.3,230.3 16.8,232 C17,232.1 17.1,232.1 17.3,232.2 C14.6,232.7 11.8,233.8 9.5,235.6 L9.5,235.6 Z M-29.6,203 C-30.3,203.1 -30.9,203.3 -31.6,203.6 C-31.7,203.6 -31.8,203.7 -31.8,203.7 C-33.6,204.3 -35.3,204.8 -37.1,205.3 C-42.1,206.7 -47.3,207.8 -52.5,208.1 C-57.8,208.4 -63,207.8 -68,206.4 C-70.4,205.8 -72.8,205 -75.2,204.1 C-75.3,204 -75.4,203.9 -75.5,203.8 C-77.2,203 -78.8,201.8 -80.5,201 C-77.1,200.2 -73.8,199.1 -70.5,197.6 C-65.8,195.6 -61.3,193.1 -56.6,191.1 C-54.5,190.2 -52.4,189.5 -50.4,188.7 C-48.5,188 -46.4,187.3 -44.4,187.6 C-44.1,187.7 -43.8,187.8 -43.5,187.9 C-43.2,188 -42.9,187.9 -42.7,187.7 C-38.3,188.6 -33.8,189.2 -29.3,189.3 C-27.2,189.3 -25.2,189.2 -23.2,189 L-23,189 C-15.9,188.3 -12.8,195.6 -7.9,199.4 C-12.5,200 -17.1,200.3 -21.6,201 C-24.4,201.5 -27,202.2 -29.6,203 L-29.6,203 Z M-84.4,200.1 C-88.4,200.8 -92.4,201.4 -96.5,201.3 C-99.3,201.3 -102.2,200.9 -104.7,199.6 L-104.8,199.5 C-108.4,197 -112.2,194.5 -116.2,192.6 C-112.1,192.8 -107.9,192.6 -103.8,192.2 C-98.4,191.6 -93.1,190.5 -87.9,189.1 C-82.6,187.7 -77.4,186.1 -72,185 C-67.2,184 -62,183.3 -57.1,184.1 C-54.2,184.5 -51.4,185.4 -48.6,186.3 C-49.3,186.5 -50,186.7 -50.6,186.9 C-53,187.8 -55.3,188.7 -57.6,189.6 C-62.3,191.6 -66.8,194 -71.4,196 C-75.7,198 -79.9,199.2 -84.4,200.1 L-84.4,200.1 Z M-72.8,171.1 C-81.3,168.8 -90.1,168.4 -98.8,169.7 C-105,170.7 -111,172.4 -116.9,174.3 C-119.6,175.2 -122.2,176.4 -124.8,177.6 C-125.1,177.7 -125.4,177.9 -125.7,178 C-123.2,175.9 -121.2,173.2 -119.9,170.2 C-117.3,164.5 -116.3,157 -110.5,153.7 C-110.3,153.8 -110.1,153.8 -109.8,153.6 C-109.4,153.3 -108.9,153 -108.5,152.8 C-107.8,152.6 -107.1,152.4 -106.4,152.2 C-106,152.1 -105.5,152 -105.1,151.8 C-102.9,151.5 -100.5,151.6 -98.5,151.7 C-96.4,151.7 -94.4,151.7 -92.3,151.9 C-89.8,152.2 -87.4,152.7 -85.1,153.5 C-80.3,154.9 -75.7,157 -71,158.9 C-66.3,160.8 -61.7,162.4 -56.7,163.3 C-54.6,163.7 -52.4,164 -50.2,164 C-57.2,168 -64.9,172.2 -72.8,171.1 L-72.8,171.1 Z M-46.2,162.1 C-46.4,162 -46.5,162 -46.7,162 L-46.9,162 C-49.5,162.4 -52.1,162.3 -54.7,161.9 C-57.2,161.5 -59.8,161 -62.2,160.3 C-67,158.9 -71.5,156.8 -76.1,155 C-80.7,153.1 -85.4,151.4 -90.3,150.5 C-91.8,150.3 -93.2,150.2 -94.7,150.1 C-87.4,148.6 -80.5,145.5 -73.5,142.9 C-69.1,141.3 -64.6,139.9 -59.9,139.3 C-55,138.7 -49.8,138.8 -44.9,139.8 C-42.9,140.2 -41,140.8 -39.1,141.5 C-37.6,142.6 -35.9,143.6 -34.3,144.7 C-32.6,145.9 -31.1,147.3 -29.7,148.8 C-27.2,151.6 -24.9,154.6 -22.1,157 C-29.8,160.3 -38.1,161.5 -46.2,162.1 L-46.2,162.1 Z M-67.6,139.2 C-76.7,141.7 -85.1,146.2 -94.3,148.3 C-95.9,148.7 -97.5,148.9 -99.1,149.1 C-97.9,148.3 -96.8,147.5 -95.7,146.6 C-93.9,145.1 -92.7,143 -91.5,141 C-90.3,139 -89.1,136.9 -87.1,135.7 C-87,135.7 -87,135.6 -86.9,135.5 C-85.9,134.8 -85,134.1 -84.1,133.5 C-82.2,132.1 -80.2,130.8 -78,130.1 C-74.5,129 -70.8,128.4 -67.1,128.2 C-65.4,128.1 -63.5,128 -61.8,128.3 C-60.6,128.5 -59.3,128.9 -58.1,128.9 C-55.6,130.3 -52.3,130.2 -49.5,129.9 C-49.1,129.9 -48.6,129.8 -48.2,129.8 C-48.1,129.8 -48.1,129.9 -48,129.9 C-43.7,131.6 -41.7,135.9 -39.3,139.7 C-48.4,136.5 -58.5,136.6 -67.6,139.2 L-67.6,139.2 Z M-44.8,129.1 C-42.9,128.7 -41,128.3 -39.2,127.8 C-30.5,125.6 -23.4,119.6 -15.6,115.5 C-9.7,112.4 -3.2,111 3.4,110.9 C3.5,110.9 3.5,111 3.6,111 C8,112.5 12.7,113.2 17.4,112.9 C15.2,114.6 13.5,116.9 11.9,118.9 L11.9,118.9 L11.9,118.9 C7.5,121.7 3.6,125.3 -0.8,128.1 C-4.9,130.6 -9.3,132.6 -13.9,133.9 C-22.8,136.4 -32.4,135.9 -40.7,131.6 C-42.1,130.9 -43.5,130.1 -44.8,129.1 L-44.8,129.1 Z M-10.8,111.6 C-15,113.1 -18.8,115.3 -22.6,117.7 C-26.4,120 -30.1,122.4 -34.2,124.3 C-37.7,125.9 -41.5,126.7 -45.2,127.5 C-47.5,128 -49.9,128.3 -52.2,128.3 C-53.6,128.3 -55.1,128.2 -56.4,127.7 C-56.4,127.6 -56.4,127.6 -56.5,127.5 C-56.6,127.3 -56.7,127.2 -56.9,127.1 C-58.1,126 -59.6,125.4 -61,124.7 C-62.8,123.9 -64.7,123.3 -66.6,122.6 C-69.3,121.7 -72,120.7 -74.8,120.1 C-73.8,119.8 -72.8,119.5 -71.9,119.1 C-69.7,118.2 -67.5,117 -65.3,116 C-61.1,113.9 -56.9,111.6 -53.5,108.2 C-50.4,105 -47,102 -43.3,99.6 C-43.1,99.9 -42.7,100 -42.3,99.7 C-38.3,97.3 -33.5,97.1 -29,97.5 C-25.1,97.8 -21.4,98.8 -17.6,99.5 C-14.3,100.5 -11.4,102.7 -8.6,104.7 C-5.9,106.6 -3.2,108.2 -0.2,109.6 C-3.9,109.7 -7.4,110.4 -10.8,111.6 L-10.8,111.6 Z M-102.3,90.9 C-101,90.6 -99.5,90.5 -98.2,90.7 C-98,90.7 -97.9,90.7 -97.8,90.6 C-91.9,91.2 -85.9,90.5 -80.2,88.4 C-76.4,87 -72.9,85 -69.6,82.7 C-69.6,82.7 -69.6,82.8 -69.7,82.8 C-70.1,83.3 -70.5,83.9 -70.7,84.5 C-70.8,84.7 -70.8,84.8 -70.7,84.9 C-71.7,86.7 -72.8,88.5 -74.1,90.2 C-75.7,92.4 -77.3,94.5 -79.1,96.6 C-80.5,98.3 -82.1,99.6 -83.8,100.9 C-85.5,102.2 -87.2,103.4 -88.8,104.8 C-90.5,106.3 -91.8,108.1 -92.7,110.2 C-93.7,112.5 -94.3,115 -95,117.4 C-95.7,119.9 -96.7,121.9 -98.3,124 C-99,124.9 -99.7,125.9 -100.4,126.8 C-100.5,126.9 -100.5,127.1 -100.6,127.2 C-102,128.5 -103.2,130.1 -104.6,131.5 C-107.8,134.9 -112.4,136.6 -116.9,137.4 C-120.6,138.1 -124.4,138 -128.1,137.8 C-125.1,136.1 -122.7,133.6 -120.8,130.8 C-118.7,127.6 -117.3,124.1 -116,120.6 C-114.3,116.1 -112.7,111.7 -111,107.2 C-108.9,101.6 -106.5,96.1 -103.2,91.2 L-102.3,90.9 L-102.3,90.9 Z M-106.8,86.9 C-107.1,86.8 -107.3,86.9 -107.5,87 C-109.5,86.3 -111.6,86 -113.7,85.9 C-115,85.8 -116.4,85.9 -117.8,86 C-112.5,82.1 -107.5,77.7 -102.7,73.2 C-99.8,70.5 -96.7,67.8 -93.3,65.8 C-89.4,63.5 -84.9,62.1 -80.4,62.1 C-72,64.7 -62.8,64.4 -54.3,62.4 C-52.7,62 -51.1,61.5 -49.5,60.9 C-50.8,62.1 -52,63.4 -53.1,64.8 C-56.5,68.7 -60.1,72.4 -63.9,75.8 C-64.6,76.4 -65.3,77 -66,77.6 C-66.2,77.6 -66.4,77.7 -66.6,77.9 C-66.8,78.1 -67,78.4 -67.2,78.7 C-69.9,80.9 -72.8,83 -76,84.7 C-80,86.8 -84.5,88.3 -89,88.9 C-95,89.7 -101.1,88.8 -106.8,86.9 L-106.8,86.9 Z M-94.7,121.9 C-93.5,119.7 -93,117.1 -92.3,114.8 C-91.6,112.4 -90.7,110 -89.2,108.1 C-87.9,106.4 -86.2,105.1 -84.4,103.8 C-82.7,102.6 -81,101.3 -79.4,99.9 C-77.6,98.3 -76.2,96.2 -74.7,94.3 C-73.1,92.2 -71.5,90 -70.1,87.8 C-69.3,86.5 -68.7,85.2 -68,83.8 C-67.4,83.2 -66.7,82.8 -66,82.4 C-64.5,81.6 -62.9,81.1 -61.3,80.7 C-58,79.9 -54.5,79.5 -51.1,79.4 C-40.1,78.9 -29.2,81.6 -18.3,82 C-15.4,82.1 -12.6,82 -9.7,81.5 C-7.4,81.1 -5.3,80.4 -3.2,79.5 C-5.8,81.9 -8.7,84.1 -11.7,85.9 C-16.2,88.6 -21.3,89.9 -26.3,91.3 C-31.2,92.6 -36.3,93.8 -40.8,96.1 C-45.1,98.3 -48.8,101.3 -52.2,104.6 C-54,106.4 -55.7,108.2 -57.8,109.8 C-59.8,111.3 -61.9,112.4 -64.1,113.6 C-66.3,114.8 -68.6,115.8 -70.9,116.9 C-73.3,118.1 -75.8,119 -78.5,119 C-78.9,119 -79.1,119.2 -79.2,119.4 C-84,119 -88.5,120.5 -92.8,122.5 C-93.8,123 -94.8,123.5 -95.8,124.1 C-95.6,123.4 -95.1,122.7 -94.7,121.9 L-94.7,121.9 Z M-17.2,97.7 C-18.2,97.4 -19.2,97.2 -20.3,97.1 L-20.5,97.1 C-22.4,96.7 -24.2,96.3 -26.1,96 C-29,95.6 -32.1,95.3 -35.1,95.6 C-32.8,94.8 -30.4,94.2 -28.1,93.5 C-22.7,92 -17.1,90.7 -12.1,88 C-9.2,86.4 -6.5,84.5 -4,82.3 C-3.8,82.4 -3.5,82.5 -3.2,82.2 C0.6,79.3 5.1,78 9.9,78.4 C12.3,78.6 14.6,79.3 16.8,80.3 C19.2,81.4 21.6,82.4 23.9,83.6 C26.2,84.8 28.4,86.1 30.4,87.7 C32.3,89.2 34.1,91 35.8,92.7 C37.7,94.6 39.8,96.4 42,97.9 C40.3,97.7 38.6,97.7 37.1,97.6 C35.2,97.5 33.2,97.3 31.4,96.8 C28.9,96.1 26.4,95.1 23.8,94.4 C18.8,92.9 13.6,91.9 8.4,92.6 C3.3,93.3 -1.2,96 -6.2,97.3 C-9.4,98.2 -12.7,98.3 -16,97.9 C-16.4,97.9 -16.8,97.8 -17.2,97.7 L-17.2,97.7 Z M-7.6,79.2 C-10.1,79.9 -12.7,80.2 -15.3,80.3 C-20.5,80.5 -25.8,79.8 -31,79.2 C-36.6,78.6 -42.2,77.7 -47.8,77.7 C-52.3,77.6 -57,78.1 -61.4,79.1 C-62.9,79.4 -64.7,79.9 -66.3,80.6 C-66.2,80.4 -66.1,80.2 -65.9,80 C-62.4,77.2 -59.2,74.1 -56.1,70.9 C-53.8,68.6 -51.8,66 -49.6,63.6 C-48.4,62.3 -47.1,61.1 -45.7,60.1 C-38.3,58.3 -31.1,62.1 -24.6,65.6 C-21,67.6 -17.4,69.5 -13.6,71 C-9.3,72.6 -4.9,73.1 -0.3,72.7 C2.4,72.5 4.9,71.9 7.5,71.1 C4.9,72.7 2.4,74.4 -0.2,75.9 C-2.7,77.3 -5.1,78.4 -7.6,79.2 L-7.6,79.2 Z M-5.5,71.1 C-13.8,70.6 -20.9,65.4 -28.2,61.8 C-32.5,59.7 -37.1,57.9 -41.8,57.9 C-41.4,57.7 -41,57.6 -40.6,57.4 C-36.2,55.6 -31.7,54 -27,52.9 C-23.3,52 -19.6,51.4 -15.8,51.3 C-13.8,51.3 -11.8,51.3 -9.9,51.5 C-8.8,51.6 -7.8,51.8 -6.7,51.9 C-5.8,52.1 -4.9,52.4 -4,52.4 C-3.7,52.4 -3.5,52.3 -3.4,52.1 L-3.4,52.1 C-3.3,52.2 -3.2,52.3 -3.1,52.3 C-0.7,54.7 1.7,57.2 4.3,59.4 C7.5,62.1 11.2,64.1 15.3,65 C16.2,65.2 17.2,65.3 18.1,65.4 C15.4,66.2 12.8,67.3 10.2,68.2 C5.2,70.2 0,71.4 -5.5,71.1 L-5.5,71.1 Z M-7.2,50.3 C-8.5,50.1 -9.8,49.9 -11.1,49.8 C-13.5,49.6 -16,49.6 -18.4,49.8 C-23.1,50.1 -27.6,51.2 -32.1,52.6 C-36.8,54.1 -41.3,55.9 -45.8,57.7 C-50.2,59.5 -54.6,60.9 -59.4,61.7 C-66.1,62.7 -73.3,62.5 -79.8,60.5 C-81.2,59.4 -82.8,58.7 -84.5,58 C-86.6,57.2 -88.7,56.5 -90.9,56 C-93,55.5 -95.1,55.2 -97.3,55.1 C-98,55.1 -98.7,55 -99.3,55 C-98.5,54.6 -97.7,54.3 -96.9,53.9 C-96.8,53.9 -96.7,53.8 -96.7,53.8 C-94.5,53 -92.3,52 -90.3,50.9 C-88.4,49.9 -86.6,48.9 -84.9,47.7 C-83.3,46.7 -81.6,45.9 -79.8,45.2 C-78.2,45.4 -76.6,45.7 -75,45.9 C-74.8,45.9 -74.6,45.9 -74.4,45.8 C-72.7,46.1 -70.9,46.1 -69.2,46.1 C-65.1,46 -61,45.2 -56.9,44.5 C-52,43.7 -47.3,42.6 -42.7,40.9 C-41.6,40.5 -40.5,40.1 -39.5,39.6 L-39.2,39.6 C-32.8,39.2 -26.2,40.4 -20.1,42.4 C-14.7,44.2 -9.3,46.7 -5.1,50.5 C-5.7,50.6 -6.5,50.4 -7.2,50.3 L-7.2,50.3 Z M-86.2,46.6 C-88.3,48 -90.5,49.2 -92.7,50.3 C-97.2,52.5 -102.1,54.1 -107.1,54.7 C-112.2,55.3 -117.2,54.6 -122.2,53.1 C-127.1,51.6 -131.8,49.4 -136.4,47.2 C-138.1,46.4 -139.9,45.6 -141.6,44.8 C-142.4,44.4 -143.2,44.1 -144.1,43.7 C-144.2,43.7 -144.3,43.6 -144.3,43.6 C-144.4,43.5 -144.5,43.4 -144.6,43.4 C-148.2,42.2 -151.6,40.7 -155.4,40.5 C-158.4,40.3 -161.3,40.8 -164.1,41.7 C-161.8,39.7 -159.6,37.7 -157.3,35.6 C-153.8,32.4 -150,29.5 -145.7,27.5 C-145.6,27.5 -145.4,27.4 -145.3,27.3 C-145,27.2 -144.9,26.9 -144.9,26.7 C-137,23.5 -128.4,21.6 -119.9,23.9 C-111.9,26 -105.3,31.5 -98.7,36.3 C-96,38.3 -93.3,40.2 -90.4,41.8 C-88.9,42.6 -87.4,43.4 -85.8,44.1 C-84.9,44.5 -83.9,44.7 -83,44.9 C-84.2,45.4 -85.2,46 -86.2,46.6 L-86.2,46.6 Z M-144.5,45.5 C-144.3,45.6 -144.1,45.7 -143.9,45.8 C-142.7,46.3 -141.5,46.9 -140.4,47.4 C-138.1,48.5 -135.8,49.6 -133.5,50.6 C-128.9,52.7 -124.2,54.6 -119.2,55.8 C-114.6,56.9 -109.9,56.9 -105.3,56.2 C-107.4,57.3 -109.6,58.5 -111.7,59.7 C-116,62.1 -120.9,63.5 -125.7,64.3 C-127,64.5 -128.3,64.7 -129.5,64.8 C-129.7,64.7 -129.9,64.6 -130.2,64.7 C-130.4,64.8 -130.5,64.8 -130.7,64.9 C-133.6,65.1 -136.5,65.1 -139.4,65.2 C-143.8,65.3 -148.2,65.4 -152.6,65.9 C-159.5,66.6 -166.3,68.2 -172.2,71.6 C-167.7,65.9 -163.9,59.8 -158.8,54.6 C-154.9,50.6 -150.2,47.4 -144.7,45.9 C-144.7,45.6 -144.6,45.6 -144.5,45.5 L-144.5,45.5 Z M-153.5,67.5 C-149.1,67 -144.7,66.8 -140.3,66.8 C-138.4,66.8 -136.6,66.7 -134.7,66.7 C-135.3,67.1 -135.9,67.4 -136.5,67.8 C-138.6,69.2 -140.8,70.4 -143,71.7 C-145.4,73 -147.8,74.3 -150.2,75.8 C-152.4,77.2 -154.6,78.8 -156.7,80.4 C-160.8,83.6 -164.8,87.1 -169.4,89.6 C-173.5,91.8 -178,93.2 -182.5,94.1 L-183.1,94.1 C-183.3,94.1 -183.5,94.2 -183.6,94.3 C-189,95.3 -194.5,94.9 -199.9,94 C-201.9,93.7 -203.8,93.2 -205.8,92.7 C-201.3,92 -197,90.6 -192.8,88.6 C-187.1,85.8 -181.9,82 -177.4,77.5 C-177.3,77.5 -177.2,77.4 -177.1,77.3 C-170.7,71.1 -162.1,68.5 -153.5,67.5 L-153.5,67.5 Z M-169.4,91.4 C-164.7,89.1 -160.8,85.7 -156.8,82.5 C-152.5,79.1 -147.9,76.2 -143.1,73.6 C-140.8,72.4 -138.6,71.1 -136.4,69.7 C-134.5,68.5 -132.5,67.2 -130.3,66.4 C-129.1,66.3 -127.9,66.2 -126.7,66 C-126.3,66 -126,65.9 -125.6,65.8 C-128.2,67.9 -130.4,70.6 -132.3,73.3 C-135.2,77.3 -137.8,81.6 -140.9,85.4 C-143.9,89.2 -147.4,92.7 -151.8,94.9 C-156,96.9 -160.7,97.4 -165.2,96.9 C-169.3,96.4 -173.2,95 -177.2,94.3 C-174.6,93.6 -171.9,92.6 -169.4,91.4 L-169.4,91.4 Z M-133.6,78.3 C-130.3,73.4 -127,68 -121.5,65.3 C-121.3,65.2 -121.2,65.1 -121.2,65 C-118.1,64.2 -115,63.2 -112.2,61.8 C-109.2,60.3 -106.3,58.7 -103.4,57.1 C-101.5,56.7 -99.6,56.8 -97.7,56.9 C-95.7,57 -93.7,57.3 -91.7,57.7 C-89.7,58.1 -87.7,58.7 -85.8,59.5 C-84.9,59.8 -83.9,60.2 -83,60.7 C-86.9,61.1 -90.8,62.5 -94.2,64.5 C-98,66.7 -101.4,69.7 -104.6,72.7 C-112,79.6 -119.7,86.2 -128.7,90.9 C-132.7,93 -137,94.6 -141.4,95.7 C-141.9,95.8 -142.4,95.9 -142.9,96 C-143.1,95.9 -143.3,95.9 -143.5,96 C-143.7,96.1 -143.9,96.1 -144,96.2 C-146.5,96.7 -149.1,96.9 -151.7,96.9 C-143.6,93.2 -138.3,85.3 -133.6,78.3 L-133.6,78.3 Z M-143.3,97.8 C-142.4,97.6 -141.4,97.4 -140.5,97.2 C-135.6,96 -130.8,94 -126.3,91.6 C-125.5,91.1 -124.6,90.7 -123.8,90.2 C-123.6,90.2 -123.4,90.1 -123.2,90 C-120.6,87.9 -116.8,87.6 -113.6,87.7 C-111,87.8 -108.1,88.3 -105.7,89.6 C-109.7,91 -113.6,92.6 -117.4,94.6 C-121.5,96.8 -125.3,99.4 -128.8,102.4 C-132.7,105.7 -137.1,108.6 -141.5,111.1 C-145.7,113.6 -150,115.8 -154.7,116.9 C-160.9,118.4 -167.5,118.3 -173.4,115.8 C-176.2,114.7 -178.6,112.7 -180.9,110.9 C-181.8,110.2 -182.8,109.5 -183.7,108.9 C-178.5,109.7 -173.2,109.6 -168,108.6 C-163.5,107.8 -158.9,106.4 -154.7,104.4 C-150.8,102.7 -147.4,99.5 -143.3,97.8 L-143.3,97.8 Z M-146.9,116.1 C-143.8,114.7 -140.8,112.9 -138,111.1 C-135,109.3 -132.2,107.3 -129.4,105.2 C-126.7,103.1 -124.2,100.9 -121.4,99 C-117.3,96.3 -113,94.2 -108.4,92.5 C-110.1,94.1 -111.6,96 -113,98 C-115.6,101.8 -117.6,105.9 -120,109.7 C-122.7,113.9 -125.8,117.9 -129.8,120.8 C-133.7,123.6 -138.2,125.4 -142.8,126.6 C-147.6,127.9 -152.3,128.3 -157.3,128.4 C-159.6,128.4 -161.8,128.4 -164.1,128.5 L-164.5,128.5 C-163.3,128.2 -162.1,127.8 -160.9,127.3 C-155.2,124.9 -151.1,120.5 -146.9,116.1 L-146.9,116.1 Z M-147.7,129.3 C-145.2,128.9 -142.7,128.4 -140.2,127.6 C-135.7,126.2 -131.4,124.2 -127.7,121.3 C-123.8,118.3 -120.8,114.2 -118.2,110 C-115.9,106.4 -114,102.6 -111.6,99 C-110,96.6 -108.2,94.2 -105.8,92.5 C-110.4,100 -112.9,108.4 -116,116.6 C-118.7,123.6 -121.1,131.3 -127.5,135.7 C-131.1,138.1 -136.1,140 -140.5,138.9 C-142.8,137.1 -145.3,135.5 -147.9,134.3 C-149.6,133.5 -151.5,132.7 -153.5,132.5 C-151.7,131.3 -149.9,130 -147.9,129.4 C-147.9,129.4 -147.8,129.3 -147.7,129.3 L-147.7,129.3 Z M-116.3,139.3 C-111.7,138.5 -107,136.6 -103.6,133.3 C-101.9,131.6 -100.4,129.7 -98.6,128.1 C-96.7,126.4 -94.4,125.2 -92.2,124 C-89.9,122.9 -87.5,122 -85,121.4 C-82.7,120.8 -80.3,120.9 -77.9,121.3 C-74.1,121.8 -70.5,123.2 -66.8,124.4 C-65.1,125 -63.5,125.6 -61.8,126.2 C-61.6,126.3 -61.3,126.4 -61.1,126.5 C-61.9,126.4 -62.6,126.3 -63.4,126.3 C-65.9,126.2 -68.5,126.4 -71,126.8 C-73.5,127.1 -76,127.7 -78.4,128.3 C-80.6,128.9 -82.6,130.2 -84.5,131.5 C-86.5,132.9 -88.5,134.4 -90.6,135.7 C-92.8,137 -95.1,138.2 -97.5,139.4 C-102.2,141.7 -106.9,143.4 -112.1,144.1 C-114.3,144.4 -116.6,144.5 -118.9,144.2 C-119.1,144.1 -119.2,144.1 -119.4,144.1 C-120.2,144 -121,143.8 -121.8,143.6 C-122.7,143.4 -123.6,143 -124.4,142.6 C-125.8,141.7 -127.3,140.7 -128.8,140 C-129.1,139.8 -129.3,139.6 -129.6,139.4 C-125.2,139.9 -120.7,140.1 -116.3,139.3 L-116.3,139.3 Z M-121.3,146.7 C-121.1,146.6 -120.9,146.5 -120.8,146.4 C-120.2,146.4 -119.6,146.3 -119.1,146 L-119.1,146 C-114.2,146.6 -108.9,145.7 -104.2,144.2 C-100,142.9 -96,140.9 -92.2,138.7 C-93.2,140.3 -94,141.9 -95.1,143.4 C-96.4,145.2 -98.3,146.5 -100.1,147.7 C-101.9,148.9 -103.9,149.7 -106,150.4 C-107.2,150.6 -108.5,150.9 -109.6,151.5 C-110.4,151.8 -111.2,152.1 -111.9,152.6 C-113.3,153.5 -114.5,154.6 -115.5,156 C-117.5,158.7 -118.6,162 -119.7,165.2 C-120.4,167.1 -121.1,169.1 -122,170.9 C-123.1,173 -124.6,175 -126.4,176.6 C-128.2,178.2 -130.4,179.4 -132.7,180.1 L-132.9,180.1 C-133.1,180.1 -133.3,180.2 -133.5,180.3 C-135.3,180.8 -137.2,180.9 -139.1,181.1 C-137.5,179.4 -136.1,177.4 -134.9,175.4 C-132.1,170.5 -130.4,165 -128.9,159.6 C-128.1,156.9 -127.3,154.2 -126,151.8 C-125.1,149.5 -123.6,147.3 -121.3,146.7 L-121.3,146.7 Z M-127.7,151 C-129.2,154 -130.1,157.3 -131,160.6 C-132.9,167.2 -135.3,174 -139.9,179.3 C-144.5,184.6 -151.2,187.6 -157.7,190 C-164.1,192.4 -170.8,193.9 -177.6,194.8 C-173.2,192.5 -169.1,189.4 -165.7,185.8 C-161.3,181.2 -158.8,174.8 -153.4,171.2 C-153.2,171.1 -153.1,170.9 -153,170.7 C-152.3,170.2 -151.6,169.7 -151,169.2 C-147.7,166.6 -144.6,163.8 -141.6,160.8 C-138.6,157.8 -135.7,154.7 -132.4,152 C-130.3,150.3 -128,148.7 -125.5,147.7 C-126.5,148.6 -127.2,149.8 -127.7,151 L-127.7,151 Z M-133.6,181.8 C-133.2,181.7 -132.8,181.6 -132.4,181.5 C-127.9,181.3 -123.7,178.9 -119.6,177.1 C-117.3,176.1 -114.8,175.4 -112.4,174.7 C-109.9,173.9 -107.3,173.2 -104.8,172.6 C-99.7,171.4 -94.5,170.6 -89.2,170.6 C-84.4,170.6 -79.6,171.2 -74.9,172.3 C-74.8,172.4 -74.7,172.5 -74.5,172.5 C-74.1,172.6 -73.7,172.7 -73.3,172.7 C-67.9,174.2 -62.6,176.4 -57.9,179.4 C-55.9,180.7 -53.9,182.1 -51.8,183.5 C-53.7,183 -55.6,182.5 -57.5,182.3 C-62.8,181.6 -68.3,182.5 -73.5,183.6 C-78.9,184.7 -84.1,186.3 -89.4,187.7 C-94.7,189.1 -100.1,190.1 -105.5,190.6 C-109.7,191 -113.9,191 -118,190.8 C-119.3,190.7 -120.5,190.6 -121.8,190.4 C-123.2,190 -124.6,189.6 -126.1,189.4 C-126.6,189.2 -127.1,188.9 -127.6,188.6 C-127.9,188.4 -128.1,188.4 -128.4,188.4 C-132.2,186.5 -135.6,183.7 -139.6,182.7 C-137.6,182.3 -135.6,182.2 -133.6,181.8 L-133.6,181.8 Z M-126.2,191.2 L-126.2,191.2 C-124.8,191.7 -123.4,192 -122,192.1 C-116.8,193.8 -112,196.7 -107.4,199.8 C-112.2,200.5 -117.1,200.7 -121.8,201.5 C-127,202.4 -131.8,204.4 -136.5,206.8 C-141,209.2 -145.3,212 -149.9,214.1 C-154.5,216.1 -159.4,217.5 -164.4,218.3 C-170.5,219.3 -177.1,219.4 -183.1,218.1 C-186.2,217.4 -189.2,216.2 -192.3,215.3 C-182.8,214.6 -173.5,211.1 -165,207.1 C-158.8,204.2 -153.1,200.5 -147,197.3 C-143.9,195.7 -140.6,194.2 -137.2,193.3 C-133.6,192.4 -129.9,191.8 -126.2,191.2 L-126.2,191.2 Z M-143.4,212.8 C-137.8,209.5 -132.1,206.1 -125.8,204.2 C-119.1,202.2 -112.1,202.4 -105.2,201.2 C-102.2,202.7 -98.7,203 -95.4,202.9 C-91.7,202.9 -87.9,202.4 -84.2,201.7 L-84,201.7 C-81.9,201.7 -80.2,202.9 -78.4,204 C-83.2,205.1 -87.7,207.1 -92.2,209 C-96.7,210.9 -101.1,213.1 -105.6,215.1 C-110,217.1 -114.5,219 -119.2,220.5 C-123.7,221.9 -128.3,222.6 -133,222.9 C-139.1,223.3 -146.1,223.2 -151.8,220.6 C-151.8,220.4 -152,220.2 -152.2,220 C-153.5,219.4 -154.9,218.8 -156.3,218.3 C-151.9,217.1 -147.5,215.2 -143.4,212.8 L-143.4,212.8 Z M-153.6,221.8 C-150.3,223.5 -146.6,224.3 -142.9,224.6 C-138.7,225 -134.4,224.9 -130.1,224.5 C-120.3,223.6 -111.3,219.7 -102.5,215.6 C-101.3,215 -100.1,214.5 -98.9,213.9 C-96.5,214.2 -94.2,214.9 -92,216 C-100.7,218.7 -108.2,224 -115.9,228.7 C-119.9,231.2 -124.1,233.4 -128.5,235.1 C-132.9,236.8 -137.5,238 -142.2,238.6 C-155.1,240.3 -168.5,237.7 -179.7,231.2 C-179.7,230.9 -179.9,230.5 -180.3,230.4 C-180.6,230.3 -180.8,230.3 -181.1,230.2 C-180,229.8 -178.9,229.4 -177.8,229 C-170,226.1 -162.2,222.8 -153.9,221.9 C-153.8,221.9 -153.7,221.8 -153.6,221.8 L-153.6,221.8 Z M-130.6,237.8 C-130.1,237.6 -129.6,237.5 -129.1,237.3 C-122.3,234.8 -116.1,231 -110,227.1 C-104.8,223.8 -99.5,220.5 -93.7,218.4 C-96,220.4 -98,222.7 -99.9,225.1 C-102.6,228.7 -104.9,232.6 -107.7,236.1 C-112.4,242 -118.2,247.2 -125.3,249.7 C-125.4,249.7 -125.4,249.7 -125.5,249.8 C-126.4,250.1 -127.3,250.4 -128.2,250.6 C-133.2,251.8 -138.3,251.3 -143.3,250.6 C-147.6,250 -151.8,249.2 -156.1,248.9 C-147.7,245.5 -139.4,241.8 -131.1,238.2 C-130.8,238 -130.7,237.9 -130.6,237.8 L-130.6,237.8 Z M-127.1,252.7 L-127.1,252.7 C-118.3,251.1 -109.3,251.6 -100.8,254.5 C-96.7,255.9 -92.8,257.9 -89.2,260.4 C-85.3,263 -81.9,266.3 -78.4,269.4 C-76.3,271.3 -74.1,273 -71.8,274.6 C-69.9,275.9 -67.9,277 -66.3,278.6 C-65.5,279.3 -64.8,280.1 -64.1,280.9 C-64.1,281.1 -64,281.2 -63.8,281.3 C-63.7,281.3 -63.7,281.4 -63.6,281.4 C-63.7,281.4 -63.8,281.4 -63.9,281.3 C-66.5,280.7 -69.2,280.6 -71.8,280.5 C-77.3,280.3 -82.7,280.8 -88.2,280.1 C-93.6,279.4 -98.8,277.2 -103.8,275.2 C-108.8,273.2 -113.8,271 -118.9,269 C-127,265.7 -135.4,263.2 -144.2,263 C-146.7,262.9 -149.2,263.1 -151.8,263.3 C-150.1,262.7 -148.3,262.1 -146.6,261.6 C-139.8,259.1 -133.3,256.2 -127.1,252.7 L-127.1,252.7 Z M-137.9,265.1 C-127.3,266.6 -117.4,271.3 -107.6,275.4 C-103.6,277.1 -99.6,278.7 -95.5,280 C-91.3,281.4 -87,282 -82.6,282.1 C-78.3,282.2 -73.9,281.9 -69.6,282.2 C-67.5,282.3 -65.3,282.6 -63.2,283.2 C-62.3,283.4 -61.5,283.7 -60.6,284 C-60.4,284.1 -60.3,284.2 -60.1,284.4 C-61,284.5 -61.9,284.6 -62.7,284.8 C-65.9,285.4 -69.7,286.2 -72.1,288.6 C-73.1,288.6 -74.1,288.6 -75.1,288.7 C-81.6,289.2 -87.9,291 -94.3,292 C-101.1,293.1 -107.7,292 -114.4,291.1 L-114.5,291.1 C-117.4,290 -120.3,289.2 -123.3,288.6 C-123.4,288.6 -123.5,288.6 -123.6,288.5 C-123.7,288.4 -123.8,288.3 -124,288.3 C-126.3,287.5 -128.3,286.3 -130.2,284.9 C-132.1,283.4 -133.8,281.7 -135.7,280.1 C-139.6,277 -144.1,274.5 -148.6,272.3 C-152.9,270.1 -157.5,268.7 -162.4,268.4 C-163.4,268.3 -164.4,268.3 -165.4,268.4 C-165,268.1 -164.5,267.9 -164,267.6 C-162.8,267.2 -161.6,266.7 -160.5,266.3 C-158.2,265.7 -155.7,265.4 -153.4,265.2 C-148,264.6 -143,264.4 -137.9,265.1 L-137.9,265.1 Z M-61.5,286.3 C-57.9,285.7 -54.2,285.5 -50.6,285.3 C-39.6,284.8 -28.7,287.6 -17.8,286.7 C-13.1,286.3 -8.4,285.2 -3.9,283.9 C0.3,282.7 4.4,280.9 8.8,280.7 C13.8,282.1 18.2,285.2 23.1,286.8 C25.9,287.7 29,288.1 32,288.5 C33.1,288.6 34.2,288.8 35.3,288.9 C26.1,290.8 17.5,295 8.5,297.4 C6.3,298 4.1,298.5 1.9,298.8 C1.7,298.8 1.5,298.9 1.4,299.1 C-3.8,300 -8.8,301.8 -13.6,303.7 C-19.1,303.7 -24.5,303.3 -29.8,301.9 C-35,300.6 -39.9,298.5 -44.8,296.5 C-49.7,294.4 -54.5,292.3 -59.5,290.6 C-62.7,289.5 -65.9,288.9 -69.3,288.6 C-67.1,287.2 -64.1,286.7 -61.5,286.3 L-61.5,286.3 Z M2.1,275.3 C-1,273.7 -4,271.7 -7,269.9 C-13,266.3 -19.2,263.3 -26.3,263 C-25,261.9 -23.2,261.3 -21.6,260.6 C-19.3,259.7 -17.2,258.5 -14.9,257.5 C-12.4,256.5 -9.9,255.9 -7.3,255.7 C-4.7,255.5 -2,255.7 0.6,255.9 C3.2,256 5.8,256.1 8.4,255.9 C10.8,255.7 13,255 15.2,254.3 C19.4,252.9 24.1,251.3 28.6,251.9 C29.2,252 29.8,252.1 30.4,252.3 C30.5,252.5 30.7,252.7 30.9,252.8 C32.8,253.4 34.2,255 35.4,256.4 C36.7,257.9 37.9,259.5 39.3,260.9 C42.1,263.7 45.5,265.7 49.1,267.1 C47.7,267.2 46.2,267.5 44.7,267.7 C40.3,268.6 36.1,269.9 31.8,271.2 C29.7,271.8 27.6,272.5 25.5,273.1 C23.3,273.8 21,274.3 18.7,275 C16.8,275.6 14.9,276.2 13.1,277 C12.7,277.2 12.3,277.4 11.9,277.5 C11.7,277.3 11.4,277.2 11.1,277.3 C8.2,278.2 5,276.8 2.1,275.3 L2.1,275.3 Z M25.7,243.9 C23.4,242.1 20.7,240.7 18.1,239.4 C15.9,238.3 13.6,237.4 11.2,236.7 L11.1,236.6 C14.3,234.4 18.3,233.5 22.2,233.4 C26.6,233.3 30.8,234.3 34.6,236.5 C36.6,237.7 38.5,239 40.6,239.9 C43,240.9 45.4,241.6 47.9,242.2 C50.4,242.7 52.9,243.1 55.3,243.7 C57.4,244.2 59.4,245.2 61.2,246.3 C65.8,249.1 69.3,253.5 71.9,258.2 C70.4,257.3 68.9,256.5 67.3,255.9 C62.2,254 57,255.3 51.7,255.4 C46.9,255.4 42.4,253.6 37.9,252.2 C37.8,252 37.6,251.8 37.3,251.8 C32.5,251 29.4,246.7 25.7,243.9 L25.7,243.9 Z M55.6,241.9 C50.6,240.6 45.5,240.2 40.8,238 C38.7,237 36.9,235.6 34.9,234.5 C33,233.4 31,232.7 28.8,232.2 C27,231.8 25.1,231.6 23.2,231.5 C23.1,231.4 23,231.4 22.8,231.4 C17.9,231 13.5,228.7 9.5,226 C5.3,223.2 1.3,220 -2.7,216.8 C-6.6,213.7 -10.5,210.7 -14.8,208.2 C-17.9,206.4 -21.1,204.4 -24.6,203.5 L-24.4,203.5 C-21.7,202.8 -19,202.5 -16.3,202.2 C-12.7,201.8 -9,201.5 -5.4,200.9 C-0.1,203 5.4,204.5 11,204.8 C11.1,204.9 11.2,205 11.3,205.1 C13.5,206.4 15.7,207.5 17.9,208.8 C20.1,210.1 21.9,211.9 23.9,213.5 C25.8,215.1 27.7,216.6 29.8,217.8 C32,219.1 34.4,220.2 36.7,221.2 C41.4,223.3 46.2,225 50.7,227.5 C52.8,228.6 54.8,229.9 56.6,231.6 C58.1,233 59.4,234.7 60.5,236.4 C62.8,240.1 64.4,244.2 66.4,248.1 C63.3,245.2 59.7,243 55.6,241.9 L55.6,241.9 Z M-5.9,198.7 L-5.9,198.7 C-8.8,196.9 -10.8,194 -13.2,191.6 C-14.7,190.1 -16.3,188.9 -18.1,188.1 C-16.7,187.8 -15.3,187.4 -13.8,186.9 C-8.6,185.2 -3.6,183.1 1.6,181.8 C4.8,181 8.2,180.5 11.5,180.8 C12.3,180.9 13.4,181 14,181.6 C14.2,181.8 14.4,181.8 14.6,181.8 C15.7,184.1 17.4,186.1 19.4,187.7 C22.6,190.4 26.4,192.6 30.1,194.8 C32.6,196.3 35.1,197.6 37.7,198.8 C37.7,198.9 37.6,199 37.6,199 C30.9,199.7 24.5,201.9 17.7,202.6 C9.5,203.7 1.7,201.9 -5.9,198.7 L-5.9,198.7 Z M23.6,188.8 C20.8,187 17.8,184.6 16.3,181.5 C16.5,181.3 16.5,181 16.3,180.6 C15.7,179.6 15.6,178.2 15.4,177 C15.2,175.6 15,174.3 14.6,173 C13.6,169.9 11.8,167.3 10,164.7 C8.2,162.1 6,159 3.1,157.4 C12.4,157.9 21.9,157.1 31,159.6 C35.9,161 40,163.4 44,166.5 C44.9,167.2 45.9,168 46.8,168.8 C48.4,170.5 49.8,172.5 51.1,174.5 C53.3,178 55.1,181.8 57.2,185.4 C59.5,189.3 62.1,193.1 65.1,196.6 C67.6,199.6 70.4,202.1 73.6,204.2 C71,203.8 68.3,203.7 65.7,203.5 C60.3,203.1 54.9,202.4 49.6,201.1 C40.1,198.9 31.6,194.2 23.6,188.8 L23.6,188.8 Z M48,167.6 C46.6,166.2 45.1,164.9 43.4,163.9 C43.3,163.9 43.3,163.8 43.2,163.8 C40.8,162.1 38.4,160.6 35.6,159.4 C26.6,155.7 16.7,156 7.1,155.8 C9.5,155.2 11.8,154.5 14.1,153.8 C19.2,152.2 24.3,150.8 29.6,149.8 C35.4,148.8 41.3,148 47.1,146.7 L47.2,146.7 C54.5,148.9 57.8,156.7 61.3,162.8 C64.2,168 68,173 72.4,176.9 C73.1,177.5 73.9,178.2 74.8,178.8 C73.5,178.5 72.1,178.3 70.9,178.2 C69,178 67,177.9 65.1,177.5 C63,177.2 61.1,176.4 59.3,175.4 C55.1,173.4 51.5,170.5 48,167.6 L48,167.6 Z M47,144.9 C46.9,144.9 46.8,145 46.7,145 C41.8,146.1 36.9,146.8 31.9,147.6 C26.6,148.5 21.5,149.6 16.4,151.2 C11.3,152.8 6.3,154.5 1,155.4 C-2.6,156.1 -6.3,156.8 -10,157.3 C-13.4,157.7 -17.7,158.1 -20.7,156.1 C-23.7,153.6 -26.1,150.5 -28.7,147.6 C-30.1,146.1 -31.5,144.7 -33.1,143.5 C-33.6,143.2 -34,142.8 -34.5,142.5 C-34.5,142.2 -34.6,141.9 -34.9,141.6 C-35.8,141 -36.7,140.2 -37.4,139.3 C-37.5,139.2 -37.5,139.1 -37.6,139.1 C-38.9,137.1 -40.1,134.9 -41.5,133 C-35,136.3 -27.7,137.7 -20.3,136.9 C-19.3,136.8 -18.3,136.6 -17.3,136.5 C-17.2,136.6 -17,136.7 -16.8,136.7 C-14,136.8 -11.3,136.6 -8.5,136.3 C-5.9,136 -3.3,136 -0.7,135.5 C4.1,134.6 8.6,132.3 13.3,131.1 C23.3,128.6 33.8,131.4 42.8,135.8 C45.7,137.2 48.5,138.8 51.3,140.6 C52.6,141.4 54,142.3 55.3,143.2 C55.6,143.4 55.9,143.6 56.2,143.8 L56.1,143.8 C53,143.7 50,144.4 47,144.9 L47,144.9 Z M53.7,140 C51.6,138.6 49.4,137.3 47.2,136.1 C42.8,133.7 38.1,131.6 33.3,130.2 C28.5,128.8 23.5,128.1 18.5,128.5 C16,128.7 13.5,129.2 11.1,129.9 C8.8,130.6 6.5,131.5 4.2,132.3 C2.7,132.8 1.2,133.3 -0.3,133.6 C-2,134 -3.8,134.1 -5.6,134.2 C-7.3,134.3 -8.9,134.5 -10.6,134.7 C-9.4,134.3 -8.2,133.8 -7,133.3 C-2.4,131.3 1.8,128.6 5.8,125.6 C8,123.9 10.2,122.2 12.5,120.7 C12.7,120.7 12.8,120.7 13,120.6 C13.4,120.4 13.9,120.2 14.3,120.2 C19,120.1 23.6,120.2 28.2,121.1 C32.9,122 37.4,123.9 41.5,126.3 C48.7,130.7 53.7,137.5 59.5,143.5 C57.3,142.8 55.5,141.2 53.7,140 L53.7,140 Z M57.8,139.4 C56.2,137.7 54.8,135.9 53.2,134.2 C50.4,131.1 47.2,128.3 43.8,125.9 C40,123.3 35.7,121.5 31.4,120.2 C26,118.7 20.4,118.5 14.8,118.6 L14.6,118.6 L14.6,118.6 C16.6,116.1 18.9,113.4 22.1,112.7 C22.4,112.6 22.6,112.5 22.7,112.3 C25.9,111.6 29,110.5 32,109.3 C32.2,109.3 32.5,109.3 32.7,109.1 C32.7,109.1 32.7,109.1 32.8,109 C33,108.9 33.2,108.9 33.3,108.8 L33.5,108.8 C42.6,106.9 50.8,114 55.9,120.7 C59.5,125.5 62.1,131.1 65.9,135.7 C65.9,135.8 66,135.9 66.1,136.1 C66.7,136.9 67,137.9 67.4,138.8 C67.9,139.7 68.2,140.7 68.6,141.7 C69.3,143.5 69.9,145.4 70.4,147.3 C71,149.4 71.7,151.6 72.5,153.6 C69.5,150.7 66.4,147.9 63.4,145 C61.4,143.1 59.6,141.3 57.8,139.4 L57.8,139.4 Z M32.8,105.8 C32.6,105.9 32.5,106 32.4,106.1 C32.4,106.2 32.3,106.2 32.3,106.3 L32.3,106.3 C32.3,106.3 32.3,106.3 32.3,106.4 L32.3,106.5 C32.3,106.6 32.2,106.6 32.2,106.7 C32,106.8 31.9,107 31.9,107.2 C31.8,107.3 31.8,107.4 31.7,107.4 C27.4,109.1 23.1,110.6 18.5,111.1 C13.9,111.6 9.4,111 5,109.6 C4.9,109.4 4.6,109.2 4.3,109.2 L3.8,109.2 C3.7,109.2 3.7,109.2 3.6,109.1 C-0.9,107.5 -4.8,105.1 -8.7,102.4 C-10,101.5 -11.3,100.6 -12.6,99.8 C-8.1,99.8 -3.8,98.4 0.3,96.8 C2.8,95.8 5.2,94.8 7.9,94.4 C10.5,93.9 13.2,94 15.9,94.4 C19,94.8 22.1,95.7 25.1,96.6 C27.9,97.5 30.6,98.6 33.4,99 C35.8,99.3 38.3,99.4 40.7,99.6 C42.4,99.8 44.3,100 45.8,100.7 C44,100.7 42.2,100.9 40.5,101.3 C37.8,102 34.2,103.2 32.8,105.8 L32.8,105.8 Z M34.7,89.3 C32,86.7 29.1,84.5 25.8,82.7 C24.2,81.8 22.5,81 20.8,80.3 C19.1,79.5 17.3,78.7 15.6,78 C10.6,76.2 5.2,76.3 0.4,78.2 C0.7,77.9 1,77.6 1.3,77.3 C1.4,77.2 1.5,77.1 1.5,76.9 C5.8,74.4 9.8,71.6 14.1,69.1 C14.3,69 14.4,68.9 14.4,68.8 C18,67.5 21.7,66.1 25.6,66 C25.8,66 25.9,65.9 26.1,65.9 C27.6,65.9 29.2,65.8 30.7,65.8 C35.5,65.8 40.6,66 44.9,68.4 C44.9,68.6 45,68.7 45.1,68.9 C46,69.8 46.9,70.8 47.8,71.8 C48.4,72.8 49.1,73.7 49.8,74.6 C50.3,75.3 50.8,75.9 51.4,76.6 C51.9,77.4 52.5,78.2 53,79 C55.2,82.6 56.9,86.4 59.1,90 C63.1,96.5 69.1,101.9 75.8,105.7 C75.8,105.8 75.8,106 75.9,106.1 C76.3,106.6 76.7,107.1 77.1,107.7 C77.8,109.6 78.5,111.4 79.3,113.3 C79.2,113.1 79,112.9 78.9,112.8 C77.4,111 75.4,109.5 73.4,108.4 C69.2,106.1 64.4,105.4 59.8,104.1 C55.2,102.8 50.6,101.2 46.4,98.8 C41.8,96.2 38.3,92.7 34.7,89.3 L34.7,89.3 Z M32.5,64 C27.4,63.9 22.2,64.4 17.1,63.8 C8.1,62.7 2.5,55.2 -3.7,49.5 C-3.8,49.4 -3.9,49.4 -4,49.3 C-8.4,45.5 -13.8,42.9 -19.3,41.1 C-24.2,39.5 -29.4,38.4 -34.5,38.1 C-30.6,36.7 -26.8,35.2 -22.7,34.3 C-17.9,33.2 -12.7,33 -7.8,33.8 C-3.1,34.5 1.4,36.3 5.5,38.7 C9.6,41.1 14.1,42.7 18.6,44.3 C23.7,46.1 28.8,47.9 33.3,50.9 C33.3,51.1 33.4,51.2 33.6,51.4 C38.3,55.5 41.3,60.9 44.4,66.1 C40.6,64.4 36.5,64 32.5,64 L32.5,64 Z M34.8,50 C34.8,49.9 34.7,49.9 34.6,49.8 C26.8,44.1 17,42.7 8.5,38.4 C6.4,37.3 4.3,36 2.1,35 C0,34 -2.2,33.3 -4.4,32.7 C-9,31.5 -14,31.3 -18.7,31.8 C-21.8,32.1 -24.7,32.9 -27.6,33.8 C-24.5,31.9 -21.5,29.9 -18.6,27.8 C-18.4,27.8 -18.2,27.8 -18,27.7 C-15,25.6 -11.2,24.9 -7.7,24.5 C-3.9,24.1 0.1,23.8 4,24 C8.1,24.2 12.1,25.1 15.9,26.5 C17.9,27.2 19.8,28.2 21.8,29.1 C23.1,29.7 24.5,30.3 25.9,30.7 C26,31 26.3,31.2 26.7,31.2 C29.1,31.2 30.9,32.9 32.4,34.7 C33.9,36.6 35.1,38.9 36.4,40.9 C39.1,44.9 41.9,48.8 45.4,52.1 C41.9,51 38.3,50.4 34.8,50 L34.8,50 Z M0.5,12.5 C-6.1,16.1 -12,20.9 -18.1,25.3 C-26.2,31.2 -34.7,36.5 -44.2,39.8 C-50.3,41.9 -56.6,42.9 -62.9,43.9 C-68.3,44.7 -74.9,45.4 -79.7,42.1 C-79.9,42 -80.1,41.9 -80.3,42 C-83.3,39.8 -85.4,36.3 -87.8,33.5 C-89.9,31.1 -91.7,28.4 -93.6,25.8 C-89.6,28.1 -85.2,29.7 -80.8,30.7 C-76.9,31.6 -72.8,32 -68.8,32 C-64.3,32 -59.9,31.1 -55.6,29.9 C-47.5,27.7 -40,24.1 -32.5,20.4 C-26.1,17.3 -20,13.4 -12.7,12.8 C-8.3,13.6 -3.9,13.3 0.5,12.5 L0.5,12.5 Z M-90.6,20.3 C-87.4,20.1 -84.2,19.1 -81.2,17.9 C-79.7,17.3 -78.1,16.7 -76.6,16.1 C-75.8,15.8 -75,15.5 -74.2,15.3 C-73.8,15.2 -73.4,15 -72.9,14.8 C-67.5,14.2 -62.2,13.2 -57.1,11.6 C-51.8,10 -46.5,7.8 -42.1,4.3 C-40.1,4.3 -38,4.5 -36,4.7 L-35.9,4.7 C-35.7,4.8 -35.6,4.8 -35.5,4.7 C-32.7,5.1 -29.8,5.7 -27.1,6.4 C-22.9,7.5 -18.7,9.1 -14.9,11.1 C-14.9,11.2 -15,11.2 -15,11.3 C-18.6,11.9 -21.9,13.1 -25.2,14.7 C-29.5,16.8 -33.7,19 -38,21.1 C-42.9,23.4 -47.8,25.6 -53,27.2 C-57.5,28.7 -62.2,29.8 -67,30.1 C-73.1,30.4 -79.3,29.5 -85.1,27.6 C-90.3,25.9 -95.2,23.2 -99,19.4 C-96.2,20.2 -93.3,20.5 -90.6,20.3 L-90.6,20.3 Z M-100.3,21.1 C-95.9,24.8 -93.2,29.8 -89.5,34.1 C-88,35.9 -86.5,37.8 -85,39.6 C-83.9,41 -82.6,42.3 -81.2,43.4 C-83.2,43.2 -85.1,42.7 -87,41.8 C-88.9,40.9 -90.6,39.8 -92.4,38.7 C-95.9,36.5 -99.2,33.9 -102.5,31.5 C-109.1,26.6 -116.2,22.2 -124.6,21.4 C-132.1,20.7 -139.4,22.7 -146.2,25.5 C-147.6,24.9 -149.4,25 -150.8,25.2 C-151.5,25.3 -152.2,25.4 -152.9,25.5 C-149.4,22.2 -145.3,19.5 -141.1,17.3 C-136.7,15 -131.9,12.8 -126.9,11.8 C-122,10.8 -117.1,11.5 -112.6,13.5 C-108.4,15.5 -104,17.9 -100.3,21.1 L-100.3,21.1 Z M-133,-2.1 C-132.7,-2.2 -132.5,-2.4 -132.4,-2.7 C-128.9,-2.4 -125.3,-2 -122.2,-0.3 C-121.9,-0.1 -121.6,-0.1 -121.4,-0.3 C-117.9,1.7 -115.3,5.1 -112.9,8.3 C-111.7,9.9 -110.5,11.6 -109.2,13.2 C-113.6,11 -118,9.4 -123,9.5 C-128.9,9.6 -134.6,12.1 -139.9,14.6 C-142.4,15.8 -144.9,17.2 -147.3,18.7 C-146.8,18 -146.4,17.3 -146,16.5 C-144.7,14.1 -143.7,11.7 -142.6,9.2 C-140.5,5 -138,-0.5 -133,-2.1 L-133,-2.1 Z M-145.6,11.8 C-147,15 -148.6,17.9 -150.8,20.5 C-153.5,23.6 -156.5,26.4 -160,28.5 C-160.7,28.9 -161.5,29.4 -162.3,29.7 C-162.6,29.6 -162.9,29.7 -163.1,29.9 C-163.2,30 -163.3,30.1 -163.4,30.2 C-167.6,32.1 -172.2,33 -176.8,33.2 C-180.1,33.3 -183.4,33.3 -186.6,33 C-188.4,32.9 -190.2,32.6 -191.9,32.2 C-190.5,32.1 -189.1,32 -187.7,31.7 C-184.1,31 -180.6,29.5 -177.4,27.6 C-170.8,23.7 -165.3,18.3 -159.8,13 C-156.5,9.9 -153.1,6.8 -149.5,4.1 C-145.6,1.3 -141.1,-1.9 -136.2,-2.7 C-141,0.6 -143.3,6.9 -145.6,11.8 L-145.6,11.8 Z M-217.6,23.2 C-223.5,19.3 -228.5,14 -233,8.5 C-232.7,8.7 -232.4,8.9 -232.1,9.1 C-218,17.5 -199.6,18.1 -184.3,12.6 C-178.3,10.5 -172.7,7.3 -167.9,3.1 C-167.8,3 -167.7,2.9 -167.7,2.8 C-167.7,2.8 -167.6,2.8 -167.6,2.7 C-167.3,2.5 -167.1,2.2 -167.2,1.9 C-162.8,-1.1 -157.2,-2.7 -152,-3.6 C-148.7,-4.2 -145.4,-4.4 -142.1,-4.3 C-140.8,-4.2 -139.4,-4.1 -138.1,-3.9 C-141.4,-3 -144.5,-1.3 -147.3,0.6 C-150.6,2.8 -153.7,5.1 -156.6,7.7 C-162.4,12.8 -167.6,18.4 -173.8,23.1 C-179.9,27.7 -186.8,30.8 -194.6,30.7 C-202.7,30.6 -210.8,27.7 -217.6,23.2 L-217.6,23.2 Z M-210.9,42.8 C-216.3,41.7 -221.5,39.7 -225.8,36.3 C-228.8,33.9 -231.5,31.1 -234.5,28.5 C-233.5,28.8 -232.5,29.1 -231.5,29.3 C-228.1,30.1 -224.6,30.4 -221.2,30.3 C-217.3,30.3 -213.5,29.4 -209.7,29.4 C-209.6,29.4 -209.5,29.4 -209.4,29.3 C-206.4,30.4 -203.3,31.3 -200.1,31.8 C-199,32 -198,32.1 -196.9,32.2 C-193.1,34.4 -188.5,34.8 -184.3,35 C-180,35.2 -175.6,35.2 -171.4,34.4 C-170.1,34.2 -168.8,33.9 -167.5,33.5 C-169.5,34.9 -171.7,36.2 -173.9,37.4 C-177.6,39.4 -181.4,40.8 -185.5,41.8 C-193.6,44 -202.5,44.5 -210.9,42.8 L-210.9,42.8 Z M-202.8,57.7 C-205.5,57.6 -208,57.1 -210.5,56.4 C-211.5,56.1 -212.5,55.8 -213.5,55.5 C-213.6,55.4 -213.8,55.3 -214,55.3 C-215.3,54.9 -216.5,54.4 -217.7,53.8 C-218,53.6 -218.3,53.5 -218.6,53.3 C-216.9,53.3 -215.1,53.2 -213.4,53 C-211.4,52.7 -209.4,52.2 -207.4,51.5 C-205.4,50.8 -203.4,49.9 -201.4,49.2 C-197.3,47.8 -193.3,46.4 -189.4,44.5 C-189.3,44.4 -189.2,44.4 -189.1,44.3 C-185.2,43.6 -181.3,42.6 -177.6,41 C-172.2,38.7 -166.6,35.7 -162.3,31.5 C-160.3,30.5 -158.4,29.4 -156.5,28.1 C-156.4,28.1 -156.3,28.1 -156.1,28 C-154.5,27.3 -152.8,26.9 -151,26.7 C-150.2,26.6 -149.3,26.5 -148.4,26.5 L-148.4,26.8 C-151.8,28.6 -154.9,31.1 -157.8,33.6 C-161.3,36.7 -164.7,39.9 -168.3,42.9 L-168.3,42.9 C-168.5,43 -168.7,43.1 -168.8,43.3 C-172.6,46.4 -176.4,49.5 -180.7,51.9 C-185.2,54.4 -190.1,56.2 -195.2,57.1 C-197.8,57.7 -200.3,57.8 -202.8,57.7 L-202.8,57.7 Z M-213.4,75 C-216.9,74.7 -220.4,73.9 -223.6,72.3 C-225.7,71.3 -227.5,69.8 -229.4,68.4 C-228.3,68.5 -227.3,68.6 -226.2,68.7 C-220.4,69 -214.4,68.4 -208.9,66.5 C-206.1,65.6 -203.6,64.2 -201.2,62.5 C-199.2,61.1 -196.8,59.1 -194.3,59.2 C-193.9,59.2 -193.7,59 -193.6,58.8 C-189,57.9 -184.6,56.2 -180.5,54 C-176.2,51.7 -172.3,48.6 -168.5,45.5 C-168.2,45.2 -167.9,45 -167.5,44.7 C-163.7,43.4 -159.8,42.1 -155.7,42.3 C-153,42.4 -150.4,43.3 -147.8,44.2 C-151.9,45.4 -155.7,47.4 -159.2,49.8 C-163,52.5 -166.3,56 -169.9,59 C-176.9,64.9 -184.7,70 -193.4,72.8 C-200,74.9 -206.8,75.6 -213.4,75 L-213.4,75 Z M-211.4,91.2 C-211.6,91 -211.8,91 -212.2,91.1 C-212.3,91.1 -212.4,91.2 -212.5,91.2 C-217.6,91 -222.7,89.7 -227.2,87.1 C-229.8,85.6 -232.2,83.8 -234.7,82.1 C-230.1,83.1 -225.4,83.2 -220.8,82.5 C-218.3,82.1 -215.9,81.5 -213.5,80.4 C-210.7,79.2 -208,77.6 -205,76.8 L-204.9,76.8 C-196.1,76.1 -187.7,73 -180.2,68.4 C-174.5,64.9 -169.3,60.7 -164.3,56.2 C-161.9,54 -159.5,51.9 -156.8,50.1 C-164.9,56.9 -170.4,67.1 -177.6,74.9 C-180.5,78.1 -183.9,80.8 -187.5,83.2 C-191.4,85.8 -195.6,88 -200.1,89.4 C-203.7,90.6 -207.5,91.2 -211.4,91.2 L-211.4,91.2 Z M-205.3,95.1 C-205.6,94.8 -206,94.5 -206.4,94.2 C-204.1,94.9 -201.8,95.4 -199.4,95.7 C-194.1,96.5 -188.7,96.8 -183.4,95.9 C-183.1,95.8 -182.7,95.8 -182.4,95.7 C-177.3,95.6 -172.4,97.6 -167.5,98.5 C-163.5,99.2 -159.3,99.2 -155.3,98.2 C-152.9,98.6 -150.5,98.6 -148.1,98.5 C-150.7,100.2 -153.3,102 -156.1,103.4 C-158.4,104.5 -160.9,105.3 -163.4,106 C-165.8,106.7 -168.3,107.3 -170.8,107.6 C-175.8,108.3 -181,108.1 -186,107.1 C-188.5,106.6 -190.9,105.8 -193.3,104.9 C-195.1,104.2 -196.9,103.4 -198.4,102.1 C-200.8,99.8 -202.9,97.3 -205.3,95.1 L-205.3,95.1 Z M-212.7,113.7 C-215.8,110.8 -219.2,108.3 -223,106.6 C-222.1,106.5 -221.3,106.3 -220.4,106.1 C-218.2,105.7 -216.1,104.8 -214,104.1 C-211.4,103.3 -208.9,102.5 -206.2,102.1 C-204.2,101.8 -201.8,101.6 -200.1,102.7 C-199.3,103.4 -198.4,104.1 -197.5,104.6 C-195.1,105.9 -192.6,106.9 -190,107.7 C-189.9,107.9 -189.7,108.1 -189.5,108.2 C-185.1,109.7 -181.7,112.9 -178,115.5 C-174.1,118.1 -169.7,119.4 -165.1,119.7 C-160.4,120 -155.6,119.3 -151.1,117.8 C-151,117.8 -151,117.7 -150.9,117.7 C-153.4,120.2 -155.9,122.6 -159,124.4 C-162.5,126.4 -166.5,127.3 -170.5,127.8 C-170.7,127.7 -170.9,127.8 -171.1,127.9 C-171.6,128 -172.1,128 -172.6,128.1 C-177.4,128.5 -182.4,128.3 -187.1,127.6 C-191.9,126.8 -196.7,125.4 -201,123 C-205.2,120.6 -208.8,117.5 -212.5,114.4 C-212.5,114 -212.6,113.8 -212.7,113.7 L-212.7,113.7 Z M-192.1,133.5 C-192.2,133.3 -192.5,133.2 -192.8,133.2 L-192.8,133.2 L-192.8,133.2 C-194.6,132.4 -196.3,131.4 -197.9,130.3 C-201.8,127.5 -204.8,123.9 -207.8,120.2 C-206.2,121.4 -204.5,122.6 -202.8,123.7 C-198.7,126.3 -194,127.9 -189.2,128.8 C-184.4,129.7 -179.5,130 -174.6,129.8 C-173.2,129.8 -171.9,129.7 -170.5,129.5 C-168.3,130.2 -166,130.1 -163.8,130.1 C-161.2,130 -158.6,130.1 -156,130 C-154.9,130 -153.8,129.9 -152.7,129.8 C-153.3,130.2 -153.8,130.6 -154.4,130.9 C-155.3,131.5 -156.1,132.1 -157,132.6 L-157.2,132.6 C-157.4,132.7 -157.6,132.8 -157.7,132.9 C-158.5,133.4 -159.3,133.8 -160.2,134.1 C-164.2,135.8 -168.5,136.5 -172.9,136.7 C-176.3,136.8 -179.8,136.6 -183.3,136 C-183.5,135.7 -183.9,135.5 -184.3,135.8 C-187,135.4 -189.6,134.6 -192.1,133.5 L-192.1,133.5 Z M-207.3,156.3 C-210.3,156.2 -213.3,155.9 -216.2,155.3 C-219.1,154.7 -222,153.7 -224.8,152.8 C-222,152.4 -219.3,151.7 -216.7,150.9 C-211.9,149.4 -207.2,147.3 -202.7,144.9 C-198.4,142.7 -194.1,140.3 -189.5,138.9 C-188.3,138.5 -187.1,138.2 -185.8,138 C-185.3,137.9 -184.6,137.9 -184,137.7 C-179.6,138.6 -175,138.8 -170.7,138.4 C-166.7,138.1 -162.8,137.2 -159.1,135.6 C-158.2,135.2 -157.3,134.7 -156.4,134.2 C-153.7,133.6 -150.9,134.8 -148.5,135.9 C-146.7,136.8 -144.9,137.9 -143.3,139 C-152.6,139.3 -161.4,142.2 -169.9,146 C-174.4,148 -178.8,150.1 -183.3,152.1 C-188.2,154.3 -193.6,155.5 -198.8,155.9 C-201.7,156.4 -204.5,156.4 -207.3,156.3 L-207.3,156.3 Z M-194.4,160.9 C-197.4,160.1 -200.3,159.1 -203.3,158.1 L-202.1,158.1 C-196.9,157.9 -191.7,157.1 -186.7,155.4 C-181.9,153.8 -177.4,151.5 -172.9,149.4 C-163.1,144.9 -153,141 -142.1,140.9 C-141.8,140.9 -141.6,140.8 -141.5,140.7 C-141.2,140.9 -140.9,140.9 -140.6,140.9 C-138.4,141.3 -136.2,141.1 -134,140.5 C-133.9,140.6 -133.8,140.6 -133.6,140.6 C-132.3,140.7 -131.1,141.1 -130,141.6 C-128.6,142.6 -127.2,143.5 -125.7,144.2 C-125.5,144.3 -125.4,144.4 -125.2,144.5 C-129.5,144.9 -133.7,145.8 -137.7,147.4 C-142,149.1 -146.1,151.3 -150.2,153.5 C-154.7,156 -159.2,158.2 -164.1,159.7 C-168.1,160.9 -172.2,161.6 -176.3,162 C-176.5,161.9 -176.7,161.8 -177,161.9 C-177.1,161.9 -177.2,162 -177.4,162 C-177.9,162 -178.5,162.1 -179,162.1 C-184,162.4 -189.3,162.2 -194.4,160.9 L-194.4,160.9 Z M-210.2,172.5 C-204.7,172.3 -199.2,171.4 -193.8,170.4 C-190.8,169.8 -187.9,168.9 -185.1,167.6 C-182.3,166.3 -179.7,164.9 -176.9,163.8 C-167.9,163.1 -159.2,160.5 -151.3,156.2 C-147,153.8 -142.7,151.4 -138.2,149.5 C-134.7,148 -131,147 -127.2,146.5 C-129.6,147.6 -131.8,149.2 -133.8,150.8 C-137.4,153.7 -140.5,157.2 -143.8,160.4 C-147,163.6 -150.5,166.7 -154.2,169.4 C-158.1,172.2 -162.4,174.5 -166.9,176.4 C-171.3,178.3 -175.9,179.7 -180.7,180.3 C-180.9,180.2 -181.1,180.1 -181.4,180.2 C-181.6,180.3 -181.7,180.3 -181.9,180.4 C-185.9,180.8 -190,180.6 -194,179.7 C-196.9,179 -199.6,177.8 -202.2,176.5 C-202.3,176.3 -202.5,176.1 -202.8,176.1 L-203.1,176.1 C-204,175.7 -204.8,175.2 -205.7,174.8 C-207.1,173.9 -208.6,173.1 -210.2,172.5 L-210.2,172.5 Z M-208.3,190.2 C-217.1,191.3 -226.5,189.5 -233.6,184.1 C-236.3,182.1 -238.4,179.5 -240.3,176.8 C-240.7,176.2 -241.2,175.5 -241.6,174.9 C-240.3,175.6 -238.9,176.2 -237.5,176.7 C-233.3,178 -228.9,178.3 -224.6,178.3 C-217.6,178.2 -210.6,176.8 -203.6,177.7 C-199.6,179.7 -195.6,181.3 -191.1,182 C-189.5,182.2 -187.9,182.4 -186.3,182.4 C-193.4,185.6 -200.5,189.3 -208.3,190.2 L-208.3,190.2 Z M-197.7,198.9 C-203.1,199.5 -208.7,200.6 -214.2,200.1 C-212.5,199.6 -210.9,198.9 -209.4,198.1 C-207.1,196.9 -204.9,195.4 -202.9,193.9 C-200.8,192.3 -198.8,190.4 -196.4,189.2 C-196.1,189.1 -196,188.8 -196,188.6 C-191.1,186.6 -186.4,184.1 -181.5,182.1 C-174.8,181.4 -168.2,179.1 -162.2,176.1 C-161.3,175.7 -160.4,175.2 -159.6,174.7 C-160.7,176.1 -161.8,177.6 -162.8,179.1 C-164,180.9 -165.3,182.6 -166.7,184.2 C-168.2,185.9 -169.9,187.4 -171.6,188.8 C-179.1,194.8 -188.3,197.9 -197.7,198.9 L-197.7,198.9 Z M-205.8,212.4 C-209.4,211.4 -212.6,209.3 -216,207.7 C-205.5,207.1 -195.3,202.3 -185.7,198.3 C-185.6,198.2 -185.5,198.2 -185.4,198.1 C-184.5,197.8 -183.6,197.5 -182.7,197.1 C-172.4,196.1 -162.2,193.9 -152.7,189.7 C-149.1,188.1 -145.7,186.3 -142.6,183.9 L-142.4,183.9 C-137.4,184.1 -133.4,187.5 -129.1,189.8 C-133.7,190.5 -138.3,191.4 -142.6,193.2 C-147.3,195.2 -151.7,197.7 -156.1,200.2 C-165.2,205.4 -174.8,209.9 -185,212.3 C-189.4,213.3 -194,213.8 -198.6,213.5 C-198.8,213.4 -199,213.4 -199.3,213.4 L-199.3,213.4 C-201.4,213.4 -203.6,213.1 -205.8,212.4 L-205.8,212.4 Z M-182.6,228.8 C-183.3,229 -184,229.2 -184.6,229.5 C-184.8,229.5 -185,229.5 -185.1,229.7 C-192.7,232 -200.8,233.3 -208.7,232.8 C-211.9,232.6 -215,232 -218,230.9 C-218.1,230.7 -218.4,230.6 -218.6,230.6 L-218.9,230.6 C-221.9,229.5 -224.6,227.9 -227.1,225.9 C-230.1,223.4 -232.9,220.5 -235.6,217.7 C-236.7,216.6 -237.7,215.5 -238.7,214.4 C-236.2,216 -233.5,217.4 -230.6,218.5 C-225.4,220.4 -220,220.8 -214.5,219.9 C-209.4,219.1 -204.5,217.3 -199.6,215.7 C-195.1,215.9 -190.9,217.7 -186.7,219 C-181.9,220.5 -176.9,220.9 -171.9,220.8 C-167.8,220.7 -163.7,220.2 -159.8,219.3 C-159.7,219.4 -159.6,219.4 -159.4,219.5 C-158.2,219.7 -157,220.1 -155.9,220.5 C-165.3,221.9 -173.7,225.9 -182.6,228.8 L-182.6,228.8 Z M-194.8,253.8 C-199.9,253.2 -205,252.1 -209.9,250.4 C-212.2,249.6 -214.4,248.7 -216.7,247.9 C-213.8,247.8 -211,247.4 -208.2,246.8 C-203.5,245.8 -199,244 -194.9,241.6 C-190.9,239.3 -187.4,236.1 -183.3,234 C-182.4,233.5 -181.5,233.2 -180.5,232.8 C-168.3,239.9 -153.7,242.4 -139.8,240.1 C-147.5,243.4 -155.1,246.7 -162.9,249.7 C-168.1,251.7 -173.2,253.4 -178.8,254.1 C-184.1,254.6 -189.5,254.4 -194.8,253.8 L-194.8,253.8 Z M-206,269.9 C-209.4,268.9 -212.7,267.4 -215.8,265.6 C-216,265.5 -216.2,265.4 -216.4,265.2 C-212.5,265.7 -208.5,265.6 -204.6,264.9 C-201.2,264.3 -198.3,262.8 -195.4,260.9 C-192.5,259.1 -189.7,257.1 -186.4,256.1 C-186.3,256.1 -186.3,256.1 -186.2,256 C-183.5,256 -180.8,255.9 -178.2,255.5 C-172.7,254.8 -167.6,253.1 -162.5,251.2 C-161.6,250.9 -160.7,250.5 -159.8,250.2 L-159.6,250.2 C-149.9,250.2 -140.3,253.7 -130.5,252.5 C-133.4,254 -136.4,255.5 -139.4,256.8 C-144.2,258.9 -149.2,260.3 -154.1,262.1 C-156.4,262.9 -158.6,263.7 -160.9,264.6 C-162.1,264.9 -163.3,265.4 -164.5,265.9 C-167.4,267 -170.3,268 -173.2,268.9 C-174.3,269.1 -175.3,269.3 -176.4,269.5 C-177.4,269.8 -178.4,270.1 -179.4,270.6 C-180.6,270.9 -181.8,271.1 -183,271.3 C-190.7,272.8 -198.5,272.1 -206,269.9 L-206,269.9 Z M-181.3,281.2 C-184,279.7 -186.9,278.4 -189.9,277.9 C-186.2,275.8 -182.7,273.4 -178.6,272.3 C-178.4,272.3 -178.3,272.2 -178.2,272.1 C-176.2,271.6 -174.3,271.1 -172.4,270.5 C-169.9,270.2 -167.3,270.1 -164.9,270 C-160,269.8 -155.1,271 -150.6,273 C-148.3,274 -146.1,275.3 -143.9,276.5 C-141.7,277.7 -139.5,279.1 -137.5,280.6 C-135.5,282.1 -133.8,283.9 -131.9,285.4 C-131,286.2 -130,286.9 -129.1,287.5 C-134.5,286.9 -140,287 -145.4,287.6 C-146,287.5 -146.5,287.4 -147.1,287.3 C-147.4,287.3 -147.6,287.3 -147.8,287.4 C-148.3,287.3 -148.7,287.1 -149.2,287 C-155.4,285.5 -161.7,285.7 -168,285.8 C-168.2,285.7 -168.5,285.6 -168.8,285.8 L-170.4,285.8 C-170.6,285.8 -170.8,285.9 -171,286 C-171.5,285.9 -171.9,285.9 -172.4,285.9 L-172.4,285.9 L-172.5,285.9 C-175.6,284.9 -178.4,282.9 -181.3,281.2 L-181.3,281.2 Z M-141.1,292.3 C-133.3,296.6 -126.9,302.9 -119.9,308.3 C-117.5,310.1 -115,311.9 -112.4,313.4 C-111.3,314 -110.2,314.6 -109.1,315.1 C-111.7,314.8 -114.2,315 -116.8,315.2 C-121.9,315.6 -127.2,315.2 -132.2,314.1 C-134.4,313.6 -136.6,313 -138.8,312.2 C-138.9,312.1 -139.1,312 -139.3,311.9 C-140.9,311.5 -142,310.2 -143,309 C-144.1,307.7 -145.1,306.3 -146.3,305 C-148.9,302 -151.5,299 -154.3,296.3 C-157,293.7 -160,291.6 -163.2,289.6 C-164.3,288.9 -165.5,288.2 -166.7,287.6 C-163,287.6 -159.2,287.5 -155.5,287.9 C-153,288.1 -150.5,288.6 -148.1,289.2 C-145.5,290 -143.3,291.1 -141.1,292.3 L-141.1,292.3 Z M-193.2,299 C-190.1,296.8 -186.7,294.8 -183.9,292.2 C-183.7,292.1 -183.5,292 -183.3,291.9 C-179.7,290.2 -175.8,288.5 -171.8,288.2 C-171.7,288.2 -171.6,288.3 -171.4,288.3 C-171.1,288.4 -170.8,288.3 -170.6,288.1 L-170.6,288.1 L-170.2,288.1 C-167.7,288.7 -165.3,290.2 -163.3,291.5 C-160,293.5 -157.1,295.8 -154.3,298.5 C-151.6,301.2 -149.1,304.1 -146.6,307.1 C-145.9,307.9 -145.2,308.9 -144.5,309.8 C-145.1,309.5 -145.7,309.2 -146.2,308.9 C-150.8,306.6 -155.5,304.8 -160.6,303.8 C-167.7,302.4 -174.9,302.3 -182,302.3 C-182.2,302.3 -182.4,302.4 -182.5,302.5 C-186.4,302.4 -190.4,302.8 -194.2,303.6 C-197.1,304.2 -200,305 -202.9,305.7 C-199.5,303.8 -196.4,301.2 -193.2,299 L-193.2,299 Z M-158.8,326.8 C-159.2,326.9 -159.6,327.1 -160,327.2 C-160.1,327.2 -160.1,327.2 -160.2,327.3 C-160.4,327.4 -160.5,327.4 -160.7,327.5 C-160.8,327.5 -160.9,327.6 -160.9,327.6 C-161.1,327.7 -161.2,327.7 -161.4,327.8 C-161.5,327.8 -161.5,327.9 -161.6,327.9 C-162.2,328.2 -162.8,328.4 -163.3,328.7 C-163.3,328.7 -163.4,328.7 -163.4,328.8 C-163.6,328.9 -163.7,329 -163.9,329 C-164,329 -164.1,329.1 -164.1,329.1 C-164.3,329.2 -164.4,329.3 -164.6,329.3 C-164.7,329.3 -164.8,329.4 -164.8,329.4 C-165,329.5 -165.1,329.6 -165.3,329.6 C-165.3,329.6 -165.4,329.6 -165.4,329.7 C-165.7,329.9 -166,330 -166.4,330.2 C-166.5,330.2 -166.6,330.3 -166.6,330.3 C-166.7,330.4 -166.9,330.5 -167,330.5 C-167.1,330.6 -167.2,330.6 -167.3,330.7 C-167.4,330.8 -167.6,330.9 -167.7,330.9 C-167.8,331 -167.9,331 -168.1,331.1 C-168.4,331.3 -168.8,331.5 -169.1,331.6 C-169.3,331.4 -169.7,331.4 -170,331.5 C-174,333.2 -178.7,333.5 -183,333.6 C-188,333.8 -192.8,333.4 -197.6,332.1 C-197.9,332 -198.2,331.9 -198.4,331.9 C-198.5,331.9 -198.6,331.8 -198.7,331.8 C-198.9,331.7 -199.1,331.7 -199.2,331.6 C-199.3,331.6 -199.4,331.5 -199.6,331.5 C-199.7,331.5 -199.9,331.4 -200,331.4 C-200.1,331.4 -200.3,331.3 -200.4,331.3 C-200.5,331.3 -200.6,331.2 -200.7,331.2 C-201.3,331 -201.9,330.7 -202.6,330.5 C-202.6,330.5 -202.6,330.5 -202.7,330.5 C-202.9,330.4 -203.2,330.3 -203.4,330.2 C-207.3,327.9 -210,324.2 -213.4,321.3 C-217,318.3 -221.3,315.9 -225.6,314.1 C-227.4,313.3 -229.2,312.7 -231.1,312.2 C-227,311.7 -223,310.9 -218.9,310.3 C-217.3,310.2 -215.7,310 -214.1,309.7 C-211.9,309.5 -209.7,309.4 -207.5,309.5 C-205,309.6 -202.5,310.1 -200.2,310.9 C-197.7,311.8 -195.5,313.2 -193.2,314.5 C-188.9,317.1 -184.6,319.5 -180,321.4 C-175.6,323.2 -170.9,324.1 -166.3,325.1 C-163.9,325.9 -161.3,326.4 -158.8,326.8 L-158.8,326.8 L-158.8,326.8 Z M-141,324.5 L-141,324.5 C-141.4,324.5 -141.8,324.6 -142.1,324.6 C-142.1,324.6 -142.1,324.6 -142.2,324.6 C-142.9,324.7 -143.6,324.8 -144.3,324.9 L-144.5,324.9 C-144.8,325 -145.2,325 -145.5,325.1 L-145.7,325.1 C-146,325.2 -146.4,325.2 -146.7,325.3 C-146.9,325.3 -147,325.4 -147.1,325.5 C-147.3,325.5 -147.5,325.5 -147.7,325.4 L-147.9,325.4 L-148.4,325.4 L-148.6,325.4 L-149.1,325.4 L-149.2,325.4 L-149.9,325.4 L-149.9,325.4 L-150.5,325.4 L-150.6,325.4 L-151.2,325.4 L-151.3,325.4 C-151.8,325.4 -152.2,325.4 -152.7,325.5 L-152.7,325.5 L-153,325.5 C-157.7,325.5 -162.4,324.4 -167,323.4 C-169.4,322.9 -171.8,322.4 -174.1,321.8 C-176.5,321.1 -178.9,320.2 -181.2,319.2 C-185.8,317.2 -190.1,314.5 -194.4,312 C-198,309.8 -201.8,308.6 -205.9,308.1 C-201.2,307.4 -196.7,305.9 -192.1,305.1 C-187.3,304.2 -182,304 -177.1,304.8 C-167.1,306.5 -160.2,314.3 -151.4,318.7 C-147.6,320.6 -143.8,322.7 -139.7,324.2 C-139.5,324.3 -139.2,324.4 -139,324.4 C-139.8,324.4 -140.4,324.4 -141,324.5 L-141,324.5 Z M-116.6,321.1 C-120,322.6 -123.8,324.5 -127.6,324.3 C-127.8,324.3 -127.9,324.3 -128,324.4 C-130.3,324.4 -132.6,324 -134.9,323.6 C-137.4,323.2 -139.7,322.4 -142.1,321.4 C-144.4,320.4 -146.6,319.2 -148.9,318.1 C-151.1,317 -153.3,315.9 -155.4,314.6 C-159.5,312 -163.3,308.9 -167.6,306.6 C-169.1,305.7 -170.7,305 -172.4,304.5 C-165.4,304.8 -158.4,305.8 -151.8,308.4 C-149.4,309.4 -147.1,310.7 -144.7,311.8 C-142.5,312.8 -140.2,313.7 -137.8,314.5 C-133.1,316 -128.2,316.9 -123.3,317.1 C-119.6,317.3 -115.9,316.8 -112.2,316.7 C-110.3,316.7 -108.3,316.9 -106.4,317.3 C-106.2,317.3 -105.9,317.4 -105.7,317.4 C-109.3,318.4 -113,319.6 -116.6,321.1 L-116.6,321.1 Z M-83,316.7 C-85.6,316 -88.3,315.5 -91,315.4 C-94.4,315.2 -97.9,315.7 -101.3,316.4 C-101.6,316.3 -102,316.2 -102.4,316.2 C-102.4,315.9 -102.6,315.6 -103,315.4 C-104.1,315.1 -105.3,314.8 -106.4,314.4 C-107.5,314 -108.6,313.4 -109.7,312.9 C-111.7,311.9 -113.6,310.7 -115.5,309.5 C-119.2,307 -122.6,304.1 -126,301.3 C-131.4,296.8 -137,292.2 -143.4,289.3 C-134,288.5 -124.5,289.4 -115.6,292.7 C-106.1,296.2 -98.4,302.7 -90.5,308.7 C-87.7,310.9 -84.8,313 -81.8,314.9 C-80.3,315.9 -78.7,316.7 -77.1,317.7 C-76.9,317.8 -76.7,317.9 -76.6,318 C-78.5,317.5 -80.8,317 -83,316.7 L-83,316.7 Z M-51,318 C-51.4,318 -51.7,318.2 -51.8,318.5 C-53.8,318.4 -55.9,318.5 -58,318.6 C-62.4,318.8 -66.7,319.1 -71.1,318.7 L-71.1,318.7 C-71.2,318.5 -71.4,318.4 -71.6,318.3 C-74,317.6 -76.2,316 -78.4,314.8 C-80.5,313.6 -82.6,312.2 -84.6,310.7 C-88.6,307.9 -92.5,304.8 -96.4,301.8 C-100.3,298.9 -104.3,296 -108.7,293.7 C-108.8,293.6 -108.9,293.6 -109,293.5 C-105.3,293.9 -101.6,294.3 -97.9,294.1 C-92.5,293.8 -87.2,292.3 -81.9,291.3 C-76.6,290.3 -71.2,289.8 -65.9,290.8 C-60.7,291.7 -55.7,293.8 -50.9,295.8 C-45,298.3 -39.3,300.9 -33.2,302.8 C-28.5,304.3 -23.6,305 -18.7,305.3 C-20.1,305.8 -21.4,306.3 -22.8,306.9 C-25.9,308.2 -29.2,309.3 -32.3,310.7 C-35.5,312.1 -38.5,313.6 -41.7,315 C-43.3,315.7 -44.9,316.5 -46.6,317.1 C-47.9,317.5 -49.4,318.1 -51,318 L-51,318 Z M8.4,317.7 C3.5,319.4 -2,321.6 -7.2,320.2 C-7.4,320.1 -7.6,320.2 -7.8,320.2 C-12.6,319.2 -17.4,319.4 -22.3,319.8 C-28.2,320.3 -34.2,320.6 -40.2,320.3 C-40.4,320.3 -40.5,320.3 -40.6,320.4 C-42.1,319.9 -43.6,319.5 -45.1,319.2 C-45.6,319.1 -46.1,319 -46.6,318.9 C-45,318.4 -43.5,317.6 -42,317 C-38.8,315.7 -35.7,314.1 -32.6,312.7 C-29.5,311.2 -26.2,310.1 -23,308.8 C-20.1,307.7 -17.1,306.1 -13.9,306.1 L-13.8,306.1 C-12.2,306.4 -10.6,306.4 -9,306.6 C-7.2,306.8 -5.6,307.4 -4,308 C-0.8,309.2 2.3,310.8 5.5,312.1 C8.5,313.3 11.5,314.5 14.7,315.4 C15,315.5 15.2,315.5 15.5,315.6 C12.9,316.1 10.6,316.9 8.4,317.7 L8.4,317.7 Z M55.1,314.7 C53.6,314.5 52.1,314.3 50.5,314.3 C47.1,314.3 43.7,314.7 40.4,315.1 C38,315.4 35.5,315.9 33.1,316.1 C31.8,316.2 30.4,316.3 29,316.2 C28.1,316 27.2,315.8 26.3,315.6 C26.2,315.5 26,315.5 25.9,315.4 C25.6,315.3 25.4,315.3 25.2,315.4 C25.1,315.1 24.8,314.9 24.4,314.9 C21.2,315 18.1,314.6 15,313.8 C11.8,313 8.9,311.7 5.8,310.5 C2.6,309.2 -0.5,307.7 -3.7,306.4 C-5.3,305.8 -6.9,305.2 -8.6,305 C-9.6,304.9 -10.6,304.8 -11.6,304.7 C-4,301.8 4.1,299.1 12.3,300.7 C14.5,301.1 16.5,301.8 18.7,302.2 C21,302.6 23.4,302.6 25.8,302.5 C30.4,302.4 35,301.4 39.4,302.9 L39.5,302.9 C45.3,306 49.8,310.9 55.1,314.7 L55.1,314.7 Z M51.4,292.8 C46.4,294.2 40.9,296.4 37.7,300.7 C37.7,300.7 37.7,300.7 37.7,300.8 C34,300.1 30.3,300.7 26.5,300.9 C24.1,301 21.6,301 19.2,300.6 C16.9,300.2 14.7,299.5 12.5,299 C11.7,298.8 11,298.7 10.2,298.7 C16.7,296.8 23,294.2 29.5,292.2 C34,290.8 38.6,289.8 43.2,289.6 C47.9,289.5 52.4,290.7 57.1,291.4 C55.1,291.8 53.2,292.3 51.4,292.8 L51.4,292.8 Z M76.3,289.7 C72.2,289.4 68.1,289.8 64,290.3 C59,290.4 54.2,289 49.3,288.3 C46.8,287.9 44.3,287.8 41.8,288 C41.7,287.9 41.6,287.9 41.4,287.9 C38.5,287.5 35.5,287.2 32.6,286.9 C29.6,286.5 26.4,286.1 23.5,285.2 C19.3,283.9 15.5,281.4 11.4,279.9 C11.8,279.8 12.2,279.6 12.6,279.5 C14.4,278.8 16.1,278.1 17.9,277.5 C22.2,276 26.6,275 31,273.6 C35.1,272.3 39.3,271 43.5,270.1 C47.7,269.1 52.2,268.2 56.3,270.1 C56.6,270.2 56.9,270.2 57.2,270 C57.5,270.1 57.8,270.2 58,270.3 C60.1,271 62.1,272 63.9,273.1 C66.1,274.4 68.1,276.1 70.1,277.6 C72.2,279.2 74.2,281 76.1,282.8 C78,284.6 79.4,287 81,289 C81.5,289.6 82,290.2 82.5,290.7 C80.5,290.1 78.4,289.8 76.3,289.7 L76.3,289.7 Z M87.5,283.9 C88.4,286.1 89.4,288.2 90.7,290.1 C92,292 93.5,293.8 95,295.6 C95.6,296.4 96.2,297.1 96.8,297.9 C94.3,296.3 91.9,294.6 89.3,293.1 C89,292.9 88.7,292.8 88.3,292.6 C88.2,292.3 88.1,292.1 87.7,292 C83.8,290.5 81.5,286.7 79.1,283.5 C76,279.6 71.9,276.6 67.9,273.6 C64.2,270.8 60.2,269 55.8,267.6 C51.3,266.2 46.9,264.7 43,261.8 C40.8,260.2 39.1,258.1 37.4,256 C36.5,255 35.6,253.9 34.6,253 C38.3,253.8 41.9,255.4 45.6,256.3 C48,256.9 50.5,257.1 53,257 C55.7,256.9 58.4,256.5 61.1,256.5 C66.2,256.5 70.8,259.1 74.8,262.1 C77.1,263.9 79.8,265.7 81.7,268 C81.7,268.2 81.7,268.3 81.8,268.5 C82,269.1 82.2,269.8 82.4,270.4 C82.4,270.5 82.4,270.5 82.5,270.6 C84.5,274.8 85.7,279.5 87.5,283.9 L87.5,283.9 Z M77.9,243.9 C79.6,245.2 81.4,246.4 83.3,247.3 C85.5,248.3 87.8,248.9 90,249.5 C90.5,249.6 91,249.8 91.5,249.9 L91.8,249.9 C92.7,251 93.3,252.5 93.7,253.8 C94.3,255.6 94.6,257.4 95.1,259.3 C96.2,263.5 97.3,267.8 99.3,271.8 C99.4,272.1 99.5,272.3 99.7,272.5 C95.6,269.9 90.7,268.5 86,268.7 C85.9,268.5 85.7,268.4 85.5,268.3 C84.9,268.2 84.3,268 83.8,267.6 C82.5,265.8 80.7,264.2 79,262.9 C78.3,262.3 77.5,261.7 76.8,261.2 C76.8,261.1 76.7,261 76.6,260.9 C72.7,256.2 71.3,249.9 70.8,244 C70.6,241.2 70.5,238.2 69.9,235.3 C72.1,238.4 74.8,241.4 77.9,243.9 L77.9,243.9 Z M61.5,222.9 C62.7,225.4 64.2,227.8 65.8,230.1 C65.8,230.3 65.8,230.6 66,230.8 C67.5,232.7 68,235.3 68.3,237.6 C68.7,240.1 68.7,242.7 69,245.2 C69.2,247 69.5,248.8 69.9,250.5 C65.8,244.1 63.9,236.5 58.6,231 C55.3,227.5 50.7,225.3 46.4,223.4 C41.7,221.3 36.9,219.6 32.3,217.1 C28.7,215.2 25.7,212.7 22.7,210.1 C20.1,207.9 17.3,206.3 14.4,204.7 C15.3,204.7 16.3,204.6 17.2,204.5 C24.7,203.8 31.9,201.2 39.4,200.6 C43.1,202.2 46.3,205 49.3,207.7 C50.4,208.7 51.5,209.6 52.6,210.5 L52.7,210.6 C54.4,212.5 56.4,214.1 57.9,216.1 C59.4,218.2 60.4,220.7 61.5,222.9 L61.5,222.9 Z M89.5,217.4 C91.1,221.1 92.3,224.9 94.2,228.4 C94.3,228.6 94.4,228.7 94.5,228.9 C93.7,228.5 92.8,228.1 91.8,227.9 C91.6,227.9 91.3,227.9 91.2,228 C90,227 88.4,226.5 86.9,226 C84.9,225.5 83,225.1 81,224.4 C76.1,222.7 71.4,220.3 66.9,217.7 C64.7,216.4 62.5,215 60.3,213.6 C58.2,212.3 56.2,211 54.2,209.5 C50.8,206.8 47.7,203.7 44.1,201.2 C49,202.8 54,203.7 59.1,204.3 C62.5,204.7 66,205.1 69.4,205.3 C72.8,205.6 76.2,206 79.3,207.2 C79.5,207.3 79.7,207.3 79.9,207.2 C80.8,207.5 81.8,207.8 82.8,208.1 L83.1,208.1 C86.1,210.7 88,214 89.5,217.4 L89.5,217.4 Z M89.1,205.4 C89.4,206.2 89.8,206.9 90.1,207.6 C88.2,206.8 86,206.4 84.1,206.1 C83.8,206 83.5,206.2 83.3,206.4 L83.3,206.4 C83,206.2 82.6,206.2 82.4,206.4 C78.2,205.1 74.4,203.1 71,200.2 C67.5,197.2 64.6,193.5 62,189.7 C59.6,186.2 57.5,182.4 55.5,178.7 C54.4,176.8 53.4,174.9 52.2,173 C53.2,173.7 54.2,174.4 55.2,175.1 C57.3,176.5 59.5,177.6 61.9,178.5 C63.8,179.2 66,179.4 68,179.6 C71.8,180 76.5,180.1 79.4,183 C83.5,190.1 85.8,198 89.1,205.4 L89.1,205.4 Z M94.9,181.5 C95.2,183.6 95.5,185.7 96.1,187.7 C91.2,183.1 84.7,180.1 78.6,177.7 C78.3,177.6 78.1,177.6 77.9,177.8 C77.6,177.6 77.3,177.6 77.1,177.8 C76.9,177.8 76.8,177.9 76.7,178 C76.7,178 76.6,178 76.6,177.9 C75.3,177.2 74.2,176.3 73.1,175.3 C70.9,173.2 68.9,170.8 67,168.4 C65.2,166 63.6,163.5 62.2,160.9 C60.4,157.6 58.6,154.3 56.3,151.4 C54.6,149.3 52.6,147.5 50.2,146.2 C51.9,145.9 53.7,145.6 55.5,145.5 C58.4,145.4 61.1,146 63.5,147.7 C63.7,147.8 63.9,147.9 64.1,147.8 C67.2,150.7 70.4,153.6 73.4,156.7 C73.7,157 73.9,157 74.2,156.9 C74.3,157.1 74.4,157.2 74.5,157.4 C78,163.5 84.5,167.8 91.2,169.6 C93.8,173 94.3,177.4 94.9,181.5 L94.9,181.5 Z M92,157.6 C93.1,161.4 94.6,165 96.9,168.2 C96.3,168.1 95.6,168 95,168.1 C94.8,168.1 94.6,168.2 94.5,168.3 L94.1,168.3 C93.5,168.2 92.9,168.1 92.3,168.2 C85.4,166.6 78.9,162.2 75.5,155.9 C73.8,152.8 72.9,149.3 71.9,145.9 C71.4,144.1 70.8,142.3 70.1,140.5 C69.9,140.1 69.8,139.7 69.6,139.2 C72.3,141.4 75.4,142.7 78.8,143.4 C80.9,143.8 83,144 85,144.4 C86.2,144.6 87.5,145 88.7,145.3 C90,149.3 90.8,153.5 92,157.6 L92,157.6 Z M81.7,119.5 L81.7,119.5 C82,120 82.2,120.5 82.4,120.9 C84,124.8 85.4,128.7 87.2,132.5 C89.1,136.5 91.5,140.5 94.5,143.9 C93.2,143.7 91.9,143.6 90.6,143.6 C90.4,143.6 90.3,143.6 90.1,143.7 C89.1,143.6 88.1,143.3 87.1,143.1 C85.8,142.8 84.4,142.5 83,142.3 C80.5,141.9 77.8,141.7 75.4,140.8 C71.7,139.4 68.8,136.7 66.4,133.7 C64,130.6 62.1,127.2 60,123.9 C57.8,120.4 55.3,117.2 52.3,114.3 C47.4,109.6 41.1,105.9 34.2,106.8 L34.1,106.7 C35.3,104.3 38.9,103.5 41.2,103 C42.9,102.7 44.6,102.5 46.3,102.5 C47.6,102.5 49,102.6 50.2,103.1 C50.5,103.2 50.8,103.2 50.9,103 C52.7,103.7 54.5,104.3 56.3,104.9 C59.5,105.9 62.8,106.6 66.1,107.4 C69.4,108.3 72.5,109.7 75.2,111.8 C78,114 79.6,117 81.7,119.5 L81.7,119.5 Z M76.2,91.7 C77.7,93.2 79.1,94.9 80.5,96.6 C82,98.5 83.3,100.4 84.5,102.4 C85.4,103.9 86.3,105.3 87.3,106.6 C84.5,105.4 81.5,104.7 78.4,104.7 C78.2,104.7 78.1,104.8 77.9,104.8 L77.8,104.7 C70.7,100.9 64.3,95.4 60.1,88.4 C59,86.7 58.2,84.8 57.2,83 C56.9,82.5 56.7,82 56.4,81.5 C60.3,84.8 64.9,87.3 70,88.2 C70.6,88.3 71.2,88.4 71.8,88.4 C73.5,89.2 74.9,90.4 76.2,91.7 L76.2,91.7 Z M85.7,81.4 C86.2,82.1 86.6,82.8 87.1,83.5 C87.8,85.3 88.4,87 89.2,88.8 C89.6,89.8 90.1,90.9 90.6,91.9 C88.7,90.5 86.6,89.3 84.4,88.4 C80.6,86.7 76.1,85.4 71.9,86.4 C71.7,86.4 71.6,86.5 71.5,86.6 C71.2,86.6 71,86.6 70.9,86.8 C70.3,86.7 69.6,86.5 69,86.4 C67.9,86.1 66.8,85.7 65.8,85.3 C63.9,84.5 62,83.5 60.3,82.4 C57.5,80.5 55.1,78.2 52.9,75.6 C51.7,73.9 50.5,72.2 49.1,70.6 C45,64.4 41.9,57.4 36.7,52 C40.4,52.6 44.1,53.4 47.6,54.7 C48.1,54.9 48.7,55.1 49.2,55.4 C49.3,55.5 49.4,55.5 49.4,55.5 C50.9,56.2 52.3,57 53.6,57.9 C55.5,59.3 57.2,61 58.8,62.7 C60.3,64.3 61.8,66 63.6,67.5 C65.5,69.1 67.6,70.4 69.8,71.4 C72,72.5 74.4,73.2 76.7,74.1 C78.6,74.8 80.5,75.6 82,77 C83.3,78.2 84.5,79.8 85.7,81.4 L85.7,81.4 Z M83.6,76.3 C80.6,73.4 76.6,72.3 72.7,70.9 C70.3,70 68,68.8 66,67.3 C64.1,66 62.5,64.3 61,62.7 C59.4,61 57.9,59.2 56.1,57.7 C54.4,56.2 52.4,55 50.4,54.1 C50.2,54 50.1,54 49.9,53.9 L49.9,53.9 C44.7,50 40.6,44.6 37.2,39.1 C35.4,36.3 33.5,32.6 30.6,30.8 C34.3,30.8 37.9,30.8 41.5,31.5 C46.1,32.4 50,34.7 53.4,37.8 C56.6,40.8 59.3,44.3 61.9,47.8 C64.4,51.2 66.9,54.8 69.9,57.8 C73,60.8 76.6,63.3 79.3,66.8 C81.5,69.5 82.3,73 83.6,76.3 L83.6,76.3 Z M84.7,34.7 C84.6,34.9 84.6,35.1 84.7,35.4 C86.1,38.9 87.2,42.6 88.6,46.1 C86.5,43.9 84.1,42.1 81.1,41.3 C80.5,40.9 79.9,40.5 79.4,40.1 C74.7,33.2 67.2,28.2 59.4,25.8 C58.8,25.6 58.1,25.4 57.5,25.3 C57.3,25.1 57.2,25 57,25 C55,24.4 53.3,23.2 51.6,22 C49.8,20.7 47.9,19.5 46,18.4 C42,16 37.9,13.7 33.6,11.8 C33.5,11.8 33.5,11.8 33.4,11.7 C33.4,11.5 33.3,11.2 33,11.1 C29.1,9.1 26.9,5.5 24.7,1.9 C23.7,0.4 22.8,-1.1 21.7,-2.6 C23.7,-1.7 25.8,-1.2 27.9,-0.9 C31.8,-0.3 35.7,-0.3 39.7,-0.4 C48.9,-0.6 58.4,-0.6 67.4,1.7 C70.3,2.4 73.1,3.4 75.8,4.7 C77.2,5.4 78.8,6.3 80,7.5 C79.9,7.8 79.9,8.1 80.2,8.3 C81.6,9.5 81.8,11.7 82.1,13.4 C82.5,15.9 82.7,18.5 82.9,21.1 C83.1,25.6 83.4,30.2 84.7,34.7 L84.7,34.7 Z" id="Shape" fill="#FFFFFF" sketch:type="MSShapeGroup" mask="url(#mask-2)"></path>
            <path d="M47.1805,79.4187 C49.9405,78.9387 51.5005,78.5787 53.9005,77.7387 C53.7805,78.0987 53.4205,77.9787 53.4205,78.3387 C54.8605,77.3787 55.5805,76.6587 57.1405,76.0587 C57.0205,76.5387 56.7805,76.6587 56.7805,77.1387 C57.9805,76.1787 59.3005,75.8187 60.1405,74.4987 C61.9405,71.9787 62.0605,67.5387 62.6605,63.9387 C63.9805,53.6187 63.3805,43.6587 62.1805,33.9387 C60.6205,31.8987 61.5805,27.2187 59.9005,25.0587 C58.1005,23.8587 56.1805,22.8987 54.6205,22.4187 C54.7405,22.4187 54.8605,22.2987 54.6205,22.2987 C50.7805,23.0187 45.8605,22.4187 43.3405,24.5787 C43.2205,25.0587 43.8205,24.9387 43.5805,25.5387 C43.3405,25.5387 43.1005,25.4187 42.9805,25.6587 C44.9005,27.5787 47.7805,25.0587 50.3005,26.6187 C51.5005,36.4587 52.8205,46.2987 52.2205,57.9387 C51.8605,62.6187 51.3805,66.9387 49.4605,69.9387 C48.5005,71.2587 47.5405,73.1787 46.4605,73.2987 C43.2205,73.7787 43.3405,67.8987 44.0605,65.4987 C43.1005,64.1787 44.0605,62.4987 44.5405,61.0587 C43.9405,60.4587 43.9405,61.1787 43.4605,60.9387 C43.9405,59.8587 43.9405,58.4187 43.5805,57.2187 C42.6205,57.2187 42.7405,58.2987 41.7805,58.4187 C42.0205,58.1787 42.2605,58.0587 42.3805,57.6987 C38.3005,60.3387 35.1805,66.3387 37.3405,71.4987 C37.3405,71.9787 36.7405,71.8587 36.7405,72.3387 C36.8605,72.5787 37.4605,72.4587 37.5805,72.6987 C38.5405,74.8587 40.8205,75.8187 42.2605,77.6187 C43.4605,77.8587 44.5405,78.3387 45.5005,78.9387 C46.1005,78.5787 46.7005,79.0587 47.1805,79.4187 L47.1805,79.4187 Z" id="J" fill="#69C8C9" sketch:type="MSShapeGroup" mask="url(#mask-2)"></path>
        </g>
    </g>
</svg>