<?xml version="1.0" encoding="utf-8"?>
<!-- Generator: Adobe Illustrator 19.1.0, SVG Export Plug-In . SVG Version: 6.00 Build 0)  -->
<svg version="1.1" id="Layer_1" xmlns="http://www.w3.org/2000/svg" xmlns:xlink="http://www.w3.org/1999/xlink" x="0px" y="0px"
	 viewBox="0 0 100 100" style="enable-background:new 0 0 100 100;" xml:space="preserve">
<style type="text/css">
	.st0{fill:#DAF2F0;}
	.st1{clip-path:url(#SVGID_2_);}
	.st2{fill:#FFFFFF;}
	.st3{fill:#69C8C9;}
	.st4{font-family:'Starshine-Regular';}
	.st5{font-size:120px;}
</style>
<circle class="st0" cx="50" cy="50" r="50"/>
<g>
	<g>
		<defs>
			<circle id="SVGID_1_" cx="50" cy="50" r="50"/>
		</defs>
		<clipPath id="SVGID_2_">
			<use xlink:href="#SVGID_1_"  style="overflow:visible;"/>
		</clipPath>
		<g class="st1">
			<path class="st2" d="M91.5,11.2c-0.6-0.4-1.1-0.8-1.7-1.2c-2.1-1.5-4.5-2.7-7-3.4c-0.4-0.1-0.7,0.1-0.9,0.3c0,0-0.1,0-0.1-0.1
				c-0.1,0-0.2-0.1-0.3-0.1C80.1,5,78,3.8,76.1,2.8c-1.4-0.7-2.8-1.2-4.3-1.8c-0.1-0.1-0.2-0.3-0.4-0.4c-4.2-2-8.5-4.2-12.4-7.1
				c-1-0.8-2.1-1.6-3.1-2.5h-2.6c1,0.9,1.9,1.8,3,2.6c2.7,2.2,5.6,4,8.6,5.7c-8.7-1.8-17.7-1.6-26.6-1.5c-3.5,0.1-7,0-10.5-0.6
				c-3.2-0.5-6.5-1.5-8.9-3.7c-0.6-0.9-1.3-1.7-2-2.5h-2.2c1,1.1,1.9,2.3,2.8,3.5c0,0.1,0.1,0.2,0.2,0.3l0,0c2,2.7,3.9,5.5,5.7,8.4
				c1.5,2.4,3,4.8,5,6.7c-2.6-0.8-5.2-1.3-7.9-1.4c-4-0.2-7.9,0.2-11.8,0.7C8.6,9,8.5,9,8.5,9c0-0.3-0.2-0.6-0.6-0.7
				C3.6,7,0,4.1-3.2,1.1c-3.3-3-6.4-6-9.8-8.9c-0.5-0.4-1-0.9-1.5-1.3h-2.7c2.6,2.2,5.3,4.4,7.9,6.8C-4.8,2.1-0.1,7,5.8,9.4
				c-5.5,1.6-11.2,2.7-17,2c-0.1-0.1-0.2-0.2-0.3-0.2c-4.6-2.9-9.8-4.9-15.1-6.3c-3-0.8-6.1-1.4-9.1-1.8C-43,0.5-49.3-3.9-55-9h-2.6
				c0.4,0.3,0.7,0.7,1.1,1c4.6,4.2,9.6,7.9,15.1,10.5c-0.5,0-1.1,0-1.6,0c-0.4,0-0.7,0.2-0.8,0.5c-1.6,0.7-3.6,0.5-5.2,0.2
				c-2-0.3-3.8-0.9-5.7-1.6c-4.2-1.6-8.1-4-11.8-6.5c-2-1.4-4-2.8-6.1-4.2h-3c1.5,1,2.9,2.1,4.4,3.1c4.6,3.2,9.2,6.3,14.3,8.6
				c2.3,1,4.7,1.9,7.2,2.3c1,0.2,2.1,0.3,3.1,0.3c-3.4,2.1-7.3,3.5-11,4.7c-4.5,1.4-9.1,2.3-13.7,2.9c-0.1-0.2-0.4-0.4-0.7-0.4
				c-2.4,0-4.6,0-6.9-0.4c-1.8-0.3-3.6-0.9-5.3-1.6c-3.3-1.4-6.3-3.5-8.9-5.9c-4.9-4.1-8.8-9-13.3-13.5h-2.5
				c2.4,2.3,4.7,4.8,6.9,7.3c3.8,4.1,7.7,8.2,12.4,11.3c2.3,1.5,4.8,2.7,7.4,3.5c1.4,0.4,2.8,0.7,4.3,0.9c0.5,0.1,1,0.1,1.6,0.2l0,0
				c-1.5,0.5-2.9,1.1-4.4,1.7c-2.9,1.1-5.7,2.1-8.8,2.6c-3.1,0.5-6.3,0.1-9.4-0.8c-2.4-0.7-4.9-1.7-7-3.1c-2.4-2.3-4.3-5.1-6.2-7.7
				c-2.6-3.4-5.4-6.8-9.2-8.8c-1.6-2.3-3.1-4.7-4.8-7h-2.1c1.5,1.9,2.9,4.1,4.2,6.1c-3.3-1.1-6.9-1.3-10.3-1.7
				c-5.6-2-11.9-1.7-17.6-0.8c-3.9,0.6-8,1.7-11.7,3.4c-0.2-0.1-0.3-0.1-0.5,0c-2.5,0.5-5.1-0.2-7.6-0.1c-2.8,0.1-5.6,0.5-8.4,0.8
				c-5.3,0.7-10.7,1.5-16,1.4c-1.6,0-3.2-0.2-4.7-0.5c2.4-0.2,4.9-0.7,7.2-1.3c4.9-1.2,9.2-3.5,13.8-5.5c1.3-0.6,2.6-1.2,3.9-1.7
				h-4.1c-2.8,1.3-5.7,2.7-8.5,3.9s-5.8,1.9-8.8,2.4c-2.9,0.5-6,0.9-9,0.3c-0.2,0-0.4,0-0.6,0.1c-1.3-0.5-2.6-1.1-3.8-1.7
				c-2.9-1.4-5.5-3.2-8.1-5h-3c0.7,0.5,1.4,1,2.1,1.5c4,2.8,8.1,5.2,12.7,6.9c5,1.9,10,2.6,15.3,2.3c4.8-0.3,9.6-1,14.3-1.6
				c2.4-0.3,4.9-0.6,7.3-0.5c1.2,0,2.3,0.2,3.5,0.2c-1,0.6-2,1.3-3,2.1c-0.1,0.1-0.2,0.2-0.2,0.3c-4,2.2-7.9,4.4-12.3,5.6
				c-4.3,1.2-8.8,1.6-13.3,1.5c-8.9-0.3-17.7-3.3-25-8.5c-4.1-2.9-7.9-6.4-11.7-9.7h-2.6c1.2,1.1,2.4,2.1,3.7,3.2
				c3.8,3.3,7.7,6.7,12,9.5c7.4,4.7,16.3,7.2,25,7.3c4.3,0.1,8.7-0.5,12.9-1.7c0.9-0.3,1.7-0.5,2.6-0.9c-11.3,5.7-24.7,7.3-37,4.9
				c-8.4-1.6-16.2-5.2-22.4-11.2c-2.9-2.8-5.5-6-8-9.3v2.8c2.4,3.1,4.9,6.1,7.8,8.7c0,0.1,0.1,0.1,0.1,0.2
				c4.9,6.5,10.2,12.9,16.6,17.9c2.8,2.2,5.8,4,8.9,5.5c-1.4,0.2-2.9,0.4-4.3,0.5c-2.2,0.2-4.5,0.3-6.8,0.2c-4.4-0.2-8.8-1.1-13-2.8
				c-3.4-1.4-6.6-3.5-9.4-6v2.3c1.4,1.1,2.8,2.1,4.3,3c0.1,0.1,0.2,0.2,0.3,0.3c4.3,2.4,7.7,5.9,11.3,9.2c3.2,2.9,6.6,5.4,10.6,7.2
				c7.7,3.4,16.4,4.1,24.6,3.4c-3.2,1.2-6.4,2.3-9.6,3.6c-4.6,1.8-9.3,3-14.2,2.9c-8.6-0.2-17.2-3.9-23.6-9.5
				c-1.3-1.2-2.6-2.5-3.7-3.8V41c0.5,0.5,1,1,1.5,1.5c3.1,3,6.8,5.4,10.6,7.2c2.9,1.3,5.9,2.4,9,3c0.1,0.2,0.4,0.4,0.7,0.4
				c2.2,0.1,4.2,1.5,6.2,2.5c-3.8,0.4-7.6,1.1-11.5,1.2c-4.3,0.1-8.7-0.9-12.6-2.6c-1.4-0.6-2.7-1.3-4-2.1v2c3.6,2,7.6,3.4,11.7,4.1
				c6.8,1.2,13.4-1.1,20.1-1.1c1.4,0.5,2.8,0.9,4.2,1.2c3.3,0.8,6.7,1.2,10.2,1.1c-1.7,1.1-3.3,2.4-5.1,3.4c-4.4,2.5-9.4,3.5-14.4,4
				c-8,0.7-16.5-0.3-23.6-4.3c-1.1-0.6-2.1-1.3-3.1-2.1v2.2c3.8,2.7,8.2,4.4,12.8,5.3c0,0,0.1,0,0.1,0.1c2.1,1.3,4,2.9,6,4.3
				s4.2,2.4,6.6,3.2c3.5,1.1,7.1,1.5,10.8,1.6c-0.8,0.4-1.6,0.7-2.3,1.1c-2.2,1-4.3,1.9-6.7,2.4c-4,0.9-8.1,1-12.1,0.5
				c-3.6-0.4-7.1-1.5-10.4-3.1c0,0,0,0-0.1,0c-1.6-0.8-3.2-1.7-4.6-2.8v2.4c0.6,0.5,1.3,1,2,1.4c0.1,0.2,0.3,0.4,0.5,0.5
				c4.3,1.4,7.9,4.1,11.6,6.6c3.8,2.6,7.6,4.8,12.1,6c1.1,0.3,2.2,0.5,3.4,0.7c-3.7,1.1-7.4,2-11.3,2.3c-5.2,0.5-10.4-0.2-15.3-2.1
				c-1-0.4-2.1-0.9-3.1-1.4v1.9c4.4,2.1,9.3,3.3,14.2,3.4c6.4,0.1,12.8-1.4,18.9-3.5c0.1,0,0.2,0,0.4,0c1.4-0.2,2.7,0.5,3.8,1.2
				c1.5,1,2.8,2.2,4.1,3.5c0.7,0.7,1.4,1.4,2.1,2.2c-1.8-0.1-3.8,0.2-5.5,0.5c-3.5,0.7-6.9,2-10.3,3.1c-2.6,0.8-5.2,1.3-7.9,1.5
				h-0.1c-0.3-0.1-0.5,0-0.7,0.1c-0.6,0-1.3,0.1-1.9,0.1c-3.8,0.1-7.7-0.3-11.4-1.5c-2.1-0.7-4-1.7-5.7-2.9v2.1
				c5.1,3.2,11.3,4.2,17.3,4c0.7,0,1.5-0.1,2.2-0.1c4.1,1.3,7.8,3.6,11.1,6.4c-0.3,0-0.5,0-0.8,0.1c-0.1,0-0.3,0-0.4,0
				c-0.2,0-0.4,0-0.5,0.1c-4,0.6-8,2-12,2.5c-4.7,0.6-9.5,0-14-1.6c-1-0.3-2-0.7-2.9-1.2v1.9c0.2,0.1,0.4,0.2,0.7,0.3
				c4.3,1.8,9,2.7,13.6,2.5c2.9-0.1,5.8-0.6,8.7-1.4c2.3-0.6,4.6-1.2,7-1.5c1.4,0.2,2.6,1,3.7,1.9c4.4,4.9,8.2,10.3,13.5,14.2
				c-3-1-6-2.1-9-3.1c-5.1-1.7-10.4-2-15.8-2.1c-5-0.1-9.9-0.8-14.6-2.7c-2.2-0.9-4.5-2.1-6.3-3.6c-0.5-0.4-0.9-0.8-1.3-1.2v2.3
				c3.5,3,8.1,4.7,12.5,5.8c5,1.2,10,1,15.1,1.3c2.7,0.2,5.4,0.6,8,1.3s5.2,1.7,7.7,2.6c0.5,0.2,1.1,0.4,1.6,0.6
				c-3,0.5-5.9,1.5-8.8,2.7c-4.9,2.1-10,3.8-15.3,4.4c-7.5,0.9-15-0.9-21-5.3v2.1c3.9,2.6,8.3,4.3,13.2,5c6.4,0.8,13-0.5,19.1-2.7
				c3-1.1,5.8-2.5,8.9-3.5c2.6-0.9,5.3-1.3,8-1.4c1.2,0.3,2.4,0.7,3.7,0.9c1.7,0.8,3.5,1.4,5.3,2c-0.4,0.1-0.9,0.2-1.3,0.3
				c-2.3,0.6-4.6,1.6-6.8,2.6c-4.4,2-8.6,4.5-13.1,6.4c-6.7,3-14.2,5.5-21.7,5.4c-0.3,0-0.7-0.1-1-0.1c-0.1,0-0.2,0-0.3,0
				c-2.2-0.1-4.4-0.4-6.6-1.1c-2.7-0.8-5.1-2.1-7.3-3.7v2.1c0.6,0.4,1.2,0.8,1.9,1.2c4,2.2,8.5,3.2,13,3.2c4.7,0.4,9.2,2.4,13.7,3.5
				c2.5,0.6,5.1,0.9,7.7,1.1c0.1,0,0.1,0,0.2,0c0.1,0.1,0.2,0.1,0.3,0.2c4.8,1.3,9.4,3.2,14.2,4.5c4.4,1.2,9,1.5,13.6,1.4
				c-2.9,1.4-5.8,2.9-9,3.9c-2.1,0.7-4.4,1-6.6,1.4c-2.2,0.4-4.4,0.7-6.6,1c-8.6,1.1-17.7,0.9-25.6-3c-2.5-1.3-4.7-2.9-6.8-4.7
				c-2.5-2.1-5.1-4.2-7.6-6.4c-0.8-0.7-1.7-1.4-2.5-2.2v2.3c1.7,1.5,3.5,3,5.2,4.4c2,1.6,3.9,3.4,6,5c5,3.9,10.9,5.9,17,6.6
				c0.1,0.1,0.3,0.2,0.6,0.2c3.6,0.2,6.9,1.7,10.1,3.3c-3.8-0.1-7.6,0.3-11.4,0.6c-4.5,0.3-9.1,0.5-13.5-0.2
				c-4.3-0.6-8.5-2.1-11.9-5c-0.7-0.6-1.4-1.2-2-1.9v2.7c2.6,2.7,4.3,6.1,6.7,9c2.7,3.4,6.4,6.1,10.4,7.9c8.2,3.8,17.9,4.3,26.5,2
				c0.4-0.1,0.8-0.2,1.1-0.3c-0.5,0.4-1,0.8-1.5,1.2c-1.9,1.5-3.9,2.9-6,4.1c-2.2,1.3-4.5,2.4-6.9,2.9c-2.1,0.5-4.3,0.4-6.5,0.2
				c-4.4-0.5-8.7-2.4-12.3-4.8c-1.9-1.2-3.6-2.7-5.2-4.2c-1.3-1.3-2.8-2.8-3.6-4.4c-1.3-2.5-1.8-5.5-2.5-8.3v6.8
				c0.3,1,0.7,1.9,1.2,2.8c1,1.7,2.5,3.2,3.9,4.5c1.6,1.5,3.3,2.9,5.2,4.2c3.7,2.5,7.8,4.3,12.2,5c1.5,0.3,3.1,0.4,4.7,0.3
				c0.1,0.2,0.3,0.3,0.5,0.3c4.9,1.1,9.9,0.7,14.8,0.1c2.9-0.3,5.9-0.6,8.8-1.1c-6.6,2.7-13.4,5.1-20.5,5.6
				c-9.4,0.8-18.9-2.5-26-8.7c-1.7-1.5-3.4-3.2-4.7-5.1v2.8c5.3,6.4,13.1,10.7,21.3,12.2c0.5,0.1,0.9,0.2,1.4,0.2
				c0.1,0.1,0.2,0.1,0.4,0.1c4.7,0.2,8.9,3.1,13.1,5.1c2.3,1.1,4.8,1.8,7.3,2.3c-3.4,1.2-6.9,2.3-10.5,3c-5,1-10,1-14.9-0.5
				c-5.9-1.7-11.2-5.1-15.8-9.2l0,0c-0.1-0.1-0.2-0.2-0.3-0.2c-0.6-0.6-1.3-1.2-1.9-1.8v2.4c0.3,0.3,0.6,0.6,0.9,0.8
				c3.1,4,6.6,7.7,10.2,11.3c3.3,3.3,6.6,6.8,10.7,9.2c0.2,0.1,0.4,0.2,0.6,0.4c-1.1-0.1-2.2-0.2-3.3-0.4c-2.3-0.4-4.6-1.1-6.7-2.1
				c-4-1.8-7.6-4.3-10.8-7.2c-0.6-0.5-1.1-1.1-1.6-1.6v2.4c1.6,1.5,3.2,2.9,5,4.2c2.9,2,6,3.7,9.4,4.9c4,1.4,8.2,1.6,12.4,1.8
				c6.2,2.3,13.1,2.7,19.7,2.1c5.2-0.5,10.2-1.6,15.2-3.1c0.7,0.1,1.3,0.2,2,0.4c-3.6,1.6-6.8,4-10.1,6.2c-3.9,2.7-8.1,4.9-12.7,6.3
				c-8.6,2.6-17.8,2.7-26.3-0.3c-5.7-2-10.7-5.5-14.6-10v2.6c3.5,3.6,7.7,6.4,12.3,8.3c3,1.2,6.1,2.1,9.2,2.6
				c5.1,1,9.9,3.1,14.8,4.9c5,1.8,10.3,2.7,15.6,3.4c1.2,0.1,2.5,0.3,3.7,0.3c-2.7,1.4-5.2,3.2-7.8,4.7c-3.8,2.2-7.9,3-12.2,3.1
				c-8.4,0.2-16.8-2.4-23.8-7c-4.8-3.1-9.3-7.4-11.9-12.6v3.4c0.3,0.4,0.6,0.8,0.9,1.2c-0.3-0.1-0.6-0.3-0.9-0.4v1.9
				c1.6,0.7,3,1.7,4.2,3l0.1,0.1c0.6,0.7,1.3,1.2,2.1,1.6c0.1,0,0.2,0.1,0.3,0.1c4.1,3.5,8.9,6.2,13.9,7.9c0.1,0.3,0.4,0.5,0.8,0.6
				c2.1,0.1,4.1,1.2,5.9,2.2c1.9,1.1,3.7,2.2,5.7,3.1c4.7,2.2,9.7,3.6,14.8,4.3c4.3,0.6,8.5,0.7,12.7,0.2c-2.1,1.2-4.2,2.5-6.3,3.7
				c-0.4,0.2-0.8,0.4-1.1,0.6c-0.3,0-0.5,0.1-0.6,0.3c-3.7,1.9-7.8,3.2-12,3.5c-9,0.8-18-2.4-25.1-7.8c-4.8-3.7-8.4-8.4-11.6-13.4
				c-1.2-1.9-2.5-3.8-3.8-5.7v3c0.3,0.4,0.5,0.8,0.8,1.2c2.7,4.1,5.2,8.2,8.5,11.8c6,6.4,14.1,10.9,22.7,12.3c0.3,0,0.5,0.1,0.8,0.1
				c-0.8,0.3-1.7,0.5-2.5,0.8c-2.3,0.7-4.6,1.1-7.1,1.1c-4.6-0.1-9.1-1.5-13-3.8s-7.1-5.6-9.2-9.6c-0.4-0.7-0.7-1.4-1-2.2v5.5
				c0.8,0.6,1.6,1.3,2.3,2c0.1,0.1,0.2,0.2,0.4,0.2c4.4,5.2,10.8,8.5,17.6,9.4c2.8,0.4,5.6,0.3,8.4-0.3c3.2-0.7,6.2-2,9.5-2.7
				c4.1-0.1,8.2-0.9,12-2.4c1.1-0.5,2.2-1,3.3-1.6c6.8-0.2,11.9,4.6,17.7,7.4c-3.1,0.7-6.1,2-8.9,3.3l0,0c-0.2,0-0.5,0-0.7,0.2
				c-0.1,0.1-0.2,0.2-0.2,0.2c-3.9,1.9-7.6,3.9-11.6,5.5c-4.7,1.9-9.6,3.4-14.6,3.9c-4.4,0.4-8.9-0.1-13.2-1.1
				c-7.9-1.8-15.9-5.5-21.7-11.4c-0.1-0.1-0.1-0.1-0.2-0.2v2.4c0.3,0.3,0.6,0.5,0.9,0.8c6.7,5.8,15.5,9.4,24.2,10.7
				c4.2,0.7,8.4,0.8,12.6,0.1c4.7-0.7,9.3-2.2,13.6-4.1c0.7-0.3,1.4-0.6,2.1-0.9c-1.3,0.9-2.6,1.9-3.9,2.8c-2.2,1.6-4.3,3.2-6.6,4.6
				c-2.1,1.3-4.3,2.2-6.6,3c-1.4,0.5-2.9,0.8-4.4,1.1c-1.7,0.2-3.5,0.4-5.2,0.7c-6.5,0.4-13.2-0.8-19-3.6c-3-1.5-5.5-3.6-7.7-6.1
				v2.5c1.1,1.1,2.2,2.1,3.5,3.1c-1.2,0-2.3,0-3.5,0.1v1.8c0.1,0,0.2,0,0.3,0c2.5-0.2,5.3-0.2,7.5,0.9c0.2,0.1,0.3,0.1,0.4,0.1
				c3.2,1.4,6.8,2.3,10.2,2.8c-3.3,0.5-6.5,0.9-9.8,0.9c-0.3,0-0.5,0.1-0.6,0.3c-0.4,0-0.8,0-1.3,0c-2.3,0-4.5,0.2-6.7,0.7v1.8
				c2-0.4,4.1-0.7,6.2-0.7c4.8-0.1,9.5,1.1,13.9,2.9c4.3,1.9,8.6,4.4,12.2,7.5c1.6,1.4,3,2.9,4.5,4.3l0,0c-0.8-0.4-1.6-0.7-2.4-1.1
				c-4.2-1.9-8.6-3.3-13.2-3.8c-3.6-0.5-7.2-0.4-10.8,0.1c-3.4,0.4-6.8,1.1-10.3,1.3v3.2c0.9,0.8,1.7,1.5,2.6,2.3
				c2.9,2.5,5.8,5.1,8.7,7.6h2.6c-0.1-0.1-0.2-0.1-0.2-0.2c-4-3.5-7.9-7-11.9-10.4c1.6,0.4,3.2,0.7,4.8,1.2c2.4,0.7,4.7,1.8,7,3
				c2.3,1.1,4.5,2.4,6.7,3.8c1.4,0.9,2.6,1.8,3.9,2.7h3c-1.4-1-2.8-1.9-4.1-2.9c-3.5-2.4-7.2-4.5-11.1-6.3c-1.9-0.9-3.9-1.7-5.9-2.2
				c-0.5-0.1-1-0.2-1.4-0.4c3.5-0.5,7-1.1,10.6-1.2c4.8-0.1,9.6,0.7,14.1,2.2c0.3,0.1,0.6,0.2,0.9,0.3c0.1,0,0.2,0.1,0.3,0.1
				c0.2,0.1,0.4,0.1,0.6,0.2c0.1,0,0.2,0.1,0.3,0.1c0.2,0.1,0.3,0.1,0.5,0.2c0.1,0,0.2,0.1,0.3,0.1c0.2,0.1,0.3,0.1,0.5,0.2
				c0.1,0,0.2,0.1,0.3,0.1c0.2,0.1,0.3,0.1,0.5,0.2c0.1,0,0.2,0.1,0.3,0.1c0.2,0.1,0.4,0.2,0.5,0.2s0.2,0.1,0.3,0.1
				c0.2,0.1,0.4,0.2,0.6,0.3c0.1,0,0.1,0.1,0.2,0.1c0.9,0.4,1.8,0.8,2.7,1.3l0,0c0.2,0.1,0.5,0.2,0.7,0.3c0,0,0.1,0,0.1,0.1
				c0.2,0.1,0.4,0.2,0.7,0.3c0.1,0,0.1,0.1,0.2,0.1c0.2,0.1,0.4,0.2,0.6,0.3c0.1,0,0.1,0.1,0.2,0.1c0.2,0.1,0.4,0.2,0.6,0.3
				c0.1,0,0.1,0,0.2,0.1c0.2,0.1,0.4,0.2,0.7,0.3h0.1c0.1,0.1,0.2,0.1,0.3,0.1c0.1,0.1,0.3,0.1,0.4,0.2c4.7,1.8,9.7,3,14.7,3.3
				c3.4,0.2,6.8,0,10.1-0.3c1.1-0.1,2.2-0.2,3.3-0.4c-1.3,0.6-2.7,1.3-4.1,1.9c-0.3,0.1-0.6,0.3-0.9,0.4h4.1
				c1.2-0.6,2.4-1.1,3.6-1.7c2.4-1.2,4.7-2.5,7.1-3.8c4.5-2.4,9-4.3,14.2-4.4c6.3-0.2,13.2,1.5,18.3,5.2c1.8,1.3,3.3,2.9,4.7,4.7
				h2.1c-0.8-1.1-1.7-2.2-2.7-3.3c-3.3-3.5-7.5-5.7-12.1-7c-0.5-0.2-1.1-0.3-1.6-0.4c8.2-1.1,16.8-0.3,24.1,3.6
				c3.6,1.9,6.6,4.4,9.5,7.1h2.5c-0.7-0.7-1.5-1.5-2.2-2.2c-0.3-0.3-0.6-0.5-0.8-0.8c-0.1-0.1-0.2-0.2-0.3-0.3
				c-0.2-0.2-0.4-0.3-0.5-0.5c-0.1-0.1-0.3-0.2-0.4-0.3c-0.2-0.1-0.3-0.3-0.5-0.4c-0.1-0.1-0.3-0.2-0.4-0.4
				c-0.1-0.1-0.3-0.2-0.4-0.3c-0.2-0.1-0.3-0.3-0.5-0.4c-0.1-0.1-0.3-0.2-0.4-0.3c-0.2-0.1-0.4-0.3-0.6-0.4
				c-0.1-0.1-0.2-0.2-0.3-0.2c-0.2-0.1-0.4-0.3-0.6-0.4c-0.1-0.1-0.2-0.1-0.3-0.2c-0.2-0.1-0.5-0.3-0.7-0.4l-0.1-0.1
				c-2.4-1.5-4.9-2.7-7.6-3.5c3.9-0.3,7.7-1.1,11.6-0.9c5.6,0.2,11.1,1.1,16.6,2.4c4.5,1.1,8.7,2.9,12.7,5.2
				c2.3,1.3,4.5,2.8,6.7,4.3h3c-5.3-3.7-10.6-7.3-16.7-9.6c-2.8-1.1-5.8-1.8-8.8-2.4c-3.2-0.7-6.5-1.1-9.8-1.4s-6.4-0.3-9.7,0.1
				c-0.5,0.1-0.9,0.1-1.4,0.2c1.1-0.5,2.3-1,3.4-1.5c4.5-2,9.4-3.3,14.2-4.4c0.1,0,0.2,0,0.3-0.1c4.8-1,9.7-1.3,14.5-0.4
				c0.3,0.1,0.6,0.1,0.9,0.2c0.1,0.1,0.3,0.1,0.5,0.1h0.1c0.1,0.1,0.3,0.2,0.5,0.2c0.3,0,0.7,0.1,1,0.1c3.2,0.9,6.3,2.4,9.1,4.1
				c3.3,2,6.3,4.4,9,7c2.6,2.5,5.1,5.2,7.7,7.7h2.6c-1.2-1.1-2.4-2.2-3.6-3.4c-3.3-3.2-6.3-6.5-9.9-9.4c-2.3-1.8-4.6-3.4-7.2-4.7
				c2.4,0.4,4.8,0.7,7.3,0.9c5.6,0.3,11.2-0.6,16.8-0.4c9.6,0.4,18.2,4.6,25.8,10.1c2.9,2.1,5.7,4.4,8.4,6.7c0.1,0,0.1,0.1,0.2,0.1
				h2.7c-6.4-5.4-12.9-10.9-20.6-14.5c-0.3-0.1-0.6-0.3-0.9-0.4c4.1,0,8.3-0.1,12.4-0.5c4.9-0.4,9.6-0.9,14.4,0
				c4.4,0.8,8.5,2.5,12.3,4.8c4.2,2.7,7.8,6.2,11.1,9.9c0.2,0.2,0.4,0.4,0.6,0.6H17c-0.4-0.5-0.8-0.9-1.2-1.4
				c-4.9-5.6-10.5-10.6-17.3-13.5c6.7-0.8,13-4.8,19.8-5.4c2.5-0.2,5.1-0.1,7.6,0.3c0.8,0.3,1.7,0.5,2.6,0.6c1.1,0.3,2.2,0.6,3.2,1
				c4.6,1.7,8.3,4.8,11.7,8.2c3.4,3.3,6.5,6.9,10,10.1H56c-2.9-2.6-5.5-5.5-8.2-8.2c-3.4-3.5-7-7.2-11.2-9.7
				c-0.9-0.6-1.9-1.1-2.9-1.5c2-0.2,3.9-0.5,5.9-0.8c3.2-0.5,6.5-0.8,9.7-0.9c3.5-0.1,6.8,0.4,10.1,1.4c0.1,0,0.2,0,0.3,0
				c4.1,2.1,8.7,3.1,13.3,3.5c1.5,0.1,3.2,0.4,4.9,0.4c2.1,1.4,3.5,3.6,4.5,6l0,0c0,0.1,0.1,0.2,0.1,0.3l0,0c0,0.1,0.1,0.2,0.1,0.3
				l0,0c0,0.1,0.1,0.2,0.1,0.3c0,0,0,0,0,0.1s0.1,0.2,0.1,0.3c0,0,0,0,0,0.1s0.1,0.2,0.1,0.3v0.1c0,0.1,0.1,0.2,0.1,0.2v0.1
				c0,0.1,0,0.1,0.1,0.2c0,0.1,0,0.1,0.1,0.2v0.1c0,0.1,0.1,0.2,0.1,0.3c0,0,0,0,0,0.1s0.1,0.2,0.1,0.3c0.5,1.8,0.9,3.7,1.3,5.5
				c0.1,0.4,0.1,0.7,0.2,1.1h1.8c-0.2-0.8-0.3-1.6-0.5-2.4c-0.9-4.6-2.2-10-5.7-13.5c3.1,0.1,5.7,2.8,7.6,5c2.5,2.9,4.8,6,7.1,9.1
				c0.4,0.6,0.9,1.2,1.3,1.7h2.1c-2.3-3.1-4.6-6.2-7-9.2c-1.9-2.5-4.3-5.5-7.2-7.1c2.1,0,4.2,0.2,6.2,0.8c3.6,1,6.5,3.3,9.3,5.7
				v-3.2c-0.2,0-0.4,0-0.6,0s-0.3-0.1-0.5-0.1c-0.1,0-0.2,0-0.3,0c-2.4-1.9-5-3.5-8.1-4.3c-0.2-0.1-0.5-0.1-0.7-0.2
				c-0.1,0-0.2,0-0.2,0c-0.2,0-0.3-0.1-0.5-0.1c-0.1,0-0.2,0-0.2,0c-0.2,0-0.3-0.1-0.5-0.1c-0.1,0-0.2,0-0.2,0c-0.2,0-0.3,0-0.5-0.1
				c-0.1,0-0.1,0-0.2,0c-0.2,0-0.4,0-0.5-0.1c-0.1,0-0.1,0-0.2,0c-0.2,0-0.4,0-0.6,0H86c-0.2,0-0.4,0-0.7,0l0,0c-0.2,0-0.5,0-0.7,0
				c0.9-0.5,1.8-1,2.7-1.4c1.2-0.5,2.5-0.9,3.7-1.3c3-1,6-2,9.1-2.6v-1.8c-2.8,0.6-5.6,1.4-8.4,2.3c-2.3,0.8-4.7,1.6-6.9,2.7
				c-2,1-4.1,2.4-6.4,2.2c-0.4,0-0.6,0.2-0.8,0.4h-0.1c-1.7,0-3.5-0.3-5.2-0.4c-4.5-0.4-9.1-1.7-13-3.9c-6.7-3.7-11.7-9.8-18.5-13.5
				c8.3-1.5,16.2,1.9,23.9,4.6c4.1,1.5,8.3,2.7,12.6,3.1c5.1,0.5,9.9-1,14.9-2.1c2.6-0.6,5.2-0.8,7.8-1v-1.8
				c-1.3,0.1-2.5,0.2-3.8,0.4c-5.1,0.5-9.9,2.5-15,2.8c-8.9,0.6-17.1-3.8-25.4-6.4c-5-1.5-10.2-2.3-15.4-1.3c2.2-2.1,5.2-3.5,8-4.5
				c3.5-1.3,7.2-2.2,11-2.8c1.5-0.3,3.1-0.5,4.7-0.7c0.3,0,0.7,0,1,0c0.2,0,0.3-0.1,0.4-0.1c7-0.9,14.2-0.9,20.7,1.7
				c2.7,1.1,5.2,2.8,7.6,4.4c2,1.4,4.1,2.7,6.2,4V299c-0.2-0.2-0.4-0.5-0.6-0.7c-1.2-1.4-2.2-2.8-3.3-4.2c-1.2-1.5-2.4-2.9-3.5-4.4
				c-3.6-5-5.1-11.2-7.3-16.9l0.1-0.1c5.6,5,9.1,12,14.6,17.2v-2.4c-5.2-5.4-8.7-12.3-14.6-17c5.1-0.3,10.4,1.4,14.6,4.4v-5.5
				c-1.4-3.3-2.3-6.8-3.2-10.3c-0.7-2.8-1.2-6.3-2.7-8.9c1,0.9,1.8,1.9,2.6,2.9c1.2,1.5,2.3,3.1,3.4,4.7v-3c-0.5-0.7-1-1.5-1.6-2.2
				c-0.9-1.2-2-2.6-3.1-3.6c1.6,0.2,3.2,0.7,4.7,1.4v-1.9c-2.1-0.9-4.4-1.4-6.8-1.3c-0.2,0-0.4,0.1-0.5,0.2c-0.1,0-0.2-0.1-0.3-0.1
				c-0.4-0.2-0.7,0-0.9,0.3c-0.4-0.1-0.7,0.1-0.9,0.4c-2-0.5-3.9-1.1-5.8-1.8c-2-0.8-3.8-2-5.5-3.2c-3.5-2.6-6.4-6-9-9.5
				c-2.8-3.7-5.4-7.4-7.5-11.6c-1.1-2.2-2.1-4.5-3.6-6.5c0.5,0.3,1,0.6,1.4,0.9c4.4,2.7,8.8,5.4,13.5,7.6c2.3,1.1,4.7,2,7.2,2.8
				c1.9,0.6,3.8,0.9,5.7,1.5c1,0.3,2,0.7,2.9,1.4c0,0.1,0.1,0.3,0.3,0.4c3.1,2.6,4.6,6.4,6,10.1c0.7,1.9,1.5,3.7,2.4,5.5
				c0.4,0.8,0.9,1.5,1.4,2.3v-3.4c-0.1-0.1-0.1-0.2-0.2-0.4c-2.2-4.5-3.4-9.8-6.7-13.6c1.3,0.6,2.4,1.4,3.5,2.3
				c0.1,0.1,0.1,0.1,0.2,0.1c1,1.3,2,2.6,3.2,3.7V234c-1.6-1.8-2.9-3.7-4.1-5.8c-3.6-6.5-4.9-14.7-10.4-19.9c2.3,0.4,4.8,1,6.3,2.7
				c0.1,0.1,0.1,0.1,0.2,0.2c2.2,3.8,4.9,7.2,8,10.3v-2.4c-2.5-2.6-4.7-5.5-6.5-8.6c-2.4-4-4-8.4-5.7-12.7c-1.9-5-3.8-10-6.5-14.7
				c2,2.1,3.7,4.4,5.3,6.8c2.6,3.8,4.5,8,7.3,11.7c1.8,2.5,3.9,4.8,6.1,7v-2.4c-1.5-1.6-3-3.3-4.3-5c-2.9-3.9-5-8.3-7.7-12.3
				c-1.9-2.9-4.1-5.7-6.6-8.1c6.2,2.7,12.3,6.2,16.5,11.4l0.1,0.1c0.2,0.4,0.5,0.8,0.8,1.2c0.4,0.6,0.8,1.1,1.3,1.6v-2.8
				c-0.3-0.4-0.5-0.8-0.8-1.2c-1.3-2.3-1.9-5.1-2.3-7.7c-0.7-4.5-1.1-9.1-3.4-13c0.1,0,0.1,0,0.2,0c0.3,0,0.5,0,0.7-0.1
				c2.4,1.5,3.2,4.8,3.9,7.3c0.6,2.2,1,4.5,1.7,6.6v-6.8c-0.1-0.4-0.2-0.9-0.3-1.3c-0.6-2.1-1.4-4.4-2.9-6c0.6,0.2,1.3,0.4,1.9,0.8
				l0,0c0.4,0.4,0.9,0.8,1.3,1.2v-2.7c-2.5-2.7-4.3-6-5.5-9.4c-1.5-4.2-2.3-8.7-3.6-13c1.1,1,2.1,2.2,3.1,3.4
				c1.6,1.9,3.3,3.6,5.1,5.2c0.3,0.3,0.6,0.5,0.9,0.8v-2.3c-1.4-1.3-2.8-2.6-4.1-4.1c-1.3-1.5-2.5-3.1-4-4.4
				c1.8,0.1,3.5,0.3,5.2,1.1c0.9,0.8,1.9,1.6,2.9,2.3v-2.1c-0.5-0.4-1-0.8-1.5-1.2c-0.1-0.1-0.2-0.2-0.3-0.3l0,0
				c-3.1-2.8-5.5-6.3-7.6-9.9c-1.9-3.4-3.5-7-4.9-10.7c-1.9-4.9-4.1-9.8-6.1-14.7c-0.2-0.4-0.3-0.8-0.5-1.2c0.8,1,1.6,2,2.4,3
				c1.5,1.9,3,3.8,4.3,5.8c2.5,3.8,4.1,8.1,6.8,11.8c2.1,2.9,4.6,5.3,7.4,7.3v-2.1c-1.1-0.9-2.2-1.8-3.3-2.8
				c-1.7-1.7-3.1-3.6-4.4-5.7c-1.5-2.4-2.5-4.9-3.9-7.4s-3.1-4.8-4.9-7c-1.3-1.6-2.5-3.4-4-5c4.2,0.2,8.2,1.9,11.7,4.3
				c2.7,3.4,5.2,7.2,8.5,10.1c0.1,0.1,0.2,0.2,0.3,0.3v-2.3c-1.3-1.2-2.4-2.6-3.5-3.9c-0.6-0.8-1.2-1.5-1.8-2.3
				c1.7,1,3.4,1.9,5.2,2.6v-1.9c-1.2-0.6-2.4-1.2-3.6-1.8c-2.1-1.2-4.1-2.4-5.9-4s-3.2-3.7-4.4-5.8c-1.2-2.1-2.5-4-4-5.9
				c-2.3-2.8-4.8-6.2-8-8.2c3.3-0.2,6.7,0.9,9.6,2.2c3.6,1.6,7.1,3.8,9.6,6.8c0.9,1.2,1.8,2.4,2.9,3.5c1.2,1.2,2.4,2.2,3.8,3v-2.1
				c-2.6-1.9-4.8-4.4-6.5-7.3c-1.6-2.6-2.8-5.4-3.9-8.3c0-0.1,0-0.3,0-0.5c0-0.1-0.1-0.3-0.1-0.4c1.8,2.5,3.9,4.7,6.5,6.4
				c1.3,0.8,2.6,1.6,4,2.2v-1.9C97,90,94.2,88,92,85.3c-1.3-1.6-2.4-3.4-3.4-5.2c-1.2-2.1-2.3-4.2-3.2-6.4
				C83,67.8,82.1,61.8,82,55.8c0-2.4,0.1-4.9,0-7.3c0-0.5-0.1-1-0.1-1.5c3.8,7,5.7,14.9,10,21.7c2,3.2,4.7,5.9,7.8,8.1
				c0,0.2,0.1,0.3,0.3,0.4l0.1,0.1V75c-2.1-1.6-4-3.4-5.6-5.6c-3-4.1-4.9-8.9-6.7-13.6c-1.7-4.3-3.4-8.5-5.9-12.4l0,0
				c3.7,1.4,6.4,4.8,8.8,7.9c0.1,0.1,0.2,0.2,0.3,0.2c1.7,3.4,3.8,6.5,6.8,9.1c0.8,0.7,1.6,1.3,2.4,1.9v-2.2c-2.9-2.2-5.2-5-6.9-8.3
				c-1.1-2.1-2.1-4.3-2.9-6.6c2.1,2.8,4.7,5.3,7.7,7.3c0.7,0.5,1.4,0.9,2.2,1.4v-2c-5.1-3.1-9.2-7.6-11.8-13
				c-2.4-5-3.2-10.4-3.6-15.8c-0.2-3.3-0.3-6.6-0.9-9.9c-0.2-0.9-0.3-2-0.6-3c0.5,0.7,0.9,1.4,1.3,2.1c1,1.6,1.7,3.4,2.5,5.1
				c2.2,4.6,4,9.4,6.4,14c1.8,3.4,3.9,6.6,6.5,9.4v-2.6c-3.6-4.4-6.1-9.5-8.4-14.7c-1.4-3.3-2.8-6.5-4.4-9.7
				c-0.8-1.7-1.8-3.6-3.1-5.1c1.7,0.7,3.3,1.6,4.8,2.6c2,1.3,3.9,2.9,5.5,4.7l0.1,0.1c0.7,0.9,1.4,1.8,2.1,2.7
				c1,1.2,2.1,2.2,3.3,3.2v-2.3c-0.7-0.6-1.3-1.3-1.9-1.9c-2.9-3.1-4.9-7.1-6.5-11.1C89.5,1.8,87.9-3.6,86.7-9H85
				c0.3,1.5,0.7,3,1.1,4.5C87.5,0.8,89.1,6.2,91.5,11.2z M7.6,11c0.1,0,0.1,0,0.1-0.1c4.1-0.4,8.2-1,12.3-0.8
				c4.7,0.2,9.1,1.6,13.4,3.4c4.2,1.8,8.2,4.1,12.1,6.5c1.8,1.1,3.6,2.2,5.3,3.5c0.5,0.4,1,0.7,1.5,1c-2.6-0.2-5.1-0.1-7.7,0.2
				c-2.7,0.2-5.5,0.7-8.1,1.4c-2.4,0.6-4.6,1.8-6.9,2.5c-0.4,0.1-0.8,0.2-1.1,0.3c-0.6,0-1.1,0-1.7,0c-0.2,0-0.3,0-0.5,0.1
				c-1.7-0.4-3.3-1.2-4.8-2c-1.9-0.9-3.8-1.7-5.7-2.4c-3.9-1.4-8-2.1-12.1-2.3c-4-0.2-8,0.1-12,0.6c-1.6,0.2-3.1,0.4-4.7,0.8
				c0.6-0.5,1.3-0.9,1.9-1.4C-5.2,18,0.8,13.6,7.6,11z M78.7,42.7c2.2,3.2,1.7,7.8,1.6,11.5c0,4.2,0.3,8.4,1.2,12.5
				c-0.3-0.5-0.6-0.9-1-1.3c-2.8-3.6-6.5-6.2-9.7-9.3c-3-3-5.4-6.7-8-10.1c-2.6-3.5-5.3-6.9-8.5-9.8c-3.5-3.2-7.6-5.4-12.3-6.4
				c-2.7-0.6-5.4-0.7-8.1-0.7c0.1-0.1,0.3-0.1,0.4-0.2c2.5-1,5-1.5,7.6-1.9c5-0.8,10.4-1,15.4,0.2c4.5,1.1,8.7,3.2,12.5,5.9
				c3,2.1,5.6,4.6,7.7,7.6c0,0.1,0.1,0.3,0.2,0.4c0.1,0.1,0.2,0.2,0.3,0.3c0.2,0.3,0.3,0.5,0.5,0.8C78.5,42.2,78.5,42.4,78.7,42.7z
				 M13.6,178.1c0,0.5,0.1,1,0.2,1.5c-0.8-0.3-1.7-0.4-2.5-0.5c-1.8-0.2-3.6,0-5.3,0.2c-4.2,0.5-8.3,1.8-12.2,3.2
				c-5.1,1.8-10.1,3.8-15.4,4.6c-0.3,0.1-0.7,0.1-1,0.1c-0.1,0-0.3,0-0.4,0s-0.1,0-0.2,0c-4.8,0.6-9.7,0.3-14.4-0.4
				c-1.6-0.2-3.2-0.5-4.8-0.9c-0.1,0-0.2-0.1-0.3-0.1c-4.7-1.2-8.6-4.2-12.6-6.8c-3.8-2.6-7.9-4.7-12.2-6.3
				c7.5-0.9,14.5-5.3,20.9-8.9c8.8-0.6,17.8-2,25.9-5.6c0,0,0.1,0,0.1-0.1c2.7,1.3,6.1,1.3,9,1.1c3.2-0.2,6.3-0.9,9.4-1.5
				c0.1,0.2,0.3,0.3,0.6,0.2c4.8-0.4,8,4.7,10.4,8.1c1.8,2.6,3.4,5.2,4.4,8.3c0.3,1.1,0.4,2.2,0.6,3.3
				C13.6,177.8,13.6,177.9,13.6,178.1z M-87,217.8c4.2,0.7,8.3,1.6,12.5,1.9c5.4,0.4,10.7-0.5,15.9-2c5-1.5,9.8-3.5,14.4-6.1
				c1-0.5,2-1.1,3-1.6c-2.5,2.8-4.9,5.8-8.2,7.7c-2.2,1.2-4.6,2.1-6.9,3.1c-2.3,1-4.6,2.2-7,3.2c-2.2,0.9-4.5,1.7-6.8,2.4
				c-1.6,0.5-3.1,0.8-4.7,1.2c-0.5,0.1-1.1,0.2-1.6,0.4c-0.4,0.1-0.8,0.2-1.1,0.3c-2.5,0.6-4.9,1.4-7.2,2.4
				c-2.4,1.1-4.6,2.6-6.7,4.2c-4.6,3.2-9,6.6-13.8,9.6c-3.9,0.8-7.8,1.9-11.7,3.1c3.4-2.3,6.4-5.1,9-8.2c5.6-6.4,9.3-14.5,15.9-19.9
				C-90.3,218.8-88.6,218.3-87,217.8z M-96.1,212.7c1.8-0.8,3.7-1.6,5.5-2.4c4.4-1.8,8.8-3.7,13.4-4.7c0.2,0,0.3-0.1,0.4-0.2
				c4.4,1.8,9.1,3.2,13.8,3.9c5.2,0.8,10.4,0.7,15.6,0c1.9-0.3,3.8-0.6,5.6-1.1c-0.8,0.4-1.5,0.8-2.3,1.2c-2.2,1.2-4.3,2.5-6.6,3.4
				c-2.5,1-5,1.9-7.5,2.8c-5.1,1.6-10.3,2.6-15.7,2.3c-4.4-0.2-8.7-1.1-13-1.9c-0.1,0-0.2-0.1-0.3-0.1c-0.7-0.1-1.4-0.2-2.1-0.4l0,0
				C-91.4,214.2-93.7,213.2-96.1,212.7z M-33.7,220.1c4.8,1.9,8.9,5,13.3,7.7c2.2,1.3,4.4,2.4,6.7,3.4c2.5,1.1,5,2.2,7.5,3.1
				c3.4,1.3,6.8,2.2,10.4,2.7c-3,0.5-5.9,1.3-8.9,1.7c-2.7,0.4-5.5,0.4-8.3,0.4c-2.7-0.1-5.4-0.2-8-0.6c-4.4-0.7-8.5-2.7-12.4-4.7
				c-4-2.1-8-4.3-12.3-5.8c-3.7-1.3-7.3-1.7-11.2-1.5c-3,0.1-6.1,0.5-9.1,0.5c1.1-0.4,2.2-0.8,3.3-1.3c2.3-1,4.5-2.1,6.8-3.1
				c2.3-1.1,4.7-1.9,6.9-3.1c0.8-0.4,1.5-0.8,2.1-1.3C-42.4,217.8-37.9,218.4-33.7,220.1z M-105,246c0.1,0,0.3,0,0.5-0.1
				c4.6-0.9,9.2-1.4,13.9-1.3c5.6,0.2,10.8,1.7,16,3.8c5.2,2.2,10.5,4.5,15.6,6.9c5.2,2.4,10.2,5.1,15.6,6.9
				c0.7,0.2,1.5,0.5,2.3,0.7c-0.3,0-0.6,0-0.9,0c-4.7,0.1-9.4,0.8-14.1,1.5c-4.6,0.7-9.3,1.4-13.9,1.6c-2.3,0.1-4.5-0.1-6.7-0.7
				s-4.1-1.9-6.2-2.7c-0.1,0-0.2-0.1-0.4,0c-0.7-0.6-1.4-1.1-2.1-1.7c-3.5-2.7-7.3-4.9-11.3-6.7c-7.5-3.3-15.5-4.5-23.5-4
				C-115.3,248.6-110.2,247-105,246z M-77.6,266.9c2.1,0.7,4.4,0.9,6.6,0.9c4.7,0,9.4-0.7,14-1.4c4.9-0.7,9.7-1.5,14.6-1.7
				c4.9-0.1,9.8,0,14.7,0c0.1,0,0.1,0,0.2,0s0.1,0,0.2,0c7.7,0,14.4,3.5,20.9,7.5c3,1.8,5.9,3.7,9,5.3c1.5,0.7,3,1.3,4.7,1.7
				c0,0,0,0,0,0.1c-3.9,0.5-7.7,2-11.4,3.1c-4.8,1.4-9.7,2.5-14.6,2.8c-5.4,0.4-10.9-0.2-16.2-0.7c-5.5-0.5-11-1-16.6-0.7
				c-0.2-0.4-0.7-0.7-1.2-0.4c-1.5,0.9-3.5,0.2-4.9-0.4c-1.5-0.7-2.9-1.5-4.2-2.5c-0.9-0.9-1.7-1.8-2.6-2.7
				c-1.3-1.3-2.6-2.2-4.1-3.2c-2.1-1.3-4.1-2.8-6-4.3c-1.6-1.3-3.2-2.7-4.7-4.1C-78.8,266.4-78.3,266.6-77.6,266.9z M-28,262.3
				c-0.1-0.1-0.3-0.1-0.5,0c-4.5,0.9-9.2-0.1-13.5-1.4c-4.6-1.4-8.9-3.6-13.2-5.6c-5.1-2.4-10.3-4.7-15.5-6.9
				c-2.6-1.1-5.1-2.2-7.7-3.2c-2.6-0.9-5.3-1.5-8-1.9c-4.9-0.7-9.7-0.5-14.6,0.2c3.3-2.3,6.5-4.6,9.8-7c2.2-1.5,4.3-3.1,6.7-4.3
				c2.3-1.1,4.8-1.8,7.2-2.4c0.2,0,0.4,0,0.5-0.1s0.3-0.1,0.4-0.2c0.7-0.2,1.5-0.3,2.2-0.5c3.3-0.3,6.9,0.8,9.8,2
				c4.5,1.8,8.7,4.6,12.6,7.4c4.1,2.9,8,6,12.1,8.9c3.5,2.4,7.3,4.3,11.2,5.9c3.6,1.5,7.6,2.7,11.6,3.2c-2.3,1-4.5,2.2-6.8,3.1
				C-25.1,260.2-26.8,260.9-28,262.3z M-24.2,252.9c-4.2-1.4-8.3-3.2-12-5.5c-4-2.4-7.7-5.5-11.5-8.3c-4.2-3.1-8.5-5.9-13.1-8.4
				c-1.7-0.9-3.4-1.6-5.3-2.2c4,0,8-0.5,11.9-0.5c4.8,0.1,9.2,1.8,13.5,3.9c4,2,7.9,4.2,12.1,6c2,0.9,4.1,1.5,6.3,2
				c2.5,0.5,5.1,0.6,7.6,0.8c4.3,0.2,8.6,0,12.9-0.8c3.8-0.7,7.5-1.7,11.4-1.9c2.9,0.7,5.6,1.8,8.2,3.1c2.5,1.3,5.2,2.8,7.4,4.6
				c2,1.6,3.9,3.5,5.9,5.1c-3.6-1.2-7.7-0.6-11.3,0.3c-2.2,0.6-4.3,1.3-6.5,2c-2.4,0.8-4.8,1.2-7.4,1.2c-5.2,0.2-10.4-0.8-15.6-0.1
				c-0.9,0.1-1.8,0.3-2.6,0.5C-16.3,255-20.3,254.1-24.2,252.9z M9.5,235.6c-2.6,0-5.2-0.2-7.8-0.7c-2.7-0.5-5.2-1.4-7.8-2.4
				c-5-1.9-10-4-14.5-6.8c-4.2-2.7-8.2-5.5-12.9-7.3c-3.6-1.4-7.4-2.1-11.3-2c2.5-2.3,4.6-5.1,7-7.6c0.1-0.1,0.2-0.2,0.2-0.4
				c0.1,0,0.2-0.1,0.3-0.1c2.3-0.8,4.7-1.6,6.9-2.8c0.3-0.1,0.5-0.3,0.8-0.4c0.1-0.1,0.2-0.1,0.2-0.2c0.1,0,0.2-0.1,0.3-0.1
				c3.4-0.4,6.9,1.3,9.8,2.9c4.1,2.2,8,4.7,11.6,7.5c4,3.1,7.9,6.4,12,9.4c3.9,2.9,8,5.7,12.5,7.4c0.2,0.1,0.3,0.1,0.5,0.2
				C14.6,232.7,11.8,233.8,9.5,235.6z M-29.6,203c-0.7,0.1-1.3,0.3-2,0.6c-0.1,0-0.2,0.1-0.2,0.1c-1.8,0.6-3.5,1.1-5.3,1.6
				c-5,1.4-10.2,2.5-15.4,2.8c-5.3,0.3-10.5-0.3-15.5-1.7c-2.4-0.6-4.8-1.4-7.2-2.3c-0.1-0.1-0.2-0.2-0.3-0.3c-1.7-0.8-3.3-2-5-2.8
				c3.4-0.8,6.7-1.9,10-3.4c4.7-2,9.2-4.5,13.9-6.5c2.1-0.9,4.2-1.6,6.2-2.4c1.9-0.7,4-1.4,6-1.1c0.3,0.1,0.6,0.2,0.9,0.3
				c0.3,0.1,0.6,0,0.8-0.2c4.4,0.9,8.9,1.5,13.4,1.6c2.1,0,4.1-0.1,6.1-0.3c0,0,0.1,0,0.2,0c7.1-0.7,10.2,6.6,15.1,10.4
				c-4.6,0.6-9.2,0.9-13.7,1.6C-24.4,201.5-27,202.2-29.6,203z M-84.4,200.1c-4,0.7-8,1.3-12.1,1.2c-2.8,0-5.7-0.4-8.2-1.7l-0.1-0.1
				c-3.6-2.5-7.4-5-11.4-6.9c4.1,0.2,8.3,0,12.4-0.4c5.4-0.6,10.7-1.7,15.9-3.1c5.3-1.4,10.5-3,15.9-4.1c4.8-1,10-1.7,14.9-0.9
				c2.9,0.4,5.7,1.3,8.5,2.2c-0.7,0.2-1.4,0.4-2,0.6c-2.4,0.9-4.7,1.8-7,2.7c-4.7,2-9.2,4.4-13.8,6.4
				C-75.7,198-79.9,199.2-84.4,200.1z M-72.8,171.1c-8.5-2.3-17.3-2.7-26-1.4c-6.2,1-12.2,2.7-18.1,4.6c-2.7,0.9-5.3,2.1-7.9,3.3
				c-0.3,0.1-0.6,0.3-0.9,0.4c2.5-2.1,4.5-4.8,5.8-7.8c2.6-5.7,3.6-13.2,9.4-16.5c0.2,0.1,0.4,0.1,0.7-0.1c0.4-0.3,0.9-0.6,1.3-0.8
				c0.7-0.2,1.4-0.4,2.1-0.6c0.4-0.1,0.9-0.2,1.3-0.4c2.2-0.3,4.6-0.2,6.6-0.1c2.1,0,4.1,0,6.2,0.2c2.5,0.3,4.9,0.8,7.2,1.6
				c4.8,1.4,9.4,3.5,14.1,5.4s9.3,3.5,14.3,4.4c2.1,0.4,4.3,0.7,6.5,0.7C-57.2,168-64.9,172.2-72.8,171.1z M-46.2,162.1
				c-0.2-0.1-0.3-0.1-0.5-0.1c-0.1,0-0.1,0-0.2,0c-2.6,0.4-5.2,0.3-7.8-0.1c-2.5-0.4-5.1-0.9-7.5-1.6c-4.8-1.4-9.3-3.5-13.9-5.3
				c-4.6-1.9-9.3-3.6-14.2-4.5c-1.5-0.2-2.9-0.3-4.4-0.4c7.3-1.5,14.2-4.6,21.2-7.2c4.4-1.6,8.9-3,13.6-3.6c4.9-0.6,10.1-0.5,15,0.5
				c2,0.4,3.9,1,5.8,1.7c1.5,1.1,3.2,2.1,4.8,3.2c1.7,1.2,3.2,2.6,4.6,4.1c2.5,2.8,4.8,5.8,7.6,8.2
				C-29.8,160.3-38.1,161.5-46.2,162.1z M-67.6,139.2c-9.1,2.5-17.5,7-26.7,9.1c-1.6,0.4-3.2,0.6-4.8,0.8c1.2-0.8,2.3-1.6,3.4-2.5
				c1.8-1.5,3-3.6,4.2-5.6s2.4-4.1,4.4-5.3c0.1,0,0.1-0.1,0.2-0.2c1-0.7,1.9-1.4,2.8-2c1.9-1.4,3.9-2.7,6.1-3.4
				c3.5-1.1,7.2-1.7,10.9-1.9c1.7-0.1,3.6-0.2,5.3,0.1c1.2,0.2,2.5,0.6,3.7,0.6c2.5,1.4,5.8,1.3,8.6,1c0.4,0,0.9-0.1,1.3-0.1
				c0.1,0,0.1,0.1,0.2,0.1c4.3,1.7,6.3,6,8.7,9.8C-48.4,136.5-58.5,136.6-67.6,139.2z M-44.8,129.1c1.9-0.4,3.8-0.8,5.6-1.3
				c8.7-2.2,15.8-8.2,23.6-12.3c5.9-3.1,12.4-4.5,19-4.6c0.1,0,0.1,0.1,0.2,0.1c4.4,1.5,9.1,2.2,13.8,1.9c-2.2,1.7-3.9,4-5.5,6l0,0
				l0,0c-4.4,2.8-8.3,6.4-12.7,9.2c-4.1,2.5-8.5,4.5-13.1,5.8c-8.9,2.5-18.5,2-26.8-2.3C-42.1,130.9-43.5,130.1-44.8,129.1z
				 M-10.8,111.6c-4.2,1.5-8,3.7-11.8,6.1c-3.8,2.3-7.5,4.7-11.6,6.6c-3.5,1.6-7.3,2.4-11,3.2c-2.3,0.5-4.7,0.8-7,0.8
				c-1.4,0-2.9-0.1-4.2-0.6c0-0.1,0-0.1-0.1-0.2c-0.1-0.2-0.2-0.3-0.4-0.4c-1.2-1.1-2.7-1.7-4.1-2.4c-1.8-0.8-3.7-1.4-5.6-2.1
				c-2.7-0.9-5.4-1.9-8.2-2.5c1-0.3,2-0.6,2.9-1c2.2-0.9,4.4-2.1,6.6-3.1c4.2-2.1,8.4-4.4,11.8-7.8c3.1-3.2,6.5-6.2,10.2-8.6
				c0.2,0.3,0.6,0.4,1,0.1c4-2.4,8.8-2.6,13.3-2.2c3.9,0.3,7.6,1.3,11.4,2c3.3,1,6.2,3.2,9,5.2c2.7,1.9,5.4,3.5,8.4,4.9
				C-3.9,109.7-7.4,110.4-10.8,111.6z M-102.3,90.9c1.3-0.3,2.8-0.4,4.1-0.2c0.2,0,0.3,0,0.4-0.1c5.9,0.6,11.9-0.1,17.6-2.2
				c3.8-1.4,7.3-3.4,10.6-5.7c0,0,0,0.1-0.1,0.1c-0.4,0.5-0.8,1.1-1,1.7c-0.1,0.2-0.1,0.3,0,0.4c-1,1.8-2.1,3.6-3.4,5.3
				c-1.6,2.2-3.2,4.3-5,6.4c-1.4,1.7-3,3-4.7,4.3s-3.4,2.5-5,3.9c-1.7,1.5-3,3.3-3.9,5.4c-1,2.3-1.6,4.8-2.3,7.2
				c-0.7,2.5-1.7,4.5-3.3,6.6c-0.7,0.9-1.4,1.9-2.1,2.8c-0.1,0.1-0.1,0.3-0.2,0.4c-1.4,1.3-2.6,2.9-4,4.3c-3.2,3.4-7.8,5.1-12.3,5.9
				c-3.7,0.7-7.5,0.6-11.2,0.4c3-1.7,5.4-4.2,7.3-7c2.1-3.2,3.5-6.7,4.8-10.2c1.7-4.5,3.3-8.9,5-13.4c2.1-5.6,4.5-11.1,7.8-16
				L-102.3,90.9z M-106.8,86.9c-0.3-0.1-0.5,0-0.7,0.1c-2-0.7-4.1-1-6.2-1.1c-1.3-0.1-2.7,0-4.1,0.1c5.3-3.9,10.3-8.3,15.1-12.8
				c2.9-2.7,6-5.4,9.4-7.4c3.9-2.3,8.4-3.7,12.9-3.7c8.4,2.6,17.6,2.3,26.1,0.3c1.6-0.4,3.2-0.9,4.8-1.5c-1.3,1.2-2.5,2.5-3.6,3.9
				c-3.4,3.9-7,7.6-10.8,11c-0.7,0.6-1.4,1.2-2.1,1.8c-0.2,0-0.4,0.1-0.6,0.3c-0.2,0.2-0.4,0.5-0.6,0.8c-2.7,2.2-5.6,4.3-8.8,6
				c-4,2.1-8.5,3.6-13,4.2C-95,89.7-101.1,88.8-106.8,86.9z M-94.7,121.9c1.2-2.2,1.7-4.8,2.4-7.1c0.7-2.4,1.6-4.8,3.1-6.7
				c1.3-1.7,3-3,4.8-4.3c1.7-1.2,3.4-2.5,5-3.9c1.8-1.6,3.2-3.7,4.7-5.6c1.6-2.1,3.2-4.3,4.6-6.5c0.8-1.3,1.4-2.6,2.1-4
				c0.6-0.6,1.3-1,2-1.4c1.5-0.8,3.1-1.3,4.7-1.7c3.3-0.8,6.8-1.2,10.2-1.3c11-0.5,21.9,2.2,32.8,2.6c2.9,0.1,5.7,0,8.6-0.5
				c2.3-0.4,4.4-1.1,6.5-2c-2.6,2.4-5.5,4.6-8.5,6.4c-4.5,2.7-9.6,4-14.6,5.4c-4.9,1.3-10,2.5-14.5,4.8c-4.3,2.2-8,5.2-11.4,8.5
				c-1.8,1.8-3.5,3.6-5.6,5.2c-2,1.5-4.1,2.6-6.3,3.8c-2.2,1.2-4.5,2.2-6.8,3.3c-2.4,1.2-4.9,2.1-7.6,2.1c-0.4,0-0.6,0.2-0.7,0.4
				c-4.8-0.4-9.3,1.1-13.6,3.1c-1,0.5-2,1-3,1.6C-95.6,123.4-95.1,122.7-94.7,121.9z M-17.2,97.7c-1-0.3-2-0.5-3.1-0.6
				c-0.1,0-0.2,0-0.2,0c-1.9-0.4-3.7-0.8-5.6-1.1c-2.9-0.4-6-0.7-9-0.4c2.3-0.8,4.7-1.4,7-2.1c5.4-1.5,11-2.8,16-5.5
				c2.9-1.6,5.6-3.5,8.1-5.7c0.2,0.1,0.5,0.2,0.8-0.1c3.8-2.9,8.3-4.2,13.1-3.8c2.4,0.2,4.7,0.9,6.9,1.9c2.4,1.1,4.8,2.1,7.1,3.3
				c2.3,1.2,4.5,2.5,6.5,4.1c1.9,1.5,3.7,3.3,5.4,5c1.9,1.9,4,3.7,6.2,5.2c-1.7-0.2-3.4-0.2-4.9-0.3c-1.9-0.1-3.9-0.3-5.7-0.8
				c-2.5-0.7-5-1.7-7.6-2.4c-5-1.5-10.2-2.5-15.4-1.8C3.3,93.3-1.2,96-6.2,97.3c-3.2,0.9-6.5,1-9.8,0.6
				C-16.4,97.9-16.8,97.8-17.2,97.7z M-7.6,79.2c-2.5,0.7-5.1,1-7.7,1.1c-5.2,0.2-10.5-0.5-15.7-1.1c-5.6-0.6-11.2-1.5-16.8-1.5
				c-4.5-0.1-9.2,0.4-13.6,1.4c-1.5,0.3-3.3,0.8-4.9,1.5c0.1-0.2,0.2-0.4,0.4-0.6c3.5-2.8,6.7-5.9,9.8-9.1c2.3-2.3,4.3-4.9,6.5-7.3
				c1.2-1.3,2.5-2.5,3.9-3.5c7.4-1.8,14.6,2,21.1,5.5c3.6,2,7.2,3.9,11,5.4c4.3,1.6,8.7,2.1,13.3,1.7c2.7-0.2,5.2-0.8,7.8-1.6
				c-2.6,1.6-5.1,3.3-7.7,4.8C-2.7,77.3-5.1,78.4-7.6,79.2z M-5.5,71.1c-8.3-0.5-15.4-5.7-22.7-9.3c-4.3-2.1-8.9-3.9-13.6-3.9
				c0.4-0.2,0.8-0.3,1.2-0.5c4.4-1.8,8.9-3.4,13.6-4.5c3.7-0.9,7.4-1.5,11.2-1.6c2,0,4,0,5.9,0.2c1.1,0.1,2.1,0.3,3.2,0.4
				c0.9,0.2,1.8,0.5,2.7,0.5c0.3,0,0.5-0.1,0.6-0.3l0,0c0.1,0.1,0.2,0.2,0.3,0.2c2.4,2.4,4.8,4.9,7.4,7.1c3.2,2.7,6.9,4.7,11,5.6
				c0.9,0.2,1.9,0.3,2.8,0.4c-2.7,0.8-5.3,1.9-7.9,2.8C5.2,70.2,0,71.4-5.5,71.1z M-7.2,50.3c-1.3-0.2-2.6-0.4-3.9-0.5
				c-2.4-0.2-4.9-0.2-7.3,0c-4.7,0.3-9.2,1.4-13.7,2.8c-4.7,1.5-9.2,3.3-13.7,5.1c-4.4,1.8-8.8,3.2-13.6,4c-6.7,1-13.9,0.8-20.4-1.2
				c-1.4-1.1-3-1.8-4.7-2.5c-2.1-0.8-4.2-1.5-6.4-2c-2.1-0.5-4.2-0.8-6.4-0.9c-0.7,0-1.4-0.1-2-0.1c0.8-0.4,1.6-0.7,2.4-1.1
				c0.1,0,0.2-0.1,0.2-0.1c2.2-0.8,4.4-1.8,6.4-2.9c1.9-1,3.7-2,5.4-3.2c1.6-1,3.3-1.8,5.1-2.5c1.6,0.2,3.2,0.5,4.8,0.7
				c0.2,0,0.4,0,0.6-0.1c1.7,0.3,3.5,0.3,5.2,0.3c4.1-0.1,8.2-0.9,12.3-1.6c4.9-0.8,9.6-1.9,14.2-3.6c1.1-0.4,2.2-0.8,3.2-1.3
				c0.1,0,0.2,0,0.3,0c6.4-0.4,13,0.8,19.1,2.8c5.4,1.8,10.8,4.3,15,8.1C-5.7,50.6-6.5,50.4-7.2,50.3z M-86.2,46.6
				c-2.1,1.4-4.3,2.6-6.5,3.7c-4.5,2.2-9.4,3.8-14.4,4.4c-5.1,0.6-10.1-0.1-15.1-1.6c-4.9-1.5-9.6-3.7-14.2-5.9
				c-1.7-0.8-3.5-1.6-5.2-2.4c-0.8-0.4-1.6-0.7-2.5-1.1c-0.1,0-0.2-0.1-0.2-0.1c-0.1-0.1-0.2-0.2-0.3-0.2c-3.6-1.2-7-2.7-10.8-2.9
				c-3-0.2-5.9,0.3-8.7,1.2c2.3-2,4.5-4,6.8-6.1c3.5-3.2,7.3-6.1,11.6-8.1c0.1,0,0.3-0.1,0.4-0.2c0.3-0.1,0.4-0.4,0.4-0.6
				c7.9-3.2,16.5-5.1,25-2.8c8,2.1,14.6,7.6,21.2,12.4c2.7,2,5.4,3.9,8.3,5.5c1.5,0.8,3,1.6,4.6,2.3c0.9,0.4,1.9,0.6,2.8,0.8
				C-84.2,45.4-85.2,46-86.2,46.6z M-144.5,45.5c0.2,0.1,0.4,0.2,0.6,0.3c1.2,0.5,2.4,1.1,3.5,1.6c2.3,1.1,4.6,2.2,6.9,3.2
				c4.6,2.1,9.3,4,14.3,5.2c4.6,1.1,9.3,1.1,13.9,0.4c-2.1,1.1-4.3,2.3-6.4,3.5c-4.3,2.4-9.2,3.8-14,4.6c-1.3,0.2-2.6,0.4-3.8,0.5
				c-0.2-0.1-0.4-0.2-0.7-0.1c-0.2,0.1-0.3,0.1-0.5,0.2c-2.9,0.2-5.8,0.2-8.7,0.3c-4.4,0.1-8.8,0.2-13.2,0.7
				c-6.9,0.7-13.7,2.3-19.6,5.7c4.5-5.7,8.3-11.8,13.4-17c3.9-4,8.6-7.2,14.1-8.7C-144.7,45.6-144.6,45.6-144.5,45.5z M-153.5,67.5
				c4.4-0.5,8.8-0.7,13.2-0.7c1.9,0,3.7-0.1,5.6-0.1c-0.6,0.4-1.2,0.7-1.8,1.1c-2.1,1.4-4.3,2.6-6.5,3.9c-2.4,1.3-4.8,2.6-7.2,4.1
				c-2.2,1.4-4.4,3-6.5,4.6c-4.1,3.2-8.1,6.7-12.7,9.2c-4.1,2.2-8.6,3.6-13.1,4.5c-0.2,0-0.4,0-0.6,0c-0.2,0-0.4,0.1-0.5,0.2
				c-5.4,1-10.9,0.6-16.3-0.3c-2-0.3-3.9-0.8-5.9-1.3c4.5-0.7,8.8-2.1,13-4.1c5.7-2.8,10.9-6.6,15.4-11.1c0.1,0,0.2-0.1,0.3-0.2
				C-170.7,71.1-162.1,68.5-153.5,67.5z M-169.4,91.4c4.7-2.3,8.6-5.7,12.6-8.9c4.3-3.4,8.9-6.3,13.7-8.9c2.3-1.2,4.5-2.5,6.7-3.9
				c1.9-1.2,3.9-2.5,6.1-3.3c1.2-0.1,2.4-0.2,3.6-0.4c0.4,0,0.7-0.1,1.1-0.2c-2.6,2.1-4.8,4.8-6.7,7.5c-2.9,4-5.5,8.3-8.6,12.1
				c-3,3.8-6.5,7.3-10.9,9.5c-4.2,2-8.9,2.5-13.4,2c-4.1-0.5-8-1.9-12-2.6C-174.6,93.6-171.9,92.6-169.4,91.4z M-133.6,78.3
				c3.3-4.9,6.6-10.3,12.1-13c0.2-0.1,0.3-0.2,0.3-0.3c3.1-0.8,6.2-1.8,9-3.2c3-1.5,5.9-3.1,8.8-4.7c1.9-0.4,3.8-0.3,5.7-0.2
				c2,0.1,4,0.4,6,0.8c2,0.4,4,1,5.9,1.8c0.9,0.3,1.9,0.7,2.8,1.2c-3.9,0.4-7.8,1.8-11.2,3.8c-3.8,2.2-7.2,5.2-10.4,8.2
				c-7.4,6.9-15.1,13.5-24.1,18.2c-4,2.1-8.3,3.7-12.7,4.8c-0.5,0.1-1,0.2-1.5,0.3c-0.2-0.1-0.4-0.1-0.6,0c-0.2,0.1-0.4,0.1-0.5,0.2
				c-2.5,0.5-5.1,0.7-7.7,0.7C-143.6,93.2-138.3,85.3-133.6,78.3z M-143.3,97.8c0.9-0.2,1.9-0.4,2.8-0.6c4.9-1.2,9.7-3.2,14.2-5.6
				c0.8-0.5,1.7-0.9,2.5-1.4c0.2,0,0.4-0.1,0.6-0.2c2.6-2.1,6.4-2.4,9.6-2.3c2.6,0.1,5.5,0.6,7.9,1.9c-4,1.4-7.9,3-11.7,5
				c-4.1,2.2-7.9,4.8-11.4,7.8c-3.9,3.3-8.3,6.2-12.7,8.7c-4.2,2.5-8.5,4.7-13.2,5.8c-6.2,1.5-12.8,1.4-18.7-1.1
				c-2.8-1.1-5.2-3.1-7.5-4.9c-0.9-0.7-1.9-1.4-2.8-2c5.2,0.8,10.5,0.7,15.7-0.3c4.5-0.8,9.1-2.2,13.3-4.2
				C-150.8,102.7-147.4,99.5-143.3,97.8z M-146.9,116.1c3.1-1.4,6.1-3.2,8.9-5c3-1.8,5.8-3.8,8.6-5.9c2.7-2.1,5.2-4.3,8-6.2
				c4.1-2.7,8.4-4.8,13-6.5c-1.7,1.6-3.2,3.5-4.6,5.5c-2.6,3.8-4.6,7.9-7,11.7c-2.7,4.2-5.8,8.2-9.8,11.1c-3.9,2.8-8.4,4.6-13,5.8
				c-4.8,1.3-9.5,1.7-14.5,1.8c-2.3,0-4.5,0-6.8,0.1c-0.1,0-0.3,0-0.4,0c1.2-0.3,2.4-0.7,3.6-1.2
				C-155.2,124.9-151.1,120.5-146.9,116.1z M-147.7,129.3c2.5-0.4,5-0.9,7.5-1.7c4.5-1.4,8.8-3.4,12.5-6.3c3.9-3,6.9-7.1,9.5-11.3
				c2.3-3.6,4.2-7.4,6.6-11c1.6-2.4,3.4-4.8,5.8-6.5c-4.6,7.5-7.1,15.9-10.2,24.1c-2.7,7-5.1,14.7-11.5,19.1
				c-3.6,2.4-8.6,4.3-13,3.2c-2.3-1.8-4.8-3.4-7.4-4.6c-1.7-0.8-3.6-1.6-5.6-1.8c1.8-1.2,3.6-2.5,5.6-3.1
				C-147.9,129.4-147.8,129.3-147.7,129.3z M-116.3,139.3c4.6-0.8,9.3-2.7,12.7-6c1.7-1.7,3.2-3.6,5-5.2c1.9-1.7,4.2-2.9,6.4-4.1
				c2.3-1.1,4.7-2,7.2-2.6c2.3-0.6,4.7-0.5,7.1-0.1c3.8,0.5,7.4,1.9,11.1,3.1c1.7,0.6,3.3,1.2,5,1.8c0.2,0.1,0.5,0.2,0.7,0.3
				c-0.8-0.1-1.5-0.2-2.3-0.2c-2.5-0.1-5.1,0.1-7.6,0.5c-2.5,0.3-5,0.9-7.4,1.5c-2.2,0.6-4.2,1.9-6.1,3.2c-2,1.4-4,2.9-6.1,4.2
				c-2.2,1.3-4.5,2.5-6.9,3.7c-4.7,2.3-9.4,4-14.6,4.7c-2.2,0.3-4.5,0.4-6.8,0.1c-0.2-0.1-0.3-0.1-0.5-0.1c-0.8-0.1-1.6-0.3-2.4-0.5
				c-0.9-0.2-1.8-0.6-2.6-1c-1.4-0.9-2.9-1.9-4.4-2.6c-0.3-0.2-0.5-0.4-0.8-0.6C-125.2,139.9-120.7,140.1-116.3,139.3z
				 M-121.3,146.7c0.2-0.1,0.4-0.2,0.5-0.3c0.6,0,1.2-0.1,1.7-0.4l0,0c4.9,0.6,10.2-0.3,14.9-1.8c4.2-1.3,8.2-3.3,12-5.5
				c-1,1.6-1.8,3.2-2.9,4.7c-1.3,1.8-3.2,3.1-5,4.3s-3.8,2-5.9,2.7c-1.2,0.2-2.5,0.5-3.6,1.1c-0.8,0.3-1.6,0.6-2.3,1.1
				c-1.4,0.9-2.6,2-3.6,3.4c-2,2.7-3.1,6-4.2,9.2c-0.7,1.9-1.4,3.9-2.3,5.7c-1.1,2.1-2.6,4.1-4.4,5.7c-1.8,1.6-4,2.8-6.3,3.5
				c-0.1,0-0.2,0-0.2,0c-0.2,0-0.4,0.1-0.6,0.2c-1.8,0.5-3.7,0.6-5.6,0.8c1.6-1.7,3-3.7,4.2-5.7c2.8-4.9,4.5-10.4,6-15.8
				c0.8-2.7,1.6-5.4,2.9-7.8C-125.1,149.5-123.6,147.3-121.3,146.7z M-127.7,151c-1.5,3-2.4,6.3-3.3,9.6c-1.9,6.6-4.3,13.4-8.9,18.7
				c-4.6,5.3-11.3,8.3-17.8,10.7c-6.4,2.4-13.1,3.9-19.9,4.8c4.4-2.3,8.5-5.4,11.9-9c4.4-4.6,6.9-11,12.3-14.6
				c0.2-0.1,0.3-0.3,0.4-0.5c0.7-0.5,1.4-1,2-1.5c3.3-2.6,6.4-5.4,9.4-8.4s5.9-6.1,9.2-8.8c2.1-1.7,4.4-3.3,6.9-4.3
				C-126.5,148.6-127.2,149.8-127.7,151z M-133.6,181.8c0.4-0.1,0.8-0.2,1.2-0.3c4.5-0.2,8.7-2.6,12.8-4.4c2.3-1,4.8-1.7,7.2-2.4
				c2.5-0.8,5.1-1.5,7.6-2.1c5.1-1.2,10.3-2,15.6-2c4.8,0,9.6,0.6,14.3,1.7c0.1,0.1,0.2,0.2,0.4,0.2c0.4,0.1,0.8,0.2,1.2,0.2
				c5.4,1.5,10.7,3.7,15.4,6.7c2,1.3,4,2.7,6.1,4.1c-1.9-0.5-3.8-1-5.7-1.2c-5.3-0.7-10.8,0.2-16,1.3c-5.4,1.1-10.6,2.7-15.9,4.1
				c-5.3,1.4-10.7,2.4-16.1,2.9c-4.2,0.4-8.4,0.4-12.5,0.2c-1.3-0.1-2.5-0.2-3.8-0.4c-1.4-0.4-2.8-0.8-4.3-1c-0.5-0.2-1-0.5-1.5-0.8
				c-0.3-0.2-0.5-0.2-0.8-0.2c-3.8-1.9-7.2-4.7-11.2-5.7C-137.6,182.3-135.6,182.2-133.6,181.8z M-126.2,191.2
				C-126.1,191.2-126.1,191.2-126.2,191.2c1.4,0.5,2.8,0.8,4.2,0.9c5.2,1.7,10,4.6,14.6,7.7c-4.8,0.7-9.7,0.9-14.4,1.7
				c-5.2,0.9-10,2.9-14.7,5.3c-4.5,2.4-8.8,5.2-13.4,7.3c-4.6,2-9.5,3.4-14.5,4.2c-6.1,1-12.7,1.1-18.7-0.2
				c-3.1-0.7-6.1-1.9-9.2-2.8c9.5-0.7,18.8-4.2,27.3-8.2c6.2-2.9,11.9-6.6,18-9.8c3.1-1.6,6.4-3.1,9.8-4
				C-133.6,192.4-129.9,191.8-126.2,191.2z M-143.4,212.8c5.6-3.3,11.3-6.7,17.6-8.6c6.7-2,13.7-1.8,20.6-3c3,1.5,6.5,1.8,9.8,1.7
				c3.7,0,7.5-0.5,11.2-1.2c0.1,0,0.1,0,0.2,0c2.1,0,3.8,1.2,5.6,2.3c-4.8,1.1-9.3,3.1-13.8,5s-8.9,4.1-13.4,6.1
				c-4.4,2-8.9,3.9-13.6,5.4c-4.5,1.4-9.1,2.1-13.8,2.4c-6.1,0.4-13.1,0.3-18.8-2.3c0-0.2-0.2-0.4-0.4-0.6c-1.3-0.6-2.7-1.2-4.1-1.7
				C-151.9,217.1-147.5,215.2-143.4,212.8z M-153.6,221.8c3.3,1.7,7,2.5,10.7,2.8c4.2,0.4,8.5,0.3,12.8-0.1
				c9.8-0.9,18.8-4.8,27.6-8.9c1.2-0.6,2.4-1.1,3.6-1.7c2.4,0.3,4.7,1,6.9,2.1c-8.7,2.7-16.2,8-23.9,12.7c-4,2.5-8.2,4.7-12.6,6.4
				c-4.4,1.7-9,2.9-13.7,3.5c-12.9,1.7-26.3-0.9-37.5-7.4c0-0.3-0.2-0.7-0.6-0.8c-0.3-0.1-0.5-0.1-0.8-0.2c1.1-0.4,2.2-0.8,3.3-1.2
				c7.8-2.9,15.6-6.2,23.9-7.1C-153.8,221.9-153.7,221.8-153.6,221.8z M-130.6,237.8c0.5-0.2,1-0.3,1.5-0.5
				c6.8-2.5,13-6.3,19.1-10.2c5.2-3.3,10.5-6.6,16.3-8.7c-2.3,2-4.3,4.3-6.2,6.7c-2.7,3.6-5,7.5-7.8,11
				c-4.7,5.9-10.5,11.1-17.6,13.6c-0.1,0-0.1,0-0.2,0.1c-0.9,0.3-1.8,0.6-2.7,0.8c-5,1.2-10.1,0.7-15.1,0c-4.3-0.6-8.5-1.4-12.8-1.7
				c8.4-3.4,16.7-7.1,25-10.7C-130.8,238-130.7,237.9-130.6,237.8z M-127.1,252.7C-127.1,252.7-127,252.7-127.1,252.7
				c8.8-1.6,17.8-1.1,26.3,1.8c4.1,1.4,8,3.4,11.6,5.9c3.9,2.6,7.3,5.9,10.8,9c2.1,1.9,4.3,3.6,6.6,5.2c1.9,1.3,3.9,2.4,5.5,4
				c0.8,0.7,1.5,1.5,2.2,2.3c0,0.2,0.1,0.3,0.3,0.4c0.1,0,0.1,0.1,0.2,0.1c-0.1,0-0.2,0-0.3-0.1c-2.6-0.6-5.3-0.7-7.9-0.8
				c-5.5-0.2-10.9,0.3-16.4-0.4c-5.4-0.7-10.6-2.9-15.6-4.9s-10-4.2-15.1-6.2c-8.1-3.3-16.5-5.8-25.3-6c-2.5-0.1-5,0.1-7.6,0.3
				c1.7-0.6,3.5-1.2,5.2-1.7C-139.8,259.1-133.3,256.2-127.1,252.7z M-137.9,265.1c10.6,1.5,20.5,6.2,30.3,10.3
				c4,1.7,8,3.3,12.1,4.6c4.2,1.4,8.5,2,12.9,2.1c4.3,0.1,8.7-0.2,13,0.1c2.1,0.1,4.3,0.4,6.4,1c0.9,0.2,1.7,0.5,2.6,0.8
				c0.2,0.1,0.3,0.2,0.5,0.4c-0.9,0.1-1.8,0.2-2.6,0.4c-3.2,0.6-7,1.4-9.4,3.8c-1,0-2,0-3,0.1c-6.5,0.5-12.8,2.3-19.2,3.3
				c-6.8,1.1-13.4,0-20.1-0.9h-0.1c-2.9-1.1-5.8-1.9-8.8-2.5c-0.1,0-0.2,0-0.3-0.1c-0.1-0.1-0.2-0.2-0.4-0.2c-2.3-0.8-4.3-2-6.2-3.4
				c-1.9-1.5-3.6-3.2-5.5-4.8c-3.9-3.1-8.4-5.6-12.9-7.8c-4.3-2.2-8.9-3.6-13.8-3.9c-1-0.1-2-0.1-3,0c0.4-0.3,0.9-0.5,1.4-0.8
				c1.2-0.4,2.4-0.9,3.5-1.3c2.3-0.6,4.8-0.9,7.1-1.1C-148,264.6-143,264.4-137.9,265.1z M-61.5,286.3c3.6-0.6,7.3-0.8,10.9-1
				c11-0.5,21.9,2.3,32.8,1.4c4.7-0.4,9.4-1.5,13.9-2.8c4.2-1.2,8.3-3,12.7-3.2c5,1.4,9.4,4.5,14.3,6.1c2.8,0.9,5.9,1.3,8.9,1.7
				c1.1,0.1,2.2,0.3,3.3,0.4c-9.2,1.9-17.8,6.1-26.8,8.5c-2.2,0.6-4.4,1.1-6.6,1.4c-0.2,0-0.4,0.1-0.5,0.3c-5.2,0.9-10.2,2.7-15,4.6
				c-5.5,0-10.9-0.4-16.2-1.8c-5.2-1.3-10.1-3.4-15-5.4c-4.9-2.1-9.7-4.2-14.7-5.9c-3.2-1.1-6.4-1.7-9.8-2
				C-67.1,287.2-64.1,286.7-61.5,286.3z M2.1,275.3c-3.1-1.6-6.1-3.6-9.1-5.4c-6-3.6-12.2-6.6-19.3-6.9c1.3-1.1,3.1-1.7,4.7-2.4
				c2.3-0.9,4.4-2.1,6.7-3.1c2.5-1,5-1.6,7.6-1.8s5.3,0,7.9,0.2c2.6,0.1,5.2,0.2,7.8,0c2.4-0.2,4.6-0.9,6.8-1.6
				c4.2-1.4,8.9-3,13.4-2.4c0.6,0.1,1.2,0.2,1.8,0.4c0.1,0.2,0.3,0.4,0.5,0.5c1.9,0.6,3.3,2.2,4.5,3.6c1.3,1.5,2.5,3.1,3.9,4.5
				c2.8,2.8,6.2,4.8,9.8,6.2c-1.4,0.1-2.9,0.4-4.4,0.6c-4.4,0.9-8.6,2.2-12.9,3.5c-2.1,0.6-4.2,1.3-6.3,1.9
				c-2.2,0.7-4.5,1.2-6.8,1.9c-1.9,0.6-3.8,1.2-5.6,2c-0.4,0.2-0.8,0.4-1.2,0.5c-0.2-0.2-0.5-0.3-0.8-0.2
				C8.2,278.2,5,276.8,2.1,275.3z M25.7,243.9c-2.3-1.8-5-3.2-7.6-4.5c-2.2-1.1-4.5-2-6.9-2.7l-0.1-0.1c3.2-2.2,7.2-3.1,11.1-3.2
				c4.4-0.1,8.6,0.9,12.4,3.1c2,1.2,3.9,2.5,6,3.4c2.4,1,4.8,1.7,7.3,2.3c2.5,0.5,5,0.9,7.4,1.5c2.1,0.5,4.1,1.5,5.9,2.6
				c4.6,2.8,8.1,7.2,10.7,11.9c-1.5-0.9-3-1.7-4.6-2.3c-5.1-1.9-10.3-0.6-15.6-0.5c-4.8,0-9.3-1.8-13.8-3.2
				c-0.1-0.2-0.3-0.4-0.6-0.4C32.5,251,29.4,246.7,25.7,243.9z M55.6,241.9c-5-1.3-10.1-1.7-14.8-3.9c-2.1-1-3.9-2.4-5.9-3.5
				c-1.9-1.1-3.9-1.8-6.1-2.3c-1.8-0.4-3.7-0.6-5.6-0.7c-0.1-0.1-0.2-0.1-0.4-0.1c-4.9-0.4-9.3-2.7-13.3-5.4
				c-4.2-2.8-8.2-6-12.2-9.2c-3.9-3.1-7.8-6.1-12.1-8.6c-3.1-1.8-6.3-3.8-9.8-4.7c0.1,0,0.1,0,0.2,0c2.7-0.7,5.4-1,8.1-1.3
				c3.6-0.4,7.3-0.7,10.9-1.3c5.3,2.1,10.8,3.6,16.4,3.9c0.1,0.1,0.2,0.2,0.3,0.3c2.2,1.3,4.4,2.4,6.6,3.7s4,3.1,6,4.7
				c1.9,1.6,3.8,3.1,5.9,4.3c2.2,1.3,4.6,2.4,6.9,3.4c4.7,2.1,9.5,3.8,14,6.3c2.1,1.1,4.1,2.4,5.9,4.1c1.5,1.4,2.8,3.1,3.9,4.8
				c2.3,3.7,3.9,7.8,5.9,11.7C63.3,245.2,59.7,243,55.6,241.9z M-5.9,198.7L-5.9,198.7c-2.9-1.8-4.9-4.7-7.3-7.1
				c-1.5-1.5-3.1-2.7-4.9-3.5c1.4-0.3,2.8-0.7,4.3-1.2c5.2-1.7,10.2-3.8,15.4-5.1c3.2-0.8,6.6-1.3,9.9-1c0.8,0.1,1.9,0.2,2.5,0.8
				c0.2,0.2,0.4,0.2,0.6,0.2c1.1,2.3,2.8,4.3,4.8,5.9c3.2,2.7,7,4.9,10.7,7.1c2.5,1.5,5,2.8,7.6,4c0,0.1-0.1,0.2-0.1,0.2
				c-6.7,0.7-13.1,2.9-19.9,3.6C9.5,203.7,1.7,201.9-5.9,198.7z M23.6,188.8c-2.8-1.8-5.8-4.2-7.3-7.3c0.2-0.2,0.2-0.5,0-0.9
				c-0.6-1-0.7-2.4-0.9-3.6c-0.2-1.4-0.4-2.7-0.8-4c-1-3.1-2.8-5.7-4.6-8.3s-4-5.7-6.9-7.3c9.3,0.5,18.8-0.3,27.9,2.2
				c4.9,1.4,9,3.8,13,6.9c0.9,0.7,1.9,1.5,2.8,2.3c1.6,1.7,3,3.7,4.3,5.7c2.2,3.5,4,7.3,6.1,10.9c2.3,3.9,4.9,7.7,7.9,11.2
				c2.5,3,5.3,5.5,8.5,7.6c-2.6-0.4-5.3-0.5-7.9-0.7c-5.4-0.4-10.8-1.1-16.1-2.4C40.1,198.9,31.6,194.2,23.6,188.8z M48,167.6
				c-1.4-1.4-2.9-2.7-4.6-3.7c-0.1,0-0.1-0.1-0.2-0.1c-2.4-1.7-4.8-3.2-7.6-4.4c-9-3.7-18.9-3.4-28.5-3.6c2.4-0.6,4.7-1.3,7-2
				c5.1-1.6,10.2-3,15.5-4c5.8-1,11.7-1.8,17.5-3.1h0.1c7.3,2.2,10.6,10,14.1,16.1c2.9,5.2,6.7,10.2,11.1,14.1
				c0.7,0.6,1.5,1.3,2.4,1.9c-1.3-0.3-2.7-0.5-3.9-0.6c-1.9-0.2-3.9-0.3-5.8-0.7c-2.1-0.3-4-1.1-5.8-2.1
				C55.1,173.4,51.5,170.5,48,167.6z M47,144.9c-0.1,0-0.2,0.1-0.3,0.1c-4.9,1.1-9.8,1.8-14.8,2.6c-5.3,0.9-10.4,2-15.5,3.6
				S6.3,154.5,1,155.4c-3.6,0.7-7.3,1.4-11,1.9c-3.4,0.4-7.7,0.8-10.7-1.2c-3-2.5-5.4-5.6-8-8.5c-1.4-1.5-2.8-2.9-4.4-4.1
				c-0.5-0.3-0.9-0.7-1.4-1c0-0.3-0.1-0.6-0.4-0.9c-0.9-0.6-1.8-1.4-2.5-2.3c-0.1-0.1-0.1-0.2-0.2-0.2c-1.3-2-2.5-4.2-3.9-6.1
				c6.5,3.3,13.8,4.7,21.2,3.9c1-0.1,2-0.3,3-0.4c0.1,0.1,0.3,0.2,0.5,0.2c2.8,0.1,5.5-0.1,8.3-0.4c2.6-0.3,5.2-0.3,7.8-0.8
				c4.8-0.9,9.3-3.2,14-4.4c10-2.5,20.5,0.3,29.5,4.7c2.9,1.4,5.7,3,8.5,4.8c1.3,0.8,2.7,1.7,4,2.6c0.3,0.2,0.6,0.4,0.9,0.6h-0.1
				C53,143.7,50,144.4,47,144.9z M53.7,140c-2.1-1.4-4.3-2.7-6.5-3.9c-4.4-2.4-9.1-4.5-13.9-5.9s-9.8-2.1-14.8-1.7
				c-2.5,0.2-5,0.7-7.4,1.4c-2.3,0.7-4.6,1.6-6.9,2.4c-1.5,0.5-3,1-4.5,1.3c-1.7,0.4-3.5,0.5-5.3,0.6c-1.7,0.1-3.3,0.3-5,0.5
				c1.2-0.4,2.4-0.9,3.6-1.4c4.6-2,8.8-4.7,12.8-7.7c2.2-1.7,4.4-3.4,6.7-4.9c0.2,0,0.3,0,0.5-0.1c0.4-0.2,0.9-0.4,1.3-0.4
				c4.7-0.1,9.3,0,13.9,0.9c4.7,0.9,9.2,2.8,13.3,5.2c7.2,4.4,12.2,11.2,18,17.2C57.3,142.8,55.5,141.2,53.7,140z M57.8,139.4
				c-1.6-1.7-3-3.5-4.6-5.2c-2.8-3.1-6-5.9-9.4-8.3c-3.8-2.6-8.1-4.4-12.4-5.7c-5.4-1.5-11-1.7-16.6-1.6c-0.1,0-0.1,0-0.2,0l0,0
				c2-2.5,4.3-5.2,7.5-5.9c0.3-0.1,0.5-0.2,0.6-0.4c3.2-0.7,6.3-1.8,9.3-3c0.2,0,0.5,0,0.7-0.2c0,0,0,0,0.1-0.1
				c0.2-0.1,0.4-0.1,0.5-0.2c0.1,0,0.1,0,0.2,0c9.1-1.9,17.3,5.2,22.4,11.9c3.6,4.8,6.2,10.4,10,15c0,0.1,0.1,0.2,0.2,0.4
				c0.6,0.8,0.9,1.8,1.3,2.7c0.5,0.9,0.8,1.9,1.2,2.9c0.7,1.8,1.3,3.7,1.8,5.6c0.6,2.1,1.3,4.3,2.1,6.3c-3-2.9-6.1-5.7-9.1-8.6
				C61.4,143.1,59.6,141.3,57.8,139.4z M32.8,105.8c-0.2,0.1-0.3,0.2-0.4,0.3c0,0.1-0.1,0.1-0.1,0.2l0,0c0,0,0,0,0,0.1v0.1
				c0,0.1-0.1,0.1-0.1,0.2c-0.2,0.1-0.3,0.3-0.3,0.5c-0.1,0.1-0.1,0.2-0.2,0.2c-4.3,1.7-8.6,3.2-13.2,3.7S9.4,111,5,109.6
				c-0.1-0.2-0.4-0.4-0.7-0.4c-0.2,0-0.4,0-0.5,0s-0.1,0-0.2-0.1c-4.5-1.6-8.4-4-12.3-6.7c-1.3-0.9-2.6-1.8-3.9-2.6
				c4.5,0,8.8-1.4,12.9-3c2.5-1,4.9-2,7.6-2.4c2.6-0.5,5.3-0.4,8,0c3.1,0.4,6.2,1.3,9.2,2.2c2.8,0.9,5.5,2,8.3,2.4
				c2.4,0.3,4.9,0.4,7.3,0.6c1.7,0.2,3.6,0.4,5.1,1.1c-1.8,0-3.6,0.2-5.3,0.6C37.8,102,34.2,103.2,32.8,105.8z M34.7,89.3
				c-2.7-2.6-5.6-4.8-8.9-6.6c-1.6-0.9-3.3-1.7-5-2.4c-1.7-0.8-3.5-1.6-5.2-2.3c-5-1.8-10.4-1.7-15.2,0.2c0.3-0.3,0.6-0.6,0.9-0.9
				c0.1-0.1,0.2-0.2,0.2-0.4c4.3-2.5,8.3-5.3,12.6-7.8c0.2-0.1,0.3-0.2,0.3-0.3c3.6-1.3,7.3-2.7,11.2-2.8c0.2,0,0.3-0.1,0.5-0.1
				c1.5,0,3.1-0.1,4.6-0.1c4.8,0,9.9,0.2,14.2,2.6c0,0.2,0.1,0.3,0.2,0.5c0.9,0.9,1.8,1.9,2.7,2.9c0.6,1,1.3,1.9,2,2.8
				c0.5,0.7,1,1.3,1.6,2c0.5,0.8,1.1,1.6,1.6,2.4c2.2,3.6,3.9,7.4,6.1,11c4,6.5,10,11.9,16.7,15.7c0,0.1,0,0.3,0.1,0.4
				c0.4,0.5,0.8,1,1.2,1.6c0.7,1.9,1.4,3.7,2.2,5.6c-0.1-0.2-0.3-0.4-0.4-0.5c-1.5-1.8-3.5-3.3-5.5-4.4c-4.2-2.3-9-3-13.6-4.3
				s-9.2-2.9-13.4-5.3C41.8,96.2,38.3,92.7,34.7,89.3z M32.5,64c-5.1-0.1-10.3,0.4-15.4-0.2c-9-1.1-14.6-8.6-20.8-14.3
				c-0.1-0.1-0.2-0.1-0.3-0.2c-4.4-3.8-9.8-6.4-15.3-8.2c-4.9-1.6-10.1-2.7-15.2-3c3.9-1.4,7.7-2.9,11.8-3.8
				c4.8-1.1,10-1.3,14.9-0.5c4.7,0.7,9.2,2.5,13.3,4.9s8.6,4,13.1,5.6c5.1,1.8,10.2,3.6,14.7,6.6c0,0.2,0.1,0.3,0.3,0.5
				c4.7,4.1,7.7,9.5,10.8,14.7C40.6,64.4,36.5,64,32.5,64z M34.8,50c0-0.1-0.1-0.1-0.2-0.2C26.8,44.1,17,42.7,8.5,38.4
				C6.4,37.3,4.3,36,2.1,35c-2.1-1-4.3-1.7-6.5-2.3c-4.6-1.2-9.6-1.4-14.3-0.9c-3.1,0.3-6,1.1-8.9,2c3.1-1.9,6.1-3.9,9-6
				c0.2,0,0.4,0,0.6-0.1c3-2.1,6.8-2.8,10.3-3.2C-3.9,24.1,0.1,23.8,4,24c4.1,0.2,8.1,1.1,11.9,2.5c2,0.7,3.9,1.7,5.9,2.6
				c1.3,0.6,2.7,1.2,4.1,1.6c0.1,0.3,0.4,0.5,0.8,0.5c2.4,0,4.2,1.7,5.7,3.5c1.5,1.9,2.7,4.2,4,6.2c2.7,4,5.5,7.9,9,11.2
				C41.9,51,38.3,50.4,34.8,50z M0.5,12.5c-6.6,3.6-12.5,8.4-18.6,12.8c-8.1,5.9-16.6,11.2-26.1,14.5c-6.1,2.1-12.4,3.1-18.7,4.1
				c-5.4,0.8-12,1.5-16.8-1.8c-0.2-0.1-0.4-0.2-0.6-0.1c-3-2.2-5.1-5.7-7.5-8.5c-2.1-2.4-3.9-5.1-5.8-7.7c4,2.3,8.4,3.9,12.8,4.9
				c3.9,0.9,8,1.3,12,1.3c4.5,0,8.9-0.9,13.2-2.1c8.1-2.2,15.6-5.8,23.1-9.5c6.4-3.1,12.5-7,19.8-7.6C-8.3,13.6-3.9,13.3,0.5,12.5z
				 M-90.6,20.3c3.2-0.2,6.4-1.2,9.4-2.4c1.5-0.6,3.1-1.2,4.6-1.8c0.8-0.3,1.6-0.6,2.4-0.8c0.4-0.1,0.8-0.3,1.3-0.5
				c5.4-0.6,10.7-1.6,15.8-3.2c5.3-1.6,10.6-3.8,15-7.3c2,0,4.1,0.2,6.1,0.4h0.1c0.2,0.1,0.3,0.1,0.4,0c2.8,0.4,5.7,1,8.4,1.7
				c4.2,1.1,8.4,2.7,12.2,4.7c0,0.1-0.1,0.1-0.1,0.2c-3.6,0.6-6.9,1.8-10.2,3.4c-4.3,2.1-8.5,4.3-12.8,6.4c-4.9,2.3-9.8,4.5-15,6.1
				c-4.5,1.5-9.2,2.6-14,2.9c-6.1,0.3-12.3-0.6-18.1-2.5c-5.2-1.7-10.1-4.4-13.9-8.2C-96.2,20.2-93.3,20.5-90.6,20.3z M-100.3,21.1
				c4.4,3.7,7.1,8.7,10.8,13c1.5,1.8,3,3.7,4.5,5.5c1.1,1.4,2.4,2.7,3.8,3.8c-2-0.2-3.9-0.7-5.8-1.6c-1.9-0.9-3.6-2-5.4-3.1
				c-3.5-2.2-6.8-4.8-10.1-7.2c-6.6-4.9-13.7-9.3-22.1-10.1c-7.5-0.7-14.8,1.3-21.6,4.1c-1.4-0.6-3.2-0.5-4.6-0.3
				c-0.7,0.1-1.4,0.2-2.1,0.3c3.5-3.3,7.6-6,11.8-8.2c4.4-2.3,9.2-4.5,14.2-5.5c4.9-1,9.8-0.3,14.3,1.7
				C-108.4,15.5-104,17.9-100.3,21.1z M-133-2.1c0.3-0.1,0.5-0.3,0.6-0.6c3.5,0.3,7.1,0.7,10.2,2.4c0.3,0.2,0.6,0.2,0.8,0
				c3.5,2,6.1,5.4,8.5,8.6c1.2,1.6,2.4,3.3,3.7,4.9c-4.4-2.2-8.8-3.8-13.8-3.7c-5.9,0.1-11.6,2.6-16.9,5.1c-2.5,1.2-5,2.6-7.4,4.1
				c0.5-0.7,0.9-1.4,1.3-2.2c1.3-2.4,2.3-4.8,3.4-7.3C-140.5,5-138-0.5-133-2.1z M-145.6,11.8c-1.4,3.2-3,6.1-5.2,8.7
				c-2.7,3.1-5.7,5.9-9.2,8c-0.7,0.4-1.5,0.9-2.3,1.2c-0.3-0.1-0.6,0-0.8,0.2c-0.1,0.1-0.2,0.2-0.3,0.3c-4.2,1.9-8.8,2.8-13.4,3
				c-3.3,0.1-6.6,0.1-9.8-0.2c-1.8-0.1-3.6-0.4-5.3-0.8c1.4-0.1,2.8-0.2,4.2-0.5c3.6-0.7,7.1-2.2,10.3-4.1
				c6.6-3.9,12.1-9.3,17.6-14.6c3.3-3.1,6.7-6.2,10.3-8.9c3.9-2.8,8.4-6,13.3-6.8C-141,0.6-143.3,6.9-145.6,11.8z M-217.6,23.2
				c-5.9-3.9-10.9-9.2-15.4-14.7c0.3,0.2,0.6,0.4,0.9,0.6c14.1,8.4,32.5,9,47.8,3.5c6-2.1,11.6-5.3,16.4-9.5
				c0.1-0.1,0.2-0.2,0.2-0.3c0,0,0.1,0,0.1-0.1c0.3-0.2,0.5-0.5,0.4-0.8c4.4-3,10-4.6,15.2-5.5c3.3-0.6,6.6-0.8,9.9-0.7
				c1.3,0.1,2.7,0.2,4,0.4c-3.3,0.9-6.4,2.6-9.2,4.5c-3.3,2.2-6.4,4.5-9.3,7.1c-5.8,5.1-11,10.7-17.2,15.4c-6.1,4.6-13,7.7-20.8,7.6
				C-202.7,30.6-210.8,27.7-217.6,23.2z M-210.9,42.8c-5.4-1.1-10.6-3.1-14.9-6.5c-3-2.4-5.7-5.2-8.7-7.8c1,0.3,2,0.6,3,0.8
				c3.4,0.8,6.9,1.1,10.3,1c3.9,0,7.7-0.9,11.5-0.9c0.1,0,0.2,0,0.3-0.1c3,1.1,6.1,2,9.3,2.5c1.1,0.2,2.1,0.3,3.2,0.4
				c3.8,2.2,8.4,2.6,12.6,2.8c4.3,0.2,8.7,0.2,12.9-0.6c1.3-0.2,2.6-0.5,3.9-0.9c-2,1.4-4.2,2.7-6.4,3.9c-3.7,2-7.5,3.4-11.6,4.4
				C-193.6,44-202.5,44.5-210.9,42.8z M-202.8,57.7c-2.7-0.1-5.2-0.6-7.7-1.3c-1-0.3-2-0.6-3-0.9c-0.1-0.1-0.3-0.2-0.5-0.2
				c-1.3-0.4-2.5-0.9-3.7-1.5c-0.3-0.2-0.6-0.3-0.9-0.5c1.7,0,3.5-0.1,5.2-0.3c2-0.3,4-0.8,6-1.5s4-1.6,6-2.3
				c4.1-1.4,8.1-2.8,12-4.7c0.1-0.1,0.2-0.1,0.3-0.2c3.9-0.7,7.8-1.7,11.5-3.3c5.4-2.3,11-5.3,15.3-9.5c2-1,3.9-2.1,5.8-3.4
				c0.1,0,0.2,0,0.4-0.1c1.6-0.7,3.3-1.1,5.1-1.3c0.8-0.1,1.7-0.2,2.6-0.2c0,0.1,0,0.2,0,0.3c-3.4,1.8-6.5,4.3-9.4,6.8
				c-3.5,3.1-6.9,6.3-10.5,9.3l0,0c-0.2,0.1-0.4,0.2-0.5,0.4c-3.8,3.1-7.6,6.2-11.9,8.6c-4.5,2.5-9.4,4.3-14.5,5.2
				C-197.8,57.7-200.3,57.8-202.8,57.7z M-213.4,75c-3.5-0.3-7-1.1-10.2-2.7c-2.1-1-3.9-2.5-5.8-3.9c1.1,0.1,2.1,0.2,3.2,0.3
				c5.8,0.3,11.8-0.3,17.3-2.2c2.8-0.9,5.3-2.3,7.7-4c2-1.4,4.4-3.4,6.9-3.3c0.4,0,0.6-0.2,0.7-0.4c4.6-0.9,9-2.6,13.1-4.8
				c4.3-2.3,8.2-5.4,12-8.5c0.3-0.3,0.6-0.5,1-0.8c3.8-1.3,7.7-2.6,11.8-2.4c2.7,0.1,5.3,1,7.9,1.9c-4.1,1.2-7.9,3.2-11.4,5.6
				c-3.8,2.7-7.1,6.2-10.7,9.2c-7,5.9-14.8,11-23.5,13.8C-200,74.9-206.8,75.6-213.4,75z M-211.4,91.2c-0.2-0.2-0.4-0.2-0.8-0.1
				c-0.1,0-0.2,0.1-0.3,0.1c-5.1-0.2-10.2-1.5-14.7-4.1c-2.6-1.5-5-3.3-7.5-5c4.6,1,9.3,1.1,13.9,0.4c2.5-0.4,4.9-1,7.3-2.1
				c2.8-1.2,5.5-2.8,8.5-3.6c0,0,0,0,0.1,0c8.8-0.7,17.2-3.8,24.7-8.4c5.7-3.5,10.9-7.7,15.9-12.2c2.4-2.2,4.8-4.3,7.5-6.1
				c-8.1,6.8-13.6,17-20.8,24.8c-2.9,3.2-6.3,5.9-9.9,8.3c-3.9,2.6-8.1,4.8-12.6,6.2C-203.7,90.6-207.5,91.2-211.4,91.2z
				 M-205.3,95.1c-0.3-0.3-0.7-0.6-1.1-0.9c2.3,0.7,4.6,1.2,7,1.5c5.3,0.8,10.7,1.1,16,0.2c0.3-0.1,0.7-0.1,1-0.2
				c5.1-0.1,10,1.9,14.9,2.8c4,0.7,8.2,0.7,12.2-0.3c2.4,0.4,4.8,0.4,7.2,0.3c-2.6,1.7-5.2,3.5-8,4.9c-2.3,1.1-4.8,1.9-7.3,2.6
				c-2.4,0.7-4.9,1.3-7.4,1.6c-5,0.7-10.2,0.5-15.2-0.5c-2.5-0.5-4.9-1.3-7.3-2.2c-1.8-0.7-3.6-1.5-5.1-2.8
				C-200.8,99.8-202.9,97.3-205.3,95.1z M-212.7,113.7c-3.1-2.9-6.5-5.4-10.3-7.1c0.9-0.1,1.7-0.3,2.6-0.5c2.2-0.4,4.3-1.3,6.4-2
				c2.6-0.8,5.1-1.6,7.8-2c2-0.3,4.4-0.5,6.1,0.6c0.8,0.7,1.7,1.4,2.6,1.9c2.4,1.3,4.9,2.3,7.5,3.1c0.1,0.2,0.3,0.4,0.5,0.5
				c4.4,1.5,7.8,4.7,11.5,7.3c3.9,2.6,8.3,3.9,12.9,4.2c4.7,0.3,9.5-0.4,14-1.9c0.1,0,0.1-0.1,0.2-0.1c-2.5,2.5-5,4.9-8.1,6.7
				c-3.5,2-7.5,2.9-11.5,3.4c-0.2-0.1-0.4,0-0.6,0.1c-0.5,0.1-1,0.1-1.5,0.2c-4.8,0.4-9.8,0.2-14.5-0.5c-4.8-0.8-9.6-2.2-13.9-4.6
				c-4.2-2.4-7.8-5.5-11.5-8.6C-212.5,114-212.6,113.8-212.7,113.7z M-192.1,133.5c-0.1-0.2-0.4-0.3-0.7-0.3l0,0l0,0
				c-1.8-0.8-3.5-1.8-5.1-2.9c-3.9-2.8-6.9-6.4-9.9-10.1c1.6,1.2,3.3,2.4,5,3.5c4.1,2.6,8.8,4.2,13.6,5.1c4.8,0.9,9.7,1.2,14.6,1
				c1.4,0,2.7-0.1,4.1-0.3c2.2,0.7,4.5,0.6,6.7,0.6c2.6-0.1,5.2,0,7.8-0.1c1.1,0,2.2-0.1,3.3-0.2c-0.6,0.4-1.1,0.8-1.7,1.1
				c-0.9,0.6-1.7,1.2-2.6,1.7c-0.1,0-0.1,0-0.2,0c-0.2,0.1-0.4,0.2-0.5,0.3c-0.8,0.5-1.6,0.9-2.5,1.2c-4,1.7-8.3,2.4-12.7,2.6
				c-3.4,0.1-6.9-0.1-10.4-0.7c-0.2-0.3-0.6-0.5-1-0.2C-187,135.4-189.6,134.6-192.1,133.5z M-207.3,156.3c-3-0.1-6-0.4-8.9-1
				s-5.8-1.6-8.6-2.5c2.8-0.4,5.5-1.1,8.1-1.9c4.8-1.5,9.5-3.6,14-6c4.3-2.2,8.6-4.6,13.2-6c1.2-0.4,2.4-0.7,3.7-0.9
				c0.5-0.1,1.2-0.1,1.8-0.3c4.4,0.9,9,1.1,13.3,0.7c4-0.3,7.9-1.2,11.6-2.8c0.9-0.4,1.8-0.9,2.7-1.4c2.7-0.6,5.5,0.6,7.9,1.7
				c1.8,0.9,3.6,2,5.2,3.1c-9.3,0.3-18.1,3.2-26.6,7c-4.5,2-8.9,4.1-13.4,6.1c-4.9,2.2-10.3,3.4-15.5,3.8
				C-201.7,156.4-204.5,156.4-207.3,156.3z M-194.4,160.9c-3-0.8-5.9-1.8-8.9-2.8c0.4,0,0.8,0,1.2,0c5.2-0.2,10.4-1,15.4-2.7
				c4.8-1.6,9.3-3.9,13.8-6c9.8-4.5,19.9-8.4,30.8-8.5c0.3,0,0.5-0.1,0.6-0.2c0.3,0.2,0.6,0.2,0.9,0.2c2.2,0.4,4.4,0.2,6.6-0.4
				c0.1,0.1,0.2,0.1,0.4,0.1c1.3,0.1,2.5,0.5,3.6,1c1.4,1,2.8,1.9,4.3,2.6c0.2,0.1,0.3,0.2,0.5,0.3c-4.3,0.4-8.5,1.3-12.5,2.9
				c-4.3,1.7-8.4,3.9-12.5,6.1c-4.5,2.5-9,4.7-13.9,6.2c-4,1.2-8.1,1.9-12.2,2.3c-0.2-0.1-0.4-0.2-0.7-0.1c-0.1,0-0.2,0.1-0.4,0.1
				c-0.5,0-1.1,0.1-1.6,0.1C-184,162.4-189.3,162.2-194.4,160.9z M-210.2,172.5c5.5-0.2,11-1.1,16.4-2.1c3-0.6,5.9-1.5,8.7-2.8
				s5.4-2.7,8.2-3.8c9-0.7,17.7-3.3,25.6-7.6c4.3-2.4,8.6-4.8,13.1-6.7c3.5-1.5,7.2-2.5,11-3c-2.4,1.1-4.6,2.7-6.6,4.3
				c-3.6,2.9-6.7,6.4-10,9.6c-3.2,3.2-6.7,6.3-10.4,9c-3.9,2.8-8.2,5.1-12.7,7c-4.4,1.9-9,3.3-13.8,3.9c-0.2-0.1-0.4-0.2-0.7-0.1
				c-0.2,0.1-0.3,0.1-0.5,0.2c-4,0.4-8.1,0.2-12.1-0.7c-2.9-0.7-5.6-1.9-8.2-3.2c-0.1-0.2-0.3-0.4-0.6-0.4c-0.1,0-0.2,0-0.3,0
				c-0.9-0.4-1.7-0.9-2.6-1.3C-207.1,173.9-208.6,173.1-210.2,172.5z M-208.3,190.2c-8.8,1.1-18.2-0.7-25.3-6.1
				c-2.7-2-4.8-4.6-6.7-7.3c-0.4-0.6-0.9-1.3-1.3-1.9c1.3,0.7,2.7,1.3,4.1,1.8c4.2,1.3,8.6,1.6,12.9,1.6c7-0.1,14-1.5,21-0.6
				c4,2,8,3.6,12.5,4.3c1.6,0.2,3.2,0.4,4.8,0.4C-193.4,185.6-200.5,189.3-208.3,190.2z M-197.7,198.9c-5.4,0.6-11,1.7-16.5,1.2
				c1.7-0.5,3.3-1.2,4.8-2c2.3-1.2,4.5-2.7,6.5-4.2c2.1-1.6,4.1-3.5,6.5-4.7c0.3-0.1,0.4-0.4,0.4-0.6c4.9-2,9.6-4.5,14.5-6.5
				c6.7-0.7,13.3-3,19.3-6c0.9-0.4,1.8-0.9,2.6-1.4c-1.1,1.4-2.2,2.9-3.2,4.4c-1.2,1.8-2.5,3.5-3.9,5.1c-1.5,1.7-3.2,3.2-4.9,4.6
				C-179.1,194.8-188.3,197.9-197.7,198.9z M-205.8,212.4c-3.6-1-6.8-3.1-10.2-4.7c10.5-0.6,20.7-5.4,30.3-9.4
				c0.1-0.1,0.2-0.1,0.3-0.2c0.9-0.3,1.8-0.6,2.7-1c10.3-1,20.5-3.2,30-7.4c3.6-1.6,7-3.4,10.1-5.8c0.1,0,0.1,0,0.2,0
				c5,0.2,9,3.6,13.3,5.9c-4.6,0.7-9.2,1.6-13.5,3.4c-4.7,2-9.1,4.5-13.5,7c-9.1,5.2-18.7,9.7-28.9,12.1c-4.4,1-9,1.5-13.6,1.2
				c-0.2-0.1-0.4-0.1-0.7-0.1l0,0C-201.4,213.4-203.6,213.1-205.8,212.4z M-182.6,228.8c-0.7,0.2-1.4,0.4-2,0.7
				c-0.2,0-0.4,0-0.5,0.2c-7.6,2.3-15.7,3.6-23.6,3.1c-3.2-0.2-6.3-0.8-9.3-1.9c-0.1-0.2-0.4-0.3-0.6-0.3c-0.1,0-0.2,0-0.3,0
				c-3-1.1-5.7-2.7-8.2-4.7c-3-2.5-5.8-5.4-8.5-8.2c-1.1-1.1-2.1-2.2-3.1-3.3c2.5,1.6,5.2,3,8.1,4.1c5.2,1.9,10.6,2.3,16.1,1.4
				c5.1-0.8,10-2.6,14.9-4.2c4.5,0.2,8.7,2,12.9,3.3c4.8,1.5,9.8,1.9,14.8,1.8c4.1-0.1,8.2-0.6,12.1-1.5c0.1,0.1,0.2,0.1,0.4,0.2
				c1.2,0.2,2.4,0.6,3.5,1C-165.3,221.9-173.7,225.9-182.6,228.8z M-194.8,253.8c-5.1-0.6-10.2-1.7-15.1-3.4
				c-2.3-0.8-4.5-1.7-6.8-2.5c2.9-0.1,5.7-0.5,8.5-1.1c4.7-1,9.2-2.8,13.3-5.2c4-2.3,7.5-5.5,11.6-7.6c0.9-0.5,1.8-0.8,2.8-1.2
				c12.2,7.1,26.8,9.6,40.7,7.3c-7.7,3.3-15.3,6.6-23.1,9.6c-5.2,2-10.3,3.7-15.9,4.4C-184.1,254.6-189.5,254.4-194.8,253.8z
				 M-206,269.9c-3.4-1-6.7-2.5-9.8-4.3c-0.2-0.1-0.4-0.2-0.6-0.4c3.9,0.5,7.9,0.4,11.8-0.3c3.4-0.6,6.3-2.1,9.2-4
				c2.9-1.8,5.7-3.8,9-4.8c0.1,0,0.1,0,0.2-0.1c2.7,0,5.4-0.1,8-0.5c5.5-0.7,10.6-2.4,15.7-4.3c0.9-0.3,1.8-0.7,2.7-1
				c0.1,0,0.2,0,0.2,0c9.7,0,19.3,3.5,29.1,2.3c-2.9,1.5-5.9,3-8.9,4.3c-4.8,2.1-9.8,3.5-14.7,5.3c-2.3,0.8-4.5,1.6-6.8,2.5
				c-1.2,0.3-2.4,0.8-3.6,1.3c-2.9,1.1-5.8,2.1-8.7,3c-1.1,0.2-2.1,0.4-3.2,0.6c-1,0.3-2,0.6-3,1.1c-1.2,0.3-2.4,0.5-3.6,0.7
				C-190.7,272.8-198.5,272.1-206,269.9z M-181.3,281.2c-2.7-1.5-5.6-2.8-8.6-3.3c3.7-2.1,7.2-4.5,11.3-5.6c0.2,0,0.3-0.1,0.4-0.2
				c2-0.5,3.9-1,5.8-1.6c2.5-0.3,5.1-0.4,7.5-0.5c4.9-0.2,9.8,1,14.3,3c2.3,1,4.5,2.3,6.7,3.5s4.4,2.6,6.4,4.1s3.7,3.3,5.6,4.8
				c0.9,0.8,1.9,1.5,2.8,2.1c-5.4-0.6-10.9-0.5-16.3,0.1c-0.6-0.1-1.1-0.2-1.7-0.3c-0.3,0-0.5,0-0.7,0.1c-0.5-0.1-0.9-0.3-1.4-0.4
				c-6.2-1.5-12.5-1.3-18.8-1.2c-0.2-0.1-0.5-0.2-0.8,0c-0.5,0-1.1,0-1.6,0c-0.2,0-0.4,0.1-0.6,0.2c-0.5-0.1-0.9-0.1-1.4-0.1l0,0
				h-0.1C-175.6,284.9-178.4,282.9-181.3,281.2z M-141.1,292.3c7.8,4.3,14.2,10.6,21.2,16c2.4,1.8,4.9,3.6,7.5,5.1
				c1.1,0.6,2.2,1.2,3.3,1.7c-2.6-0.3-5.1-0.1-7.7,0.1c-5.1,0.4-10.4,0-15.4-1.1c-2.2-0.5-4.4-1.1-6.6-1.9c-0.1-0.1-0.3-0.2-0.5-0.3
				c-1.6-0.4-2.7-1.7-3.7-2.9c-1.1-1.3-2.1-2.7-3.3-4c-2.6-3-5.2-6-8-8.7c-2.7-2.6-5.7-4.7-8.9-6.7c-1.1-0.7-2.3-1.4-3.5-2
				c3.7,0,7.5-0.1,11.2,0.3c2.5,0.2,5,0.7,7.4,1.3C-145.5,290-143.3,291.1-141.1,292.3z M-193.2,299c3.1-2.2,6.5-4.2,9.3-6.8
				c0.2-0.1,0.4-0.2,0.6-0.3c3.6-1.7,7.5-3.4,11.5-3.7c0.1,0,0.2,0.1,0.4,0.1c0.3,0.1,0.6,0,0.8-0.2l0,0c0.1,0,0.3,0,0.4,0
				c2.5,0.6,4.9,2.1,6.9,3.4c3.3,2,6.2,4.3,9,7c2.7,2.7,5.2,5.6,7.7,8.6c0.7,0.8,1.4,1.8,2.1,2.7c-0.6-0.3-1.2-0.6-1.7-0.9
				c-4.6-2.3-9.3-4.1-14.4-5.1c-7.1-1.4-14.3-1.5-21.4-1.5c-0.2,0-0.4,0.1-0.5,0.2c-3.9-0.1-7.9,0.3-11.7,1.1
				c-2.9,0.6-5.8,1.4-8.7,2.1C-199.5,303.8-196.4,301.2-193.2,299z M-158.8,326.8c-0.4,0.1-0.8,0.3-1.2,0.4c-0.1,0-0.1,0-0.2,0.1
				c-0.2,0.1-0.3,0.1-0.5,0.2c-0.1,0-0.2,0.1-0.2,0.1c-0.2,0.1-0.3,0.1-0.5,0.2c-0.1,0-0.1,0.1-0.2,0.1c-0.6,0.3-1.2,0.5-1.7,0.8
				c0,0-0.1,0-0.1,0.1c-0.2,0.1-0.3,0.2-0.5,0.2c-0.1,0-0.2,0.1-0.2,0.1c-0.2,0.1-0.3,0.2-0.5,0.2c-0.1,0-0.2,0.1-0.2,0.1
				c-0.2,0.1-0.3,0.2-0.5,0.2c0,0-0.1,0-0.1,0.1c-0.3,0.2-0.6,0.3-1,0.5c-0.1,0-0.2,0.1-0.2,0.1c-0.1,0.1-0.3,0.2-0.4,0.2
				c-0.1,0.1-0.2,0.1-0.3,0.2s-0.3,0.2-0.4,0.2c-0.1,0.1-0.2,0.1-0.4,0.2c-0.3,0.2-0.7,0.4-1,0.5c-0.2-0.2-0.6-0.2-0.9-0.1
				c-4,1.7-8.7,2-13,2.1c-5,0.2-9.8-0.2-14.6-1.5c-0.3-0.1-0.6-0.2-0.8-0.2c-0.1,0-0.2-0.1-0.3-0.1c-0.2-0.1-0.4-0.1-0.5-0.2
				c-0.1,0-0.2-0.1-0.4-0.1c-0.1,0-0.3-0.1-0.4-0.1c-0.1,0-0.3-0.1-0.4-0.1c-0.1,0-0.2-0.1-0.3-0.1c-0.6-0.2-1.2-0.5-1.9-0.7
				c0,0,0,0-0.1,0c-0.2-0.1-0.5-0.2-0.7-0.3c-3.9-2.3-6.6-6-10-8.9c-3.6-3-7.9-5.4-12.2-7.2c-1.8-0.8-3.6-1.4-5.5-1.9
				c4.1-0.5,8.1-1.3,12.2-1.9c1.6-0.1,3.2-0.3,4.8-0.6c2.2-0.2,4.4-0.3,6.6-0.2c2.5,0.1,5,0.6,7.3,1.4c2.5,0.9,4.7,2.3,7,3.6
				c4.3,2.6,8.6,5,13.2,6.9c4.4,1.8,9.1,2.7,13.7,3.7C-163.9,325.9-161.3,326.4-158.8,326.8L-158.8,326.8z M-141,324.5L-141,324.5
				c-0.4,0-0.8,0.1-1.1,0.1c0,0,0,0-0.1,0c-0.7,0.1-1.4,0.2-2.1,0.3c-0.1,0-0.1,0-0.2,0c-0.3,0.1-0.7,0.1-1,0.2c-0.1,0-0.1,0-0.2,0
				c-0.3,0.1-0.7,0.1-1,0.2c-0.2,0-0.3,0.1-0.4,0.2c-0.2,0-0.4,0-0.6-0.1c-0.1,0-0.1,0-0.2,0c-0.2,0-0.3,0-0.5,0c-0.1,0-0.1,0-0.2,0
				c-0.2,0-0.3,0-0.5,0h-0.1c-0.2,0-0.5,0-0.7,0l0,0c-0.2,0-0.4,0-0.6,0h-0.1c-0.2,0-0.4,0-0.6,0h-0.1c-0.5,0-0.9,0-1.4,0.1l0,0
				c-0.1,0-0.2,0-0.3,0c-4.7,0-9.4-1.1-14-2.1c-2.4-0.5-4.8-1-7.1-1.6c-2.4-0.7-4.8-1.6-7.1-2.6c-4.6-2-8.9-4.7-13.2-7.2
				c-3.6-2.2-7.4-3.4-11.5-3.9c4.7-0.7,9.2-2.2,13.8-3c4.8-0.9,10.1-1.1,15-0.3c10,1.7,16.9,9.5,25.7,13.9c3.8,1.9,7.6,4,11.7,5.5
				c0.2,0.1,0.5,0.2,0.7,0.2C-139.8,324.4-140.4,324.4-141,324.5z M-116.6,321.1c-3.4,1.5-7.2,3.4-11,3.2c-0.2,0-0.3,0-0.4,0.1
				c-2.3,0-4.6-0.4-6.9-0.8c-2.5-0.4-4.8-1.2-7.2-2.2c-2.3-1-4.5-2.2-6.8-3.3c-2.2-1.1-4.4-2.2-6.5-3.5c-4.1-2.6-7.9-5.7-12.2-8
				c-1.5-0.9-3.1-1.6-4.8-2.1c7,0.3,14,1.3,20.6,3.9c2.4,1,4.7,2.3,7.1,3.4c2.2,1,4.5,1.9,6.9,2.7c4.7,1.5,9.6,2.4,14.5,2.6
				c3.7,0.2,7.4-0.3,11.1-0.4c1.9,0,3.9,0.2,5.8,0.6c0.2,0,0.5,0.1,0.7,0.1C-109.3,318.4-113,319.6-116.6,321.1z M-83,316.7
				c-2.6-0.7-5.3-1.2-8-1.3c-3.4-0.2-6.9,0.3-10.3,1c-0.3-0.1-0.7-0.2-1.1-0.2c0-0.3-0.2-0.6-0.6-0.8c-1.1-0.3-2.3-0.6-3.4-1
				s-2.2-1-3.3-1.5c-2-1-3.9-2.2-5.8-3.4c-3.7-2.5-7.1-5.4-10.5-8.2c-5.4-4.5-11-9.1-17.4-12c9.4-0.8,18.9,0.1,27.8,3.4
				c9.5,3.5,17.2,10,25.1,16c2.8,2.2,5.7,4.3,8.7,6.2c1.5,1,3.1,1.8,4.7,2.8c0.2,0.1,0.4,0.2,0.5,0.3C-78.5,317.5-80.8,317-83,316.7
				z M-51,318c-0.4,0-0.7,0.2-0.8,0.5c-2-0.1-4.1,0-6.2,0.1c-4.4,0.2-8.7,0.5-13.1,0.1l0,0c-0.1-0.2-0.3-0.3-0.5-0.4
				c-2.4-0.7-4.6-2.3-6.8-3.5c-2.1-1.2-4.2-2.6-6.2-4.1c-4-2.8-7.9-5.9-11.8-8.9c-3.9-2.9-7.9-5.8-12.3-8.1
				c-0.1-0.1-0.2-0.1-0.3-0.2c3.7,0.4,7.4,0.8,11.1,0.6c5.4-0.3,10.7-1.8,16-2.8s10.7-1.5,16-0.5c5.2,0.9,10.2,3,15,5
				c5.9,2.5,11.6,5.1,17.7,7c4.7,1.5,9.6,2.2,14.5,2.5c-1.4,0.5-2.7,1-4.1,1.6c-3.1,1.3-6.4,2.4-9.5,3.8c-3.2,1.4-6.2,2.9-9.4,4.3
				c-1.6,0.7-3.2,1.5-4.9,2.1C-47.9,317.5-49.4,318.1-51,318z M8.4,317.7c-4.9,1.7-10.4,3.9-15.6,2.5c-0.2-0.1-0.4,0-0.6,0
				c-4.8-1-9.6-0.8-14.5-0.4c-5.9,0.5-11.9,0.8-17.9,0.5c-0.2,0-0.3,0-0.4,0.1c-1.5-0.5-3-0.9-4.5-1.2c-0.5-0.1-1-0.2-1.5-0.3
				c1.6-0.5,3.1-1.3,4.6-1.9c3.2-1.3,6.3-2.9,9.4-4.3c3.1-1.5,6.4-2.6,9.6-3.9c2.9-1.1,5.9-2.7,9.1-2.7c0,0,0,0,0.1,0
				c1.6,0.3,3.2,0.3,4.8,0.5c1.8,0.2,3.4,0.8,5,1.4c3.2,1.2,6.3,2.8,9.5,4.1c3,1.2,6,2.4,9.2,3.3c0.3,0.1,0.5,0.1,0.8,0.2
				C12.9,316.1,10.6,316.9,8.4,317.7z M55.1,314.7c-1.5-0.2-3-0.4-4.6-0.4c-3.4,0-6.8,0.4-10.1,0.8c-2.4,0.3-4.9,0.8-7.3,1
				c-1.3,0.1-2.7,0.2-4.1,0.1c-0.9-0.2-1.8-0.4-2.7-0.6c-0.1-0.1-0.3-0.1-0.4-0.2c-0.3-0.1-0.5-0.1-0.7,0c-0.1-0.3-0.4-0.5-0.8-0.5
				c-3.2,0.1-6.3-0.3-9.4-1.1c-3.2-0.8-6.1-2.1-9.2-3.3c-3.2-1.3-6.3-2.8-9.5-4.1c-1.6-0.6-3.2-1.2-4.9-1.4c-1-0.1-2-0.2-3-0.3
				c7.6-2.9,15.7-5.6,23.9-4c2.2,0.4,4.2,1.1,6.4,1.5c2.3,0.4,4.7,0.4,7.1,0.3c4.6-0.1,9.2-1.1,13.6,0.4c0,0,0,0,0.1,0
				C45.3,306,49.8,310.9,55.1,314.7z M51.4,292.8c-5,1.4-10.5,3.6-13.7,7.9c0,0,0,0,0,0.1c-3.7-0.7-7.4-0.1-11.2,0.1
				c-2.4,0.1-4.9,0.1-7.3-0.3c-2.3-0.4-4.5-1.1-6.7-1.6c-0.8-0.2-1.5-0.3-2.3-0.3c6.5-1.9,12.8-4.5,19.3-6.5
				c4.5-1.4,9.1-2.4,13.7-2.6c4.7-0.1,9.2,1.1,13.9,1.8C55.1,291.8,53.2,292.3,51.4,292.8z M76.3,289.7c-4.1-0.3-8.2,0.1-12.3,0.6
				c-5,0.1-9.8-1.3-14.7-2c-2.5-0.4-5-0.5-7.5-0.3c-0.1-0.1-0.2-0.1-0.4-0.1c-2.9-0.4-5.9-0.7-8.8-1c-3-0.4-6.2-0.8-9.1-1.7
				c-4.2-1.3-8-3.8-12.1-5.3c0.4-0.1,0.8-0.3,1.2-0.4c1.8-0.7,3.5-1.4,5.3-2c4.3-1.5,8.7-2.5,13.1-3.9c4.1-1.3,8.3-2.6,12.5-3.5
				c4.2-1,8.7-1.9,12.8,0c0.3,0.1,0.6,0.1,0.9-0.1c0.3,0.1,0.6,0.2,0.8,0.3c2.1,0.7,4.1,1.7,5.9,2.8c2.2,1.3,4.2,3,6.2,4.5
				c2.1,1.6,4.1,3.4,6,5.2c1.9,1.8,3.3,4.2,4.9,6.2c0.5,0.6,1,1.2,1.5,1.7C80.5,290.1,78.4,289.8,76.3,289.7z M87.5,283.9
				c0.9,2.2,1.9,4.3,3.2,6.2c1.3,1.9,2.8,3.7,4.3,5.5c0.6,0.8,1.2,1.5,1.8,2.3c-2.5-1.6-4.9-3.3-7.5-4.8c-0.3-0.2-0.6-0.3-1-0.5
				c-0.1-0.3-0.2-0.5-0.6-0.6c-3.9-1.5-6.2-5.3-8.6-8.5c-3.1-3.9-7.2-6.9-11.2-9.9c-3.7-2.8-7.7-4.6-12.1-6
				c-4.5-1.4-8.9-2.9-12.8-5.8c-2.2-1.6-3.9-3.7-5.6-5.8c-0.9-1-1.8-2.1-2.8-3c3.7,0.8,7.3,2.4,11,3.3c2.4,0.6,4.9,0.8,7.4,0.7
				c2.7-0.1,5.4-0.5,8.1-0.5c5.1,0,9.7,2.6,13.7,5.6c2.3,1.8,5,3.6,6.9,5.9c0,0.2,0,0.3,0.1,0.5c0.2,0.6,0.4,1.3,0.6,1.9
				c0,0.1,0,0.1,0.1,0.2C84.5,274.8,85.7,279.5,87.5,283.9z M77.9,243.9c1.7,1.3,3.5,2.5,5.4,3.4c2.2,1,4.5,1.6,6.7,2.2
				c0.5,0.1,1,0.3,1.5,0.4c0.1,0,0.2,0,0.3,0c0.9,1.1,1.5,2.6,1.9,3.9c0.6,1.8,0.9,3.6,1.4,5.5c1.1,4.2,2.2,8.5,4.2,12.5
				c0.1,0.3,0.2,0.5,0.4,0.7c-4.1-2.6-9-4-13.7-3.8c-0.1-0.2-0.3-0.3-0.5-0.4c-0.6-0.1-1.2-0.3-1.7-0.7c-1.3-1.8-3.1-3.4-4.8-4.7
				c-0.7-0.6-1.5-1.2-2.2-1.7c0-0.1-0.1-0.2-0.2-0.3c-3.9-4.7-5.3-11-5.8-16.9c-0.2-2.8-0.3-5.8-0.9-8.7
				C72.1,238.4,74.8,241.4,77.9,243.9z M61.5,222.9c1.2,2.5,2.7,4.9,4.3,7.2c0,0.2,0,0.5,0.2,0.7c1.5,1.9,2,4.5,2.3,6.8
				c0.4,2.5,0.4,5.1,0.7,7.6c0.2,1.8,0.5,3.6,0.9,5.3c-4.1-6.4-6-14-11.3-19.5c-3.3-3.5-7.9-5.7-12.2-7.6c-4.7-2.1-9.5-3.8-14.1-6.3
				c-3.6-1.9-6.6-4.4-9.6-7c-2.6-2.2-5.4-3.8-8.3-5.4c0.9,0,1.9-0.1,2.8-0.2c7.5-0.7,14.7-3.3,22.2-3.9c3.7,1.6,6.9,4.4,9.9,7.1
				c1.1,1,2.2,1.9,3.3,2.8l0.1,0.1c1.7,1.9,3.7,3.5,5.2,5.5C59.4,218.2,60.4,220.7,61.5,222.9z M89.5,217.4c1.6,3.7,2.8,7.5,4.7,11
				c0.1,0.2,0.2,0.3,0.3,0.5c-0.8-0.4-1.7-0.8-2.7-1c-0.2,0-0.5,0-0.6,0.1c-1.2-1-2.8-1.5-4.3-2c-2-0.5-3.9-0.9-5.9-1.6
				c-4.9-1.7-9.6-4.1-14.1-6.7c-2.2-1.3-4.4-2.7-6.6-4.1c-2.1-1.3-4.1-2.6-6.1-4.1c-3.4-2.7-6.5-5.8-10.1-8.3
				c4.9,1.6,9.9,2.5,15,3.1c3.4,0.4,6.9,0.8,10.3,1c3.4,0.3,6.8,0.7,9.9,1.9c0.2,0.1,0.4,0.1,0.6,0c0.9,0.3,1.9,0.6,2.9,0.9
				c0.1,0,0.2,0,0.3,0C86.1,210.7,88,214,89.5,217.4z M89.1,205.4c0.3,0.8,0.7,1.5,1,2.2c-1.9-0.8-4.1-1.2-6-1.5
				c-0.3-0.1-0.6,0.1-0.8,0.3l0,0c-0.3-0.2-0.7-0.2-0.9,0c-4.2-1.3-8-3.3-11.4-6.2c-3.5-3-6.4-6.7-9-10.5c-2.4-3.5-4.5-7.3-6.5-11
				c-1.1-1.9-2.1-3.8-3.3-5.7c1,0.7,2,1.4,3,2.1c2.1,1.4,4.3,2.5,6.7,3.4c1.9,0.7,4.1,0.9,6.1,1.1c3.8,0.4,8.5,0.5,11.4,3.4
				C83.5,190.1,85.8,198,89.1,205.4z M94.9,181.5c0.3,2.1,0.6,4.2,1.2,6.2c-4.9-4.6-11.4-7.6-17.5-10c-0.3-0.1-0.5-0.1-0.7,0.1
				c-0.3-0.2-0.6-0.2-0.8,0c-0.2,0-0.3,0.1-0.4,0.2c0,0-0.1,0-0.1-0.1c-1.3-0.7-2.4-1.6-3.5-2.6c-2.2-2.1-4.2-4.5-6.1-6.9
				c-1.8-2.4-3.4-4.9-4.8-7.5c-1.8-3.3-3.6-6.6-5.9-9.5c-1.7-2.1-3.7-3.9-6.1-5.2c1.7-0.3,3.5-0.6,5.3-0.7c2.9-0.1,5.6,0.5,8,2.2
				c0.2,0.1,0.4,0.2,0.6,0.1c3.1,2.9,6.3,5.8,9.3,8.9c0.3,0.3,0.5,0.3,0.8,0.2c0.1,0.2,0.2,0.3,0.3,0.5c3.5,6.1,10,10.4,16.7,12.2
				C93.8,173,94.3,177.4,94.9,181.5z M92,157.6c1.1,3.8,2.6,7.4,4.9,10.6c-0.6-0.1-1.3-0.2-1.9-0.1c-0.2,0-0.4,0.1-0.5,0.2
				c-0.1,0-0.3,0-0.4,0c-0.6-0.1-1.2-0.2-1.8-0.1c-6.9-1.6-13.4-6-16.8-12.3c-1.7-3.1-2.6-6.6-3.6-10c-0.5-1.8-1.1-3.6-1.8-5.4
				c-0.2-0.4-0.3-0.8-0.5-1.3c2.7,2.2,5.8,3.5,9.2,4.2c2.1,0.4,4.2,0.6,6.2,1c1.2,0.2,2.5,0.6,3.7,0.9C90,149.3,90.8,153.5,92,157.6
				z M81.7,119.5L81.7,119.5c0.3,0.5,0.5,1,0.7,1.4c1.6,3.9,3,7.8,4.8,11.6c1.9,4,4.3,8,7.3,11.4c-1.3-0.2-2.6-0.3-3.9-0.3
				c-0.2,0-0.3,0-0.5,0.1c-1-0.1-2-0.4-3-0.6c-1.3-0.3-2.7-0.6-4.1-0.8c-2.5-0.4-5.2-0.6-7.6-1.5c-3.7-1.4-6.6-4.1-9-7.1
				c-2.4-3.1-4.3-6.5-6.4-9.8c-2.2-3.5-4.7-6.7-7.7-9.6c-4.9-4.7-11.2-8.4-18.1-7.5l-0.1-0.1c1.2-2.4,4.8-3.2,7.1-3.7
				c1.7-0.3,3.4-0.5,5.1-0.5c1.3,0,2.7,0.1,3.9,0.6c0.3,0.1,0.6,0.1,0.7-0.1c1.8,0.7,3.6,1.3,5.4,1.9c3.2,1,6.5,1.7,9.8,2.5
				c3.3,0.9,6.4,2.3,9.1,4.4C78,114,79.6,117,81.7,119.5z M76.2,91.7c1.5,1.5,2.9,3.2,4.3,4.9c1.5,1.9,2.8,3.8,4,5.8
				c0.9,1.5,1.8,2.9,2.8,4.2c-2.8-1.2-5.8-1.9-8.9-1.9c-0.2,0-0.3,0.1-0.5,0.1l-0.1-0.1c-7.1-3.8-13.5-9.3-17.7-16.3
				c-1.1-1.7-1.9-3.6-2.9-5.4c-0.3-0.5-0.5-1-0.8-1.5c3.9,3.3,8.5,5.8,13.6,6.7c0.6,0.1,1.2,0.2,1.8,0.2
				C73.5,89.2,74.9,90.4,76.2,91.7z M85.7,81.4c0.5,0.7,0.9,1.4,1.4,2.1c0.7,1.8,1.3,3.5,2.1,5.3c0.4,1,0.9,2.1,1.4,3.1
				c-1.9-1.4-4-2.6-6.2-3.5c-3.8-1.7-8.3-3-12.5-2c-0.2,0-0.3,0.1-0.4,0.2c-0.3,0-0.5,0-0.6,0.2c-0.6-0.1-1.3-0.3-1.9-0.4
				c-1.1-0.3-2.2-0.7-3.2-1.1c-1.9-0.8-3.8-1.8-5.5-2.9c-2.8-1.9-5.2-4.2-7.4-6.8c-1.2-1.7-2.4-3.4-3.8-5C45,64.4,41.9,57.4,36.7,52
				c3.7,0.6,7.4,1.4,10.9,2.7c0.5,0.2,1.1,0.4,1.6,0.7c0.1,0.1,0.2,0.1,0.2,0.1c1.5,0.7,2.9,1.5,4.2,2.4c1.9,1.4,3.6,3.1,5.2,4.8
				c1.5,1.6,3,3.3,4.8,4.8c1.9,1.6,4,2.9,6.2,3.9c2.2,1.1,4.6,1.8,6.9,2.7c1.9,0.7,3.8,1.5,5.3,2.9C83.3,78.2,84.5,79.8,85.7,81.4z
				 M83.6,76.3c-3-2.9-7-4-10.9-5.4C70.3,70,68,68.8,66,67.3c-1.9-1.3-3.5-3-5-4.6c-1.6-1.7-3.1-3.5-4.9-5c-1.7-1.5-3.7-2.7-5.7-3.6
				c-0.2-0.1-0.3-0.1-0.5-0.2l0,0c-5.2-3.9-9.3-9.3-12.7-14.8c-1.8-2.8-3.7-6.5-6.6-8.3c3.7,0,7.3,0,10.9,0.7
				c4.6,0.9,8.5,3.2,11.9,6.3c3.2,3,5.9,6.5,8.5,10c2.5,3.4,5,7,8,10c3.1,3,6.7,5.5,9.4,9C81.5,69.5,82.3,73,83.6,76.3z M84.7,34.7
				c-0.1,0.2-0.1,0.4,0,0.7c1.4,3.5,2.5,7.2,3.9,10.7c-2.1-2.2-4.5-4-7.5-4.8c-0.6-0.4-1.2-0.8-1.7-1.2c-4.7-6.9-12.2-11.9-20-14.3
				c-0.6-0.2-1.3-0.4-1.9-0.5C57.3,25.1,57.2,25,57,25c-2-0.6-3.7-1.8-5.4-3c-1.8-1.3-3.7-2.5-5.6-3.6c-4-2.4-8.1-4.7-12.4-6.6
				c-0.1,0-0.1,0-0.2-0.1c0-0.2-0.1-0.5-0.4-0.6c-3.9-2-6.1-5.6-8.3-9.2c-1-1.5-1.9-3-3-4.5c2,0.9,4.1,1.4,6.2,1.7
				c3.9,0.6,7.8,0.6,11.8,0.5c9.2-0.2,18.7-0.2,27.7,2.1c2.9,0.7,5.7,1.7,8.4,3c1.4,0.7,3,1.6,4.2,2.8c-0.1,0.3-0.1,0.6,0.2,0.8
				c1.4,1.2,1.6,3.4,1.9,5.1c0.4,2.5,0.6,5.1,0.8,7.7C83.1,25.6,83.4,30.2,84.7,34.7z"/>
		</g>
	</g>
</g>
<text transform="matrix(1 0 0 1 33.8205 78.4187)" class="st3 st4 st5">J</text>
</svg>
