<?xml version="1.0" encoding="utf-8"?>
<!-- Generator: Adobe Illustrator 19.1.0, SVG Export Plug-In . SVG Version: 6.00 Build 0)  -->
<svg version="1.1" id="Layer_1" xmlns:sketch="http://www.bohemiancoding.com/sketch/ns"
	 xmlns="http://www.w3.org/2000/svg" xmlns:xlink="http://www.w3.org/1999/xlink" x="0px" y="0px" viewBox="-22 29 55 44"
	 style="enable-background:new -22 29 55 44;" xml:space="preserve">
<style type="text/css">
	.st0{fill:#FDCC9A;}
</style>
<title>twitter</title>
<desc>Created with Sketch.</desc>
<g id="Page-1" sketch:type="MSPage">
	<g id="layout" transform="translate(-524.000000, -1383.000000)" sketch:type="MSArtboardGroup">
		<path id="twitter" sketch:type="MSShapeGroup" class="st0" d="M557,1417.2c-2,0.9-4.2,1.5-6.5,1.7c2.3-1.4,4.1-3.6,5-6.1
			c-2.2,1.3-4.6,2.2-7.2,2.7c-2.1-2.2-5-3.5-8.2-3.5c-6.2,0-11.3,5-11.3,11.1c0,0.9,0.1,1.7,0.3,2.5c-9.4-0.5-17.7-4.9-23.3-11.6
			c-1,1.6-1.5,3.5-1.5,5.6c0,3.9,2,7.3,5,9.2c-1.8-0.1-3.6-0.6-5.1-1.4v0.1c0,5.4,3.9,9.9,9.1,10.9c-0.9,0.3-1.9,0.4-3,0.4
			c-0.7,0-1.4-0.1-2.1-0.2c1.4,4.4,5.6,7.6,10.5,7.7c-3.9,3-8.7,4.8-14,4.8c-0.9,0-1.8-0.1-2.7-0.2c5,3.2,10.9,5,17.3,5
			c20.8,0,32.1-16.9,32.1-31.6c0-0.5,0-1,0-1.4C553.6,1421.5,555.5,1419.5,557,1417.2"/>
	</g>
</g>
</svg>
